<svg preserveAspectRatio="none" width="100%" height="100%" overflow="visible" style="display: block;" viewBox="0 0 20 20" fill="none" xmlns="http://www.w3.org/2000/svg">
<g id="Frame">
<path id="Vector" d="M5.32602 15.1794H4.63171C4.60768 14.0022 4.54092 12.8947 4.42876 11.8596H4.42342L3.36594 15.1794H2.8372L1.78506 11.8596H1.77972C1.70228 12.8545 1.65154 13.962 1.63285 15.1794H0.999966C1.04002 13.6992 1.14417 12.3101 1.30706 11.0123H2.16693L3.16833 14.0746H3.17367L4.18042 11.0123H5.0029C5.18716 12.5327 5.29397 13.9217 5.32602 15.1794Z" fill="var(--fill-0, #00758F)"/>
<path id="Vector_2" d="M8.33823 12.1063C8.05517 13.6482 7.68131 14.7664 7.21933 15.4636C6.85883 16.0026 6.46361 16.2708 6.03367 16.2708C5.91885 16.2708 5.77732 16.2359 5.60908 16.1662V15.7961C5.69186 15.8069 5.788 15.8149 5.89748 15.8149C6.09776 15.8149 6.26066 15.7586 6.3835 15.6487C6.53037 15.5119 6.60514 15.3617 6.60514 15.1928C6.60514 15.0775 6.54639 14.8415 6.43423 14.4822L5.67317 12.1063H6.35412L6.90155 13.8842C7.02439 14.2864 7.07513 14.5707 7.05644 14.7289C7.35552 13.9271 7.56381 13.0529 7.68398 12.1063H8.33823Z" fill="var(--fill-0, #00758F)"/>
<path id="Vector_3" d="M11.3798 14.0263C11.3798 14.3803 11.2516 14.6699 10.9926 14.8978C10.7336 15.1231 10.3891 15.2357 9.95383 15.2357C9.54792 15.2357 9.15537 15.1043 8.77351 14.8469L8.95242 14.4902C9.28088 14.6538 9.5773 14.7369 9.84434 14.7369C10.0954 14.7369 10.2903 14.6806 10.4318 14.5707C10.5734 14.4607 10.6588 14.3052 10.6588 14.1068C10.6588 13.8601 10.4879 13.6482 10.1728 13.4712C9.88172 13.3104 9.29958 12.9752 9.29958 12.9752C8.98447 12.7445 8.82692 12.4978 8.82692 12.0876C8.82692 11.7497 8.94441 11.4762 9.17941 11.2697C9.4144 11.0605 9.71883 10.9586 10.0927 10.9586C10.4772 10.9586 10.827 11.0605 11.1422 11.267L10.9819 11.6237C10.7122 11.5084 10.4452 11.452 10.1835 11.452C9.96985 11.452 9.80695 11.503 9.69212 11.6076C9.5773 11.7095 9.5052 11.8409 9.5052 12.0018C9.5052 12.2485 9.68144 12.463 10.0046 12.6426C10.2983 12.8035 10.8938 13.1441 10.8938 13.1441C11.2196 13.3747 11.3798 13.6214 11.3798 14.0263Z" fill="var(--fill-0, #F29111)"/>
<path id="Vector_4" fill-rule="evenodd" clip-rule="evenodd" d="M12.6216 14.3481C12.4533 14.0773 12.3705 13.6402 12.3705 13.0395C12.3705 11.991 12.6883 11.4655 13.3239 11.4655C13.655 11.4655 13.9007 11.5915 14.0556 11.8409C14.2238 12.1117 14.3066 12.5434 14.3066 13.136C14.3066 14.1926 13.9888 14.7235 13.3532 14.7235C13.0221 14.7235 12.7764 14.5975 12.6216 14.3481ZM15.0917 15.2813L14.3279 14.9032C14.3947 14.8469 14.4615 14.7879 14.5175 14.7182C14.8407 14.3347 15.0036 13.7689 15.0036 13.0207C15.0036 11.6424 14.4641 10.9533 13.388 10.9533C12.8592 10.9533 12.448 11.1276 12.1516 11.4789C11.8284 11.8623 11.6656 12.4254 11.6656 13.1709C11.6656 13.903 11.8098 14.4393 12.0955 14.7825C12.3572 15.0909 12.7524 15.2464 13.2811 15.2464C13.4788 15.2464 13.6603 15.2223 13.8232 15.174L14.8166 15.7532L15.0917 15.2813Z" fill="var(--fill-0, #F29111)"/>
<path id="Vector_5" d="M17.5805 15.1794H15.6071V11.0123H16.272V14.6672H17.5805V15.1794Z" fill="var(--fill-0, #F29111)"/>
<path id="Vector_6" d="M18.0558 15.1794H18.1653V14.7557H18.3095V14.6699H17.9063V14.7557H18.0558V15.1794ZM18.8917 15.1794H18.9958V14.6699H18.8409L18.7127 15.0185L18.5739 14.6699H18.4243V15.1794H18.5231V14.7906H18.5285L18.6727 15.1794H18.7475L18.8917 14.7906V15.1794Z" fill="var(--fill-0, #F29111)"/>
<path id="Vector_7" fill-rule="evenodd" clip-rule="evenodd" d="M18.4137 9.61787C18.0131 9.60715 17.7007 9.64737 17.4416 9.76C17.3669 9.78949 17.2467 9.78949 17.236 9.88603C17.2761 9.92625 17.2814 9.99061 17.3161 10.0469C17.3749 10.1488 17.4817 10.2829 17.5778 10.3526C17.682 10.4331 17.7888 10.5135 17.8983 10.5832C18.0932 10.7039 18.3149 10.7736 18.5045 10.8943C18.6139 10.964 18.7261 11.0552 18.8356 11.1303C18.8917 11.1705 18.9264 11.2348 18.9958 11.2617V11.2456C18.9611 11.2 18.9504 11.1356 18.9157 11.0847C18.865 11.0337 18.8142 10.9881 18.7662 10.9399C18.6219 10.7441 18.4404 10.5725 18.2454 10.4304C18.0852 10.3204 17.7327 10.1676 17.6686 9.98256C17.6686 9.98256 17.6633 9.9772 17.6579 9.97184C17.7674 9.96111 17.8983 9.92089 18.0051 9.89139C18.176 9.84581 18.3309 9.85653 18.5071 9.81095C18.5872 9.78949 18.6673 9.76536 18.7475 9.74122V9.69564C18.6567 9.60447 18.5926 9.4838 18.4964 9.39799C18.2401 9.17542 17.9597 8.9609 17.6686 8.77855C17.5137 8.67665 17.3135 8.6123 17.1479 8.52649C17.0891 8.49699 16.9877 8.4809 16.9529 8.42995C16.8622 8.32001 16.8114 8.17253 16.7473 8.04113C16.6031 7.76493 16.4616 7.45655 16.3361 7.16427C16.2453 6.96851 16.1919 6.77276 16.0797 6.59042C15.5643 5.735 15.0009 5.21747 14.141 4.70798C13.9568 4.6034 13.7351 4.55781 13.5001 4.5015C13.3746 4.49614 13.2491 4.48541 13.1236 4.48273C13.0435 4.44787 12.9634 4.35133 12.8939 4.30575C12.6082 4.1234 11.8712 3.7319 11.6602 4.24943C11.524 4.57658 11.8605 4.89837 11.9753 5.06462C12.0608 5.17993 12.1703 5.31132 12.2317 5.44272C12.2664 5.52853 12.2771 5.6197 12.3118 5.71087C12.3919 5.93344 12.4667 6.18014 12.5735 6.38662C12.6296 6.4912 12.6883 6.60382 12.7577 6.69768C12.7978 6.75399 12.8672 6.77812 12.8833 6.8693C12.8138 6.97119 12.8085 7.12136 12.7684 7.24739C12.5868 7.81588 12.6589 8.52113 12.9126 8.93945C12.9927 9.06548 13.1823 9.34168 13.4387 9.2371C13.663 9.14592 13.6149 8.859 13.679 8.60693C13.6951 8.54526 13.6844 8.50503 13.7137 8.46481V8.47554C13.7832 8.61498 13.8553 8.75174 13.9194 8.89386C14.0743 9.14056 14.3466 9.39799 14.5709 9.56692C14.6911 9.6581 14.7873 9.81363 14.9368 9.86994V9.85385H14.9261C14.8967 9.80826 14.8513 9.78949 14.8113 9.75463C14.7205 9.66346 14.6217 9.55352 14.5496 9.45162C14.3386 9.17006 14.1544 8.85632 13.9888 8.53453C13.9087 8.379 13.8393 8.20738 13.7725 8.05185C13.7431 7.99286 13.7431 7.90169 13.6924 7.86951C13.6176 7.97945 13.5081 8.07599 13.4521 8.21007C13.3559 8.42727 13.3479 8.69274 13.3105 8.97162C13.2918 8.97699 13.2998 8.97162 13.2918 8.98235C13.1316 8.94213 13.0755 8.77587 13.0168 8.63643C12.8672 8.27979 12.8405 7.70594 12.9714 7.29298C13.0061 7.1884 13.1583 6.85589 13.0969 6.75399C13.0675 6.65746 12.966 6.60383 12.9126 6.52606C12.8485 6.42953 12.7764 6.30886 12.7337 6.20428C12.6135 5.92271 12.5521 5.60897 12.4239 5.32741C12.3625 5.19602 12.2584 5.05926 12.1729 4.93859C12.0768 4.80183 11.9726 4.70798 11.8979 4.54708C11.8738 4.49077 11.8391 4.3996 11.8765 4.34061C11.8872 4.30038 11.9059 4.28429 11.9459 4.27625C12.01 4.21994 12.197 4.29234 12.2611 4.32183C12.448 4.39692 12.6029 4.46932 12.7577 4.5739C12.8272 4.62485 12.9019 4.7187 12.9927 4.74552H13.0996C13.2598 4.78038 13.4414 4.75624 13.5909 4.80183C13.8553 4.88764 14.0983 5.01367 14.3119 5.15043C14.9688 5.56875 15.5109 6.16137 15.8768 6.87198C15.9382 6.98728 15.9622 7.09455 16.0183 7.21521C16.1225 7.46192 16.2533 7.71398 16.3601 7.95532C16.4643 8.19129 16.5657 8.43263 16.7153 8.63107C16.7901 8.73565 17.0918 8.79196 17.2253 8.84827C17.3241 8.89386 17.4817 8.93408 17.5725 8.98771C17.7434 9.09229 17.9143 9.21296 18.0745 9.33095C18.1493 9.39263 18.4003 9.51866 18.4137 9.61787Z" fill="var(--fill-0, #00758F)"/>
<path id="Vector_8" fill-rule="evenodd" clip-rule="evenodd" d="M13.3025 5.24428C13.2171 5.24428 13.1583 5.25501 13.0969 5.26842V5.27915H13.1076C13.1476 5.35959 13.2171 5.4159 13.2678 5.48562C13.3078 5.56607 13.3426 5.64651 13.3826 5.72696C13.388 5.7216 13.3933 5.71623 13.3933 5.71623C13.4627 5.66529 13.5001 5.58484 13.5001 5.46417C13.4707 5.42931 13.4654 5.39445 13.4387 5.35959C13.4067 5.30864 13.3426 5.28451 13.3025 5.24428Z" fill="var(--fill-0, #00758F)"/>
</g>
</svg>
