<svg preserveAspectRatio="none" width="100%" height="100%" overflow="visible" style="display: block;" viewBox="0 0 14.2145 14.7221" fill="none" xmlns="http://www.w3.org/2000/svg">
<g id="Group">
<path id="Vector" fill-rule="evenodd" clip-rule="evenodd" d="M10.9323 3.11909V4.86504H10.9296C12.5287 5.10935 13.8062 6.30974 14.1339 7.87603C14.4616 9.44232 13.7706 11.045 12.4007 11.8963C11.0308 12.7475 9.26996 12.6682 7.98398 11.6974L6.5461 13.1186C6.58331 13.2339 6.60312 13.354 6.60482 13.475C6.60482 14.1638 6.03993 14.7221 5.3431 14.7221C4.64627 14.7221 4.08137 14.1638 4.08137 13.475C4.08137 12.7863 4.64627 12.2279 5.3431 12.2279C5.46554 12.2297 5.58704 12.2492 5.70372 12.286L7.15725 10.8493C6.24082 9.56067 6.21714 7.84857 7.09756 6.53571L2.32139 2.8606C1.68053 3.22418 0.86913 3.09002 0.38288 2.5401C-0.103373 1.99017 -0.129235 1.17744 0.321095 0.598396C0.771426 0.0193567 1.57269 -0.16493 2.23539 0.158116C2.89809 0.481168 3.2379 1.2217 3.04722 1.92732L7.90506 5.66682C8.435 5.2456 9.06812 4.97026 9.74034 4.86867V3.11909C9.2631 2.89878 8.95716 2.42617 8.95481 1.90555V1.86473C8.95683 1.12271 9.56491 0.521674 10.3157 0.51968H10.357C11.1077 0.521674 11.7157 1.12271 11.7178 1.86473V1.90555C11.7155 2.42617 11.4095 2.89878 10.9323 3.11909ZM8.34915 8.6475C8.34732 9.73295 9.23576 10.6146 10.334 10.6172L10.3385 10.6181C11.4373 10.6181 12.3279 9.73766 12.3279 8.65169C12.3285 7.56617 11.439 6.68564 10.3407 6.68446C9.2425 6.68328 8.35105 7.56199 8.34915 8.6475Z" fill="var(--fill-0, #FF4800)"/>
</g>
</svg>
