<svg preserveAspectRatio="none" width="100%" height="100%" overflow="visible" style="display: block;" viewBox="0 0 24 24" fill="none" xmlns="http://www.w3.org/2000/svg">
<g id="Group">
<path id="Vector" d="M13.7634 2.00272e-05H23.6364C23.8371 2.00272e-05 24 0.16286 24 0.36362V15.4519C24 15.8134 23.5299 15.9534 23.3321 15.651L13.4591 0.56282C13.3009 0.3209 13.4744 2.00272e-05 13.7634 2.00272e-05Z" fill="var(--fill-0, #246DFF)"/>
<path id="Vector_2" d="M10.2366 0H0.3636C0.16284 0 0 0.16284 0 0.3636V15.4519C0 15.8134 0.47004 15.9534 0.66792 15.651L10.5408 0.5628C10.6991 0.32088 10.5256 0 10.2366 0Z" fill="var(--fill-0, #20A34E)"/>
<path id="Vector_3" d="M11.8309 12.0802L0.61523 23.3802C0.38747 23.6097 0.54995 24 0.87335 24H23.136C23.4579 24 23.621 23.6124 23.396 23.3823L12.349 12.0822C12.2071 11.937 11.9738 11.9362 11.8309 12.0802Z" fill="var(--fill-0, #F86606)"/>
</g>
</svg>
