<svg preserveAspectRatio="none" width="100%" height="100%" overflow="visible" style="display: block;" viewBox="0 0 13.5 13.5" fill="none" xmlns="http://www.w3.org/2000/svg">
<path id="Icon" d="M8.75 12.75V9.15C8.75 8.77663 8.75 8.58995 8.67734 8.44734C8.61342 8.3219 8.51144 8.21991 8.386 8.156C8.24339 8.08334 8.0567 8.08334 7.68333 8.08334H5.81667C5.4433 8.08334 5.25662 8.08334 5.11401 8.156C4.98857 8.21991 4.88658 8.3219 4.82266 8.44734C4.75 8.58995 4.75 8.77663 4.75 9.15V12.75M0.750002 3.41667C0.750002 4.52124 1.64543 5.41667 2.75 5.41667C3.85457 5.41667 4.75 4.52124 4.75 3.41667C4.75 4.52124 5.64543 5.41667 6.75 5.41667C7.85457 5.41667 8.75 4.52124 8.75 3.41667C8.75 4.52124 9.64543 5.41667 10.75 5.41667C11.8546 5.41667 12.75 4.52124 12.75 3.41667M2.88333 12.75H10.6167C11.3634 12.75 11.7368 12.75 12.022 12.6047C12.2729 12.4768 12.4768 12.2729 12.6047 12.022C12.75 11.7368 12.75 11.3634 12.75 10.6167V2.88334C12.75 2.1366 12.75 1.76323 12.6047 1.47801C12.4768 1.22713 12.2729 1.02316 12.022 0.895326C11.7368 0.750002 11.3634 0.750002 10.6167 0.750002H2.88334C2.1366 0.750002 1.76323 0.750002 1.47801 0.895326C1.22713 1.02316 1.02316 1.22713 0.895326 1.47801C0.750002 1.76323 0.750002 2.1366 0.750002 2.88333V10.6167C0.750002 11.3634 0.750002 11.7368 0.895326 12.022C1.02316 12.2729 1.22713 12.4768 1.47801 12.6047C1.76323 12.75 2.1366 12.75 2.88333 12.75Z" stroke="var(--stroke-0, #6E6E6A)" stroke-width="1.5" stroke-linecap="round" stroke-linejoin="round"/>
</svg>
