<svg preserveAspectRatio="none" width="100%" height="100%" overflow="visible" style="display: block;" viewBox="0 0 15.5936 17" fill="none" xmlns="http://www.w3.org/2000/svg">
<path id="Vector" fill-rule="evenodd" clip-rule="evenodd" d="M9.84753 0.193395C9.67666 -0.00909442 9.39186 -0.0576918 9.16403 0.0719013L8.95247 0.185295L6.64972 1.48933L7.18676 2.42888L8.68395 1.57842L8.31779 3.57092L9.38373 3.7653L9.75803 1.76471L10.8646 3.07684L11.6946 2.38028L10.0184 0.387784H10.0103L9.84753 0.193395ZM6.61717 17C7.17048 17 7.61802 16.5626 7.61802 16.0281C7.61802 15.4935 7.17048 15.0561 6.61717 15.0561C6.06386 15.0561 5.61633 15.4935 5.61633 16.0281C5.6082 16.5626 6.06386 17 6.61717 17ZM7.95977 11.6624L7.60174 13.663L6.52767 13.4686L6.88569 11.4761L5.3885 12.3346L4.84332 11.3951L7.1298 10.0911L7.34136 9.96957C7.56919 9.83998 7.85399 9.88858 8.02486 10.0911L8.1876 10.2855L9.88822 12.2699L9.05825 12.9745L7.95977 11.6624ZM8.83042 6.88364L8.47239 8.88423L7.39832 8.68984L7.75634 6.70545L6.26729 7.5559L5.73025 6.61635L8.00859 5.32042V5.30422H8.02486L8.23642 5.18273C8.46426 5.05314 8.74905 5.10173 8.91992 5.30422L9.08266 5.49051L10.7751 7.48301L9.94518 8.18767L8.83042 6.88364ZM1.80825 14.7888H1.80011L1.58042 14.724C1.34445 14.6592 1.18985 14.4324 1.20612 14.1895L1.40141 11.4842L2.43479 11.5571L2.31274 13.2013L3.91572 12.116L4.49344 12.9664L2.92301 14.0275L4.52598 14.4891L4.24119 15.4773L1.80825 14.7888ZM12.4432 15.9066L12.37 16.1414C12.2967 16.3682 12.0852 16.5221 11.8411 16.5059L11.6132 16.4897L11.597 16.4978L11.5888 16.4897L9.06639 16.3196L9.13148 15.291L10.8077 15.4044L9.70921 13.8736L10.5473 13.2742L11.6702 14.8455L12.1584 13.258L13.143 13.5577L12.4432 15.9066ZM15.4051 10.3341L15.5271 10.5527C15.6492 10.7714 15.6003 11.0468 15.4051 11.2088L15.226 11.3627V11.3708H15.2179L13.2569 13.0231L12.5734 12.2213L13.859 11.1359L11.9306 10.7957L12.1177 9.75899L14.0625 10.0992L13.2488 8.64125L14.1682 8.13097L15.4051 10.3341ZM13.4115 5.8145L11.6702 6.74595L11.1657 5.8226L12.8826 4.90734L11.3122 4.26748L11.7109 3.29553L14.1031 4.25938L14.1113 4.25128L14.1194 4.26748L14.3391 4.35657C14.5751 4.45377 14.7053 4.69676 14.6646 4.93974L14.6239 5.18273L14.1764 7.6531L13.1349 7.46681L13.4115 5.8145ZM1.72688 7.98518L3.66347 8.30916L3.48446 9.34591L1.5316 9.01383L2.36156 10.4717L1.44209 10.9901L0.189004 8.79514L0.0669499 8.58455C-0.0551039 8.36586 -0.00628242 8.09048 0.180867 7.92848L0.359879 7.77459V7.76649H0.368016L2.3046 6.10608L2.99624 6.90794L1.72688 7.98518ZM4.64804 3.49802L5.93367 4.92354L5.14439 5.62821L3.82621 4.17028L3.52514 5.8307L2.48362 5.6444L2.93928 3.18214L2.98811 2.93105C3.02879 2.68806 3.24035 2.50987 3.48446 2.50177L3.71229 2.49367L3.72043 2.48557L3.72857 2.49367L6.31611 2.38838L6.35679 3.44132L4.64804 3.49802Z" fill="var(--fill-0, #111111)"/>
</svg>
