<svg preserveAspectRatio="none" width="100%" height="100%" overflow="visible" style="display: block;" viewBox="0 0 20 20" fill="none" xmlns="http://www.w3.org/2000/svg">
<g id="Frame">
<path id="Vector" d="M11.8656 15.5081C11.566 15.5081 11.3209 15.263 11.3209 14.9634V9.99999C11.3209 9.70041 11.566 9.45531 11.8656 9.45531C12.1651 9.45531 12.4102 9.70041 12.4102 9.99999V14.9634C12.4102 15.263 12.1651 15.5081 11.8656 15.5081Z" fill="var(--fill-0, #34A853)"/>
<path id="Vector_2" d="M6.27232 15.5081C5.97275 15.5081 5.72764 15.263 5.72764 14.9634V8.13786C5.72764 7.83828 5.97275 7.59318 6.27232 7.59318C6.57189 7.59318 6.817 7.83828 6.817 8.13786V14.9634C6.817 15.263 6.57189 15.5081 6.27232 15.5081Z" fill="var(--fill-0, #34A853)"/>
<path id="Vector_3" d="M9.07063 16.1379C8.77106 16.1379 8.52595 15.8928 8.52595 15.5932V6.27233C8.52595 5.97276 8.77106 5.72765 9.07063 5.72765C9.37021 5.72765 9.61531 5.97276 9.61531 6.27233V15.5898C9.61531 15.8894 9.37021 16.1345 9.07063 16.1345V16.1379Z" fill="var(--fill-0, #34A853)"/>
<path id="Vector_4" d="M9.07062 16.1379C5.17275 16.1379 2.00339 12.9685 2.00339 9.07066H3.09275C3.09275 12.366 5.7753 15.0485 9.07062 15.0485C12.3659 15.0485 15.0485 12.366 15.0485 9.07066H16.1379C16.1379 12.9685 12.9685 16.1379 9.07062 16.1379Z" fill="var(--fill-0, #FBBC04)"/>
<path id="Vector_5" d="M16.1379 9.07064H15.0485C15.0485 5.77532 12.3659 3.09277 9.07063 3.09277C5.77531 3.09277 3.08935 5.77191 3.08935 9.07064H1.99999C1.99999 5.17277 5.17276 2 9.07063 2C12.9685 2 16.1379 5.16936 16.1379 9.06723V9.07064Z" fill="var(--fill-0, #EA4335)"/>
<path id="Vector_6" d="M17.84 17.0707L14.4357 13.6664C15.5353 12.3864 16.1345 10.7728 16.1345 9.0673C16.1345 7.36177 15.3991 5.40432 14.0647 4.06985L13.2953 4.83921C14.4255 5.96943 15.0451 7.4707 15.0451 9.0673C15.0451 10.6639 14.4221 12.1618 13.2919 13.292C13.1217 13.4622 13.0366 13.5303 12.8902 13.6596L17.0706 17.8401C17.1762 17.9456 17.3157 18.0001 17.4553 18.0001C17.5949 18.0001 17.7345 17.9456 17.84 17.8401C18.0511 17.629 18.0511 17.2818 17.84 17.0707Z" fill="var(--fill-0, #4285F4)"/>
</g>
</svg>
