<svg preserveAspectRatio="none" width="100%" height="100%" overflow="visible" style="display: block;" viewBox="0 0 30 30" fill="none" xmlns="http://www.w3.org/2000/svg">
<g id="Frame">
<path id="Vector" fill-rule="evenodd" clip-rule="evenodd" d="M7.35733 2.99998L14.3045 9.40074V9.39927V3.01475H15.6568V9.42938L22.6351 2.99998V10.2978H25.5001V20.8242H22.6439V27.3225L15.6568 21.1839V27.393H14.3045V21.2851L7.3652 27.397V20.8242H4.50009V10.2978H7.35733V2.99998ZM13.285 11.6336H5.85242V19.4884H7.3635V17.0107L13.285 11.6336ZM8.71746 17.6034V24.4163L14.3045 19.4954V12.5288L8.71746 17.6034ZM15.6957 19.4303V12.5222L21.2843 17.5971V20.8242H21.2915V24.3467L15.6957 19.4303ZM22.6439 19.4884H24.1478V11.6336H16.7706L22.6439 16.955V19.4884ZM21.2827 10.2978V6.07265L16.6968 10.2978H21.2827ZM13.2955 10.2978H8.70967V6.07265L13.2955 10.2978Z" fill="var(--fill-0, #20808D)"/>
</g>
</svg>
