<svg preserveAspectRatio="none" width="100%" height="100%" overflow="visible" style="display: block;" viewBox="0 0 32 32" fill="none" xmlns="http://www.w3.org/2000/svg">
<g id="Google Sheets.svg">
<path id="Vector" d="M19 3.2L25.6 9.8055L22.3 10.406L19 9.8055L18.4 6.50275L19 3.2Z" fill="var(--fill-0, #188038)"/>
<path id="Vector_2" d="M19 9.8055V3.2H8.20005C7.20555 3.2 6.40005 4.00617 6.40005 5.0015V27.8205C6.40005 28.8158 7.20555 29.622 8.20005 29.622H23.8C24.7945 29.622 25.6 28.8158 25.6 27.8205V9.8055H19Z" fill="var(--fill-0, #34A853)"/>
<path id="Vector_3" d="M10 13.4085V22.1158H22V13.4085H10ZM15.25 20.6145H11.5V18.5127H15.25V20.6145ZM15.25 17.0115H11.5V14.9097H15.25V17.0115ZM20.5 20.6145H16.75V18.5127H20.5V20.6145ZM20.5 17.0115H16.75V14.9097H20.5V17.0115Z" fill="var(--fill-0, white)"/>
</g>
</svg>
