<svg preserveAspectRatio="none" width="100%" height="100%" overflow="visible" style="display: block;" viewBox="0 0 20 20" fill="none" xmlns="http://www.w3.org/2000/svg">
<g id="Frame">
<path id="Vector" fill-rule="evenodd" clip-rule="evenodd" d="M10.1423 2C5.63984 2 2.00001 5.66667 2.00001 10.2028C2.00001 13.8288 4.33217 16.8982 7.5675 17.9845C7.972 18.0662 8.12017 17.808 8.12017 17.5908C8.12017 17.4007 8.10684 16.7488 8.10684 16.0697C5.84184 16.5587 5.37017 15.0918 5.37017 15.0918C5.00617 14.1412 4.46684 13.8968 4.46684 13.8968C3.72551 13.3943 4.52084 13.3943 4.52084 13.3943C5.34317 13.4487 5.77467 14.2363 5.77467 14.2363C6.50251 15.4857 7.67534 15.1327 8.14717 14.9153C8.2145 14.3857 8.43034 14.019 8.6595 13.8153C6.85301 13.6252 4.95234 12.919 4.95234 9.76817C4.95234 8.87184 5.27567 8.1385 5.78801 7.56817C5.70717 7.3645 5.42401 6.52234 5.86901 5.39517C5.86901 5.39517 6.5565 5.17784 8.10667 6.23717C8.77035 6.05761 9.4548 5.96627 10.1423 5.9655C10.8298 5.9655 11.5307 6.06067 12.1778 6.23717C13.7282 5.17784 14.4157 5.39517 14.4157 5.39517C14.8607 6.52234 14.5773 7.3645 14.4965 7.56817C15.0223 8.1385 15.3323 8.87184 15.3323 9.76817C15.3323 12.919 13.4317 13.6115 11.6117 13.8153C11.9083 14.0733 12.1643 14.5622 12.1643 15.3363C12.1643 16.4363 12.151 17.3192 12.151 17.5907C12.151 17.808 12.2993 18.0662 12.7037 17.9847C15.939 16.898 18.2712 13.8288 18.2712 10.2028C18.2845 5.66667 14.6313 2 10.1423 2Z" fill="var(--fill-0, #24292F)"/>
</g>
</svg>
