<svg preserveAspectRatio="none" width="100%" height="100%" overflow="visible" style="display: block;" viewBox="0 0 20 20" fill="none" xmlns="http://www.w3.org/2000/svg">
<g id="Frame">
<mask id="mask0_3945_21508" style="mask-type:luminance" maskUnits="userSpaceOnUse" x="1" y="2" width="18" height="16">
<g id="SVGID_2_">
<path id="Vector" d="M13.4594 5.76992C13.4594 7.84785 11.7645 9.53987 9.68296 9.53987C7.60143 9.53987 5.90647 7.84785 5.90647 5.76992C5.90647 3.692 7.60143 1.99998 9.68296 1.99998C11.7942 1.99998 13.4594 3.66232 13.4594 5.76992ZM4.77649 10.4601C2.69496 10.4601 1 12.1521 1 14.23C1 16.308 2.69496 18 4.77649 18C6.85802 18 8.55298 16.308 8.55298 14.23C8.55298 12.1521 6.88776 10.4601 4.77649 10.4601ZM14.5894 10.4601C12.5079 10.4601 10.8129 12.1521 10.8129 14.23C10.8129 16.308 12.5079 18 14.5894 18C16.6709 18 18.3659 16.308 18.3659 14.23C18.3659 12.1521 16.7007 10.4601 14.5894 10.4601Z" fill="var(--fill-0, white)"/>
</g>
</mask>
<g mask="url(#mask0_3945_21508)">
<path id="Vector_2" d="M9.68296 1.82185C14.9463 1.82185 19.1985 6.06675 19.1985 11.3209C19.1985 16.5751 14.9463 20.82 9.68296 20.82C4.41966 20.82 0.167393 16.5751 0.167393 11.3209C0.197129 6.06675 4.4494 1.82185 9.68296 1.82185Z" fill="url(#paint0_radial_3945_21508)"/>
</g>
</g>
<defs>
<radialGradient id="paint0_radial_3945_21508" cx="0" cy="0" r="1" gradientUnits="userSpaceOnUse" gradientTransform="translate(9.69423 11.3126) rotate(-90) scale(9.49529 9.51178)">
<stop stop-color="#FFB900"/>
<stop offset="0.6" stop-color="#F95D8F"/>
<stop offset="0.9991" stop-color="#F95353"/>
</radialGradient>
</defs>
</svg>
