<svg preserveAspectRatio="none" width="100%" height="100%" overflow="visible" style="display: block;" viewBox="0 0 20 20" fill="none" xmlns="http://www.w3.org/2000/svg">
<g id="Frame">
<path id="Vector" d="M5.78656 8.68284C5.78656 8.8945 5.8148 9.06382 5.84304 9.19081C5.8854 9.3178 5.94188 9.4448 6.02659 9.60001C6.05483 9.64234 6.06895 9.68467 6.06895 9.727C6.06895 9.78344 6.04071 9.83988 5.956 9.89632L5.60301 10.1362C5.54653 10.1644 5.50417 10.1926 5.46181 10.1926C5.40533 10.1926 5.34885 10.1644 5.29237 10.108C5.20766 10.0233 5.15118 9.93865 5.0947 9.83988C5.03822 9.74111 4.98174 9.64234 4.92526 9.50124C4.48756 10.0233 3.93689 10.2773 3.25915 10.2773C2.77909 10.2773 2.41198 10.1362 2.12958 9.8681C1.84719 9.60001 1.706 9.23314 1.706 8.78161C1.706 8.30187 1.87543 7.90678 2.2143 7.62458C2.55317 7.34237 3.01912 7.18716 3.59802 7.18716C3.7957 7.18716 3.99337 7.20127 4.19105 7.22949C4.40284 7.25771 4.61463 7.30004 4.84055 7.35648V6.94729C4.84055 6.52398 4.75583 6.21355 4.57227 6.04423C4.38872 5.87491 4.09221 5.79025 3.6545 5.79025C3.45683 5.79025 3.25915 5.81847 3.04736 5.8608C2.83556 5.91724 2.63789 5.97368 2.44021 6.05834C2.3555 6.08656 2.2849 6.11478 2.24254 6.12889C2.20018 6.12889 2.17194 6.143 2.15782 6.143C2.07311 6.143 2.04487 6.08656 2.04487 5.97368V5.69148C2.04487 5.60681 2.05899 5.53626 2.08722 5.49393C2.11546 5.4516 2.17194 5.40927 2.24254 5.38105C2.44021 5.28228 2.68025 5.19762 2.94852 5.12707C3.23091 5.05652 3.5133 5.01418 3.82394 5.01418C4.50168 5.01418 4.98174 5.1694 5.30649 5.46571C5.61713 5.77614 5.77244 6.22766 5.77244 6.86262L5.78656 8.68284ZM3.49919 9.54357C3.68274 9.54357 3.88041 9.51535 4.07809 9.4448C4.27576 9.37424 4.45932 9.24725 4.61463 9.07793C4.69935 8.96505 4.76995 8.85217 4.81231 8.71106C4.84055 8.56996 4.86879 8.41475 4.86879 8.21721V7.97733C4.69935 7.935 4.52992 7.90678 4.34636 7.87856C4.16281 7.85034 3.99337 7.85034 3.80982 7.85034C3.42859 7.85034 3.16031 7.92089 2.96264 8.0761C2.77909 8.23132 2.68025 8.44297 2.68025 8.72517C2.68025 8.99327 2.75085 9.19081 2.89204 9.3178C3.03324 9.48713 3.23091 9.54357 3.49919 9.54357ZM8.03158 10.1644C7.93274 10.1644 7.86214 10.1503 7.81978 10.108C7.77742 10.0798 7.73507 9.99509 7.70683 9.88221L6.37958 5.50804C6.35134 5.39516 6.32311 5.32461 6.32311 5.28228C6.32311 5.19762 6.36546 5.14118 6.4643 5.14118H7.01497C7.12792 5.14118 7.19852 5.15529 7.24088 5.19762C7.28324 5.22584 7.3256 5.3105 7.35384 5.42338L8.29985 9.16259L9.17526 5.42338C9.2035 5.3105 9.23174 5.23995 9.28822 5.19762C9.33058 5.1694 9.4153 5.14118 9.51413 5.14118H9.96596C10.0789 5.14118 10.1495 5.15529 10.1919 5.19762C10.2342 5.22584 10.2766 5.3105 10.3048 5.42338L11.1944 9.20492L12.1686 5.42338C12.1969 5.3105 12.2392 5.23995 12.2816 5.19762C12.3239 5.1694 12.3945 5.14118 12.5075 5.14118H13.0299C13.1146 5.14118 13.1711 5.18351 13.1711 5.28228C13.1711 5.3105 13.1711 5.33872 13.157 5.36694C13.157 5.39516 13.1429 5.4516 13.1146 5.50804L11.745 9.88221C11.7168 9.99509 11.6744 10.0656 11.6321 10.108C11.5897 10.1362 11.5191 10.1644 11.4203 10.1644H10.9402C10.8273 10.1644 10.7567 10.1503 10.7143 10.108C10.6719 10.0656 10.6296 9.99509 10.6013 9.88221L9.72593 6.24177L8.85051 9.88221C8.82227 9.99509 8.79404 10.0656 8.73756 10.108C8.6952 10.1503 8.61048 10.1644 8.51164 10.1644H8.03158ZM15.3032 10.3055C15.0067 10.3055 14.7101 10.2773 14.4278 10.2067C14.1454 10.1362 13.9195 10.0656 13.7783 9.98098C13.6935 9.92454 13.6229 9.8681 13.6088 9.82577C13.5947 9.78344 13.5665 9.71289 13.5665 9.67056V9.38835C13.5665 9.27547 13.6088 9.21903 13.6935 9.21903C13.7218 9.21903 13.7641 9.21903 13.7924 9.23314C13.8206 9.24725 13.8771 9.26136 13.9336 9.28958C14.1312 9.37424 14.3289 9.4448 14.5548 9.48713C14.7807 9.52946 15.0067 9.55768 15.2326 9.55768C15.5856 9.55768 15.868 9.50124 16.0515 9.37424C16.2492 9.24725 16.348 9.06382 16.348 8.83806C16.348 8.68284 16.2915 8.55585 16.1927 8.44297C16.0939 8.33009 15.8962 8.24543 15.6279 8.14665L14.809 7.89267C14.3995 7.76568 14.0889 7.56814 13.9053 7.31415C13.7218 7.06017 13.6229 6.79207 13.6229 6.49576C13.6229 6.25588 13.6794 6.04423 13.7783 5.87491C13.8771 5.70559 14.0183 5.53626 14.1877 5.40927C14.3572 5.28228 14.5548 5.18351 14.7807 5.11296C15.0067 5.0424 15.2467 5.01418 15.4867 5.01418C15.6138 5.01418 15.7409 5.01418 15.868 5.0424C15.995 5.05652 16.1221 5.08474 16.2351 5.09885C16.348 5.12707 16.461 5.15529 16.5598 5.18351C16.6587 5.21173 16.7434 5.25406 16.7998 5.28228C16.8846 5.32461 16.941 5.36694 16.9693 5.42338C16.9975 5.46571 17.0258 5.53626 17.0258 5.60681V5.87491C17.0258 5.98779 16.9834 6.05834 16.8987 6.05834C16.8563 6.05834 16.7857 6.03012 16.6869 5.98779C16.3621 5.84669 16.0092 5.76203 15.5997 5.76203C15.2749 5.76203 15.0208 5.81847 14.8513 5.91724C14.6819 6.01601 14.5831 6.18533 14.5831 6.42521C14.5831 6.58042 14.6396 6.72152 14.7525 6.82029C14.8655 6.93318 15.0773 7.03195 15.3738 7.13072L16.1786 7.3847C16.5881 7.51169 16.8846 7.69513 17.054 7.92089C17.2234 8.14665 17.3082 8.41475 17.3082 8.71106C17.3082 8.95094 17.2517 9.1767 17.167 9.36013C17.0681 9.55768 16.9269 9.727 16.7575 9.85399C16.5881 9.99509 16.3763 10.0939 16.1362 10.1644C15.8538 10.2773 15.5856 10.3055 15.3032 10.3055Z" fill="var(--fill-0, #252F3E)"/>
<path id="Vector_2" d="M16.3763 13.057C14.5125 14.4257 11.8015 15.1594 9.48593 15.1594C6.2243 15.1594 3.28742 13.96 1.07065 11.9564C0.901211 11.8012 1.05653 11.5895 1.26832 11.7024C3.66865 13.0993 6.61965 13.9318 9.6836 13.9318C11.7451 13.9318 14.0183 13.5085 16.108 12.6196C16.4045 12.4926 16.6728 12.8312 16.3763 13.057Z" fill="var(--fill-0, #FF9900)"/>
<path id="Vector_3" d="M17.1387 12.1821C16.8987 11.8717 15.5714 12.041 14.9643 12.1116C14.7807 12.1398 14.7525 11.9705 14.9219 11.8576C15.9809 11.1098 17.7317 11.3214 17.9294 11.5754C18.1271 11.8294 17.8729 13.5791 16.8846 14.4116C16.7293 14.5386 16.5881 14.468 16.6587 14.2987C16.8846 13.7343 17.3788 12.4785 17.1387 12.1821Z" fill="var(--fill-0, #FF9900)"/>
<path id="Vector_4" d="M5.78656 8.68284C5.78656 8.8945 5.8148 9.06382 5.84304 9.19081C5.8854 9.3178 5.94188 9.4448 6.02659 9.60001C6.05483 9.64234 6.06895 9.68467 6.06895 9.727C6.06895 9.78344 6.04071 9.83988 5.956 9.89632L5.60301 10.1362C5.54653 10.1644 5.50417 10.1926 5.46181 10.1926C5.40533 10.1926 5.34885 10.1644 5.29237 10.108C5.20766 10.0233 5.15118 9.93865 5.0947 9.83988C5.03822 9.74111 4.98174 9.64234 4.92526 9.50124C4.48756 10.0233 3.93689 10.2773 3.25915 10.2773C2.77909 10.2773 2.41198 10.1362 2.12958 9.8681C1.84719 9.60001 1.706 9.23314 1.706 8.78161C1.706 8.30187 1.87543 7.90678 2.2143 7.62458C2.55317 7.34237 3.01912 7.18716 3.59802 7.18716C3.7957 7.18716 3.99337 7.20127 4.19105 7.22949C4.40284 7.25771 4.61463 7.30004 4.84055 7.35648V6.94729C4.84055 6.52398 4.75583 6.21355 4.57227 6.04423C4.38872 5.87491 4.09221 5.79025 3.6545 5.79025C3.45683 5.79025 3.25915 5.81847 3.04736 5.8608C2.83556 5.91724 2.63789 5.97368 2.44021 6.05834C2.3555 6.08656 2.2849 6.11478 2.24254 6.12889C2.20018 6.12889 2.17194 6.143 2.15782 6.143C2.07311 6.143 2.04487 6.08656 2.04487 5.97368V5.69148C2.04487 5.60681 2.05899 5.53626 2.08722 5.49393C2.11546 5.4516 2.17194 5.40927 2.24254 5.38105C2.44021 5.28228 2.68025 5.19762 2.94852 5.12707C3.23091 5.05652 3.5133 5.01418 3.82394 5.01418C4.50168 5.01418 4.98174 5.1694 5.30649 5.46571C5.61713 5.77614 5.77244 6.22766 5.77244 6.86262L5.78656 8.68284ZM3.49919 9.54357C3.68274 9.54357 3.88041 9.51535 4.07809 9.4448C4.27576 9.37424 4.45932 9.24725 4.61463 9.07793C4.69935 8.96505 4.76995 8.85217 4.81231 8.71106C4.84055 8.56996 4.86879 8.41475 4.86879 8.21721V7.97733C4.69935 7.935 4.52992 7.90678 4.34636 7.87856C4.16281 7.85034 3.99337 7.85034 3.80982 7.85034C3.42859 7.85034 3.16031 7.92089 2.96264 8.0761C2.77909 8.23132 2.68025 8.44297 2.68025 8.72517C2.68025 8.99327 2.75085 9.19081 2.89204 9.3178C3.03324 9.48713 3.23091 9.54357 3.49919 9.54357ZM8.03158 10.1644C7.93274 10.1644 7.86214 10.1503 7.81978 10.108C7.77742 10.0798 7.73507 9.99509 7.70683 9.88221L6.37958 5.50804C6.35134 5.39516 6.32311 5.32461 6.32311 5.28228C6.32311 5.19762 6.36546 5.14118 6.4643 5.14118H7.01497C7.12792 5.14118 7.19852 5.15529 7.24088 5.19762C7.28324 5.22584 7.3256 5.3105 7.35384 5.42338L8.29985 9.16259L9.17526 5.42338C9.2035 5.3105 9.23174 5.23995 9.28822 5.19762C9.33058 5.1694 9.4153 5.14118 9.51413 5.14118H9.96596C10.0789 5.14118 10.1495 5.15529 10.1919 5.19762C10.2342 5.22584 10.2766 5.3105 10.3048 5.42338L11.1944 9.20492L12.1686 5.42338C12.1969 5.3105 12.2392 5.23995 12.2816 5.19762C12.3239 5.1694 12.3945 5.14118 12.5075 5.14118H13.0299C13.1146 5.14118 13.1711 5.18351 13.1711 5.28228C13.1711 5.3105 13.1711 5.33872 13.157 5.36694C13.157 5.39516 13.1429 5.4516 13.1146 5.50804L11.745 9.88221C11.7168 9.99509 11.6744 10.0656 11.6321 10.108C11.5897 10.1362 11.5191 10.1644 11.4203 10.1644H10.9402C10.8273 10.1644 10.7567 10.1503 10.7143 10.108C10.6719 10.0656 10.6296 9.99509 10.6013 9.88221L9.72593 6.24177L8.85051 9.88221C8.82227 9.99509 8.79404 10.0656 8.73756 10.108C8.6952 10.1503 8.61048 10.1644 8.51164 10.1644H8.03158ZM15.3032 10.3055C15.0067 10.3055 14.7101 10.2773 14.4278 10.2067C14.1454 10.1362 13.9195 10.0656 13.7783 9.98098C13.6935 9.92454 13.6229 9.8681 13.6088 9.82577C13.5947 9.78344 13.5665 9.71289 13.5665 9.67056V9.38835C13.5665 9.27547 13.6088 9.21903 13.6935 9.21903C13.7218 9.21903 13.7641 9.21903 13.7924 9.23314C13.8206 9.24725 13.8771 9.26136 13.9336 9.28958C14.1312 9.37424 14.3289 9.4448 14.5548 9.48713C14.7807 9.52946 15.0067 9.55768 15.2326 9.55768C15.5856 9.55768 15.868 9.50124 16.0515 9.37424C16.2492 9.24725 16.348 9.06382 16.348 8.83806C16.348 8.68284 16.2915 8.55585 16.1927 8.44297C16.0939 8.33009 15.8962 8.24543 15.6279 8.14665L14.809 7.89267C14.3995 7.76568 14.0889 7.56814 13.9053 7.31415C13.7218 7.06017 13.6229 6.79207 13.6229 6.49576C13.6229 6.25588 13.6794 6.04423 13.7783 5.87491C13.8771 5.70559 14.0183 5.53626 14.1877 5.40927C14.3572 5.28228 14.5548 5.18351 14.7807 5.11296C15.0067 5.0424 15.2467 5.01418 15.4867 5.01418C15.6138 5.01418 15.7409 5.01418 15.868 5.0424C15.995 5.05652 16.1221 5.08474 16.2351 5.09885C16.348 5.12707 16.461 5.15529 16.5598 5.18351C16.6587 5.21173 16.7434 5.25406 16.7998 5.28228C16.8846 5.32461 16.941 5.36694 16.9693 5.42338C16.9975 5.46571 17.0258 5.53626 17.0258 5.60681V5.87491C17.0258 5.98779 16.9834 6.05834 16.8987 6.05834C16.8563 6.05834 16.7857 6.03012 16.6869 5.98779C16.3621 5.84669 16.0092 5.76203 15.5997 5.76203C15.2749 5.76203 15.0208 5.81847 14.8513 5.91724C14.6819 6.01601 14.5831 6.18533 14.5831 6.42521C14.5831 6.58042 14.6396 6.72152 14.7525 6.82029C14.8655 6.93318 15.0773 7.03195 15.3738 7.13072L16.1786 7.3847C16.5881 7.51169 16.8846 7.69513 17.054 7.92089C17.2234 8.14665 17.3082 8.41475 17.3082 8.71106C17.3082 8.95094 17.2517 9.1767 17.167 9.36013C17.0681 9.55768 16.9269 9.727 16.7575 9.85399C16.5881 9.99509 16.3763 10.0939 16.1362 10.1644C15.8538 10.2773 15.5856 10.3055 15.3032 10.3055Z" fill="var(--fill-0, #252F3E)"/>
<path id="Vector_5" d="M16.3763 13.057C14.5125 14.4257 11.8015 15.1594 9.48593 15.1594C6.2243 15.1594 3.28742 13.96 1.07065 11.9564C0.901211 11.8012 1.05653 11.5895 1.26832 11.7024C3.66865 13.0993 6.61965 13.9318 9.6836 13.9318C11.7451 13.9318 14.0183 13.5085 16.108 12.6196C16.4045 12.4926 16.6728 12.8312 16.3763 13.057Z" fill="var(--fill-0, #FF9900)"/>
<path id="Vector_6" d="M17.1387 12.1821C16.8987 11.8717 15.5714 12.041 14.9643 12.1116C14.7807 12.1398 14.7525 11.9705 14.9219 11.8576C15.9809 11.1098 17.7317 11.3214 17.9294 11.5754C18.1271 11.8294 17.8729 13.5791 16.8846 14.4116C16.7293 14.5386 16.5881 14.468 16.6587 14.2987C16.8846 13.7343 17.3788 12.4785 17.1387 12.1821Z" fill="var(--fill-0, #FF9900)"/>
</g>
</svg>
