<svg preserveAspectRatio="none" width="100%" height="100%" overflow="visible" style="display: block;" viewBox="0 0 32 32" fill="none" xmlns="http://www.w3.org/2000/svg">
<g id="Frame">
<path id="Vector" d="M4.5999 24.4762L5.78455 26.5223C6.0307 26.9531 6.38454 27.2916 6.79996 27.5377L11.0308 20.2147H2.56911C2.56911 20.6916 2.69219 21.1685 2.93835 21.5993L4.5999 24.4762Z" fill="var(--fill-0, #1967D2)"/>
<path id="Vector_2" d="M16.0001 11.5996L11.7693 4.27651C11.3539 4.52267 11 4.86113 10.7539 5.29189L2.93835 18.8304C2.69672 19.2518 2.56943 19.7289 2.56911 20.2147H11.0308L16.0001 11.5996Z" fill="var(--fill-0, #34A853)"/>
<path id="Vector_3" d="M25.2002 27.5377C25.6155 27.2916 25.9694 26.9531 26.2156 26.5223L26.7079 25.6762L29.0618 21.5993C29.3079 21.1685 29.431 20.6916 29.431 20.2147H20.9687L22.7694 23.7531L25.2002 27.5377Z" fill="var(--fill-0, #EA4335)"/>
<path id="Vector_4" d="M15.9994 11.5993L20.2302 4.27619C19.8148 4.03005 19.3379 3.90697 18.8456 3.90697H13.1532C12.6609 3.90697 12.1839 4.04544 11.7685 4.27619L15.9994 11.5993Z" fill="var(--fill-0, #188038)"/>
<path id="Vector_5" d="M20.9691 20.2147H11.0307L6.79984 27.5377C7.21522 27.7839 7.69196 27.907 8.18427 27.907H23.8153C24.3076 27.907 24.7846 27.7685 25.2 27.5377L20.9691 20.2147Z" fill="var(--fill-0, #4285F4)"/>
<path id="Vector_6" d="M25.1538 12.061L21.2461 5.2918C20.9999 4.86104 20.6461 4.52258 20.2307 4.27642L16 11.5995L20.9691 20.2147L29.4154 20.2149C29.4154 19.738 29.2923 19.261 29.0462 18.8303L25.1538 12.061Z" fill="var(--fill-0, #FBBC05)"/>
</g>
</svg>
