<svg preserveAspectRatio="none" width="100%" height="100%" overflow="visible" style="display: block;" viewBox="0 0 20 20" fill="none" xmlns="http://www.w3.org/2000/svg">
<g id="Frame">
<path id="Vector" d="M11.3913 17.3447L8.61406 14.6366L14.5786 8.54565L17.4541 11.3638L11.3913 17.3447Z" fill="var(--fill-0, #8AB4F8)"/>
<path id="Vector_2" d="M11.4032 5.37111L8.63588 2.54565L2.58497 8.53929C1.80497 9.31929 1.80497 10.5838 2.58497 11.3647L8.54497 17.3638L11.3632 14.7275L6.82224 9.95202L11.4032 5.37111Z" fill="var(--fill-0, #4285F4)"/>
<path id="Vector_3" d="M17.4141 8.58565L11.4141 2.58565C10.6332 1.80474 9.36679 1.80474 8.58588 2.58565C7.80497 3.36656 7.80497 4.63292 8.58588 5.41383L14.5859 11.4138C15.3668 12.1947 16.6332 12.1947 17.4141 11.4138C18.195 10.6329 18.195 9.36656 17.4141 8.58565Z" fill="var(--fill-0, #8AB4F8)"/>
<path id="Vector_4" d="M9.95406 18.0002C11.0335 18.0002 11.9086 17.1251 11.9086 16.0457C11.9086 14.9662 11.0335 14.0911 9.95406 14.0911C8.8746 14.0911 7.99952 14.9662 7.99952 16.0457C7.99952 17.1251 8.8746 18.0002 9.95406 18.0002Z" fill="var(--fill-0, #246FDB)"/>
</g>
</svg>
