<svg preserveAspectRatio="none" width="100%" height="100%" overflow="visible" style="display: block;" viewBox="0 0 20 20" fill="none" xmlns="http://www.w3.org/2000/svg">
<g id="Frame">
<path id="Vector" d="M6.42207 6.30796C3.9761 6.30806 2.14767 8.31028 2.01005 10.5408C2.0953 11.0214 2.37529 11.9704 2.81392 11.9217C3.36212 11.8608 4.74285 11.9217 5.92055 9.78967C6.78085 8.23226 8.55054 6.30787 6.42207 6.30796Z" fill="url(#paint0_radial_3945_21272)"/>
<path id="Vector_2" d="M5.85655 7.14063C5.03435 8.44236 3.92753 10.3077 3.55399 10.8947C3.10996 11.5925 1.93408 11.296 2.03149 10.296C2.02195 10.3771 2.01452 10.459 2.00941 10.5413C1.84863 13.1433 3.91162 15.3042 6.47882 15.3042C9.30816 15.3042 16.056 11.7789 15.3731 8.24667C14.6533 6.17048 12.6303 4.68125 10.3376 4.68125C8.04501 4.68125 6.57565 6.00208 5.85655 7.14063Z" fill="url(#paint1_radial_3945_21272)"/>
<path id="Vector_3" d="M5.85655 7.14063C5.03435 8.44236 3.92753 10.3077 3.55399 10.8947C3.10996 11.5925 1.93408 11.296 2.03149 10.296C2.02195 10.3771 2.01452 10.459 2.00941 10.5413C1.84863 13.1433 3.91162 15.3042 6.47882 15.3042C9.30816 15.3042 16.056 11.7789 15.3731 8.24667C14.6533 6.17048 12.6303 4.68125 10.3376 4.68125C8.04501 4.68125 6.57565 6.00208 5.85655 7.14063Z" fill="url(#paint2_radial_3945_21272)"/>
<path id="Vector_4" d="M5.85655 7.14063C5.03435 8.44236 3.92753 10.3077 3.55399 10.8947C3.10996 11.5925 1.93408 11.296 2.03149 10.296C2.02195 10.3771 2.01452 10.459 2.00941 10.5413C1.84863 13.1433 3.91162 15.3042 6.47882 15.3042C9.30816 15.3042 16.056 11.7789 15.3731 8.24667C14.6533 6.17048 12.6303 4.68125 10.3376 4.68125C8.04501 4.68125 6.57565 6.00208 5.85655 7.14063Z" fill="url(#paint3_radial_3945_21272)"/>
<path id="Vector_5" d="M5.85655 7.14063C5.03435 8.44236 3.92753 10.3077 3.55399 10.8947C3.10996 11.5925 1.93408 11.296 2.03149 10.296C2.02195 10.3771 2.01452 10.459 2.00941 10.5413C1.84863 13.1433 3.91162 15.3042 6.47882 15.3042C9.30816 15.3042 16.056 11.7789 15.3731 8.24667C14.6533 6.17048 12.6303 4.68125 10.3376 4.68125C8.04501 4.68125 6.57565 6.00208 5.85655 7.14063Z" fill="url(#paint4_radial_3945_21272)"/>
<path id="Vector_6" d="M5.85655 7.14063C5.03435 8.44236 3.92753 10.3077 3.55399 10.8947C3.10996 11.5925 1.93408 11.296 2.03149 10.296C2.02195 10.3771 2.01452 10.459 2.00941 10.5413C1.84863 13.1433 3.91162 15.3042 6.47882 15.3042C9.30816 15.3042 16.056 11.7789 15.3731 8.24667C14.6533 6.17048 12.6303 4.68125 10.3376 4.68125C8.04501 4.68125 6.57565 6.00208 5.85655 7.14063Z" fill="url(#paint5_radial_3945_21272)"/>
<path id="Vector_7" d="M6.43741 15.3052C6.43741 15.3052 13.1932 15.3185 14.3391 15.3185C16.4187 15.3185 17.9999 13.6208 17.9999 11.6396C17.9999 9.6584 16.3869 7.97098 14.3391 7.97098C12.2913 7.97098 11.112 9.50293 10.2262 11.1753C9.18834 13.1349 7.86423 15.2818 6.43741 15.3052Z" fill="url(#paint6_linear_3945_21272)"/>
<path id="Vector_8" d="M6.43741 15.3052C6.43741 15.3052 13.1932 15.3185 14.3391 15.3185C16.4187 15.3185 17.9999 13.6208 17.9999 11.6396C17.9999 9.6584 16.3869 7.97098 14.3391 7.97098C12.2913 7.97098 11.112 9.50293 10.2262 11.1753C9.18834 13.1349 7.86423 15.2818 6.43741 15.3052Z" fill="url(#paint7_radial_3945_21272)"/>
<path id="Vector_9" d="M6.43741 15.3052C6.43741 15.3052 13.1932 15.3185 14.3391 15.3185C16.4187 15.3185 17.9999 13.6208 17.9999 11.6396C17.9999 9.6584 16.3869 7.97098 14.3391 7.97098C12.2913 7.97098 11.112 9.50293 10.2262 11.1753C9.18834 13.1349 7.86423 15.2818 6.43741 15.3052Z" fill="url(#paint8_radial_3945_21272)"/>
</g>
<defs>
<radialGradient id="paint0_radial_3945_21272" cx="0" cy="0" r="1" gradientUnits="userSpaceOnUse" gradientTransform="translate(2.31341 6.89254) rotate(50.1526) scale(5.04269 8.36424)">
<stop stop-color="#4894FE"/>
<stop offset="0.695072" stop-color="#0934B3"/>
</radialGradient>
<radialGradient id="paint1_radial_3945_21272" cx="0" cy="0" r="1" gradientUnits="userSpaceOnUse" gradientTransform="translate(15.8508 1.08677) rotate(130.923) scale(21.6841 16.0681)">
<stop offset="0.165327" stop-color="#23C0FE"/>
<stop offset="0.534" stop-color="#1C91FF"/>
</radialGradient>
<radialGradient id="paint2_radial_3945_21272" cx="0" cy="0" r="1" gradientUnits="userSpaceOnUse" gradientTransform="translate(5.58558 7.17973) rotate(-139.986) scale(4.40857 10.0922)">
<stop stop-color="white" stop-opacity="0.4"/>
<stop offset="0.660528" stop-color="#ADC0FF" stop-opacity="0"/>
</radialGradient>
<radialGradient id="paint3_radial_3945_21272" cx="0" cy="0" r="1" gradientUnits="userSpaceOnUse" gradientTransform="translate(10.3794 12.3903) rotate(-139.764) scale(4.9691 7.54665)">
<stop stop-color="#033ACC"/>
<stop offset="1" stop-color="#368EFF" stop-opacity="0"/>
</radialGradient>
<radialGradient id="paint4_radial_3945_21272" cx="0" cy="0" r="1" gradientUnits="userSpaceOnUse" gradientTransform="translate(5.29378 4.34513) rotate(66.5713) scale(10.9033 11.7708)">
<stop offset="0.592618" stop-color="#3464E3" stop-opacity="0"/>
<stop offset="1" stop-color="#033ACC" stop-opacity="0.6"/>
</radialGradient>
<radialGradient id="paint5_radial_3945_21272" cx="0" cy="0" r="1" gradientUnits="userSpaceOnUse" gradientTransform="translate(15.676 2.21918) rotate(135) scale(16.0385 25.1269)">
<stop stop-color="#4BFDE8" stop-opacity="0.898039"/>
<stop offset="0.543937" stop-color="#4BFDE8" stop-opacity="0"/>
</radialGradient>
<linearGradient id="paint6_linear_3945_21272" x1="12.2222" y1="15.3111" x2="12.2222" y2="8.05808" gradientUnits="userSpaceOnUse">
<stop stop-color="#0086FF"/>
<stop offset="0.49" stop-color="#00BBFF"/>
</linearGradient>
<radialGradient id="paint7_radial_3945_21272" cx="0" cy="0" r="1" gradientUnits="userSpaceOnUse" gradientTransform="translate(8.43211 8.83505) rotate(21.6324) scale(7.26766 13.7625)">
<stop stop-color="white" stop-opacity="0.4"/>
<stop offset="0.785262" stop-color="white" stop-opacity="0"/>
</radialGradient>
<radialGradient id="paint8_radial_3945_21272" cx="0" cy="0" r="1" gradientUnits="userSpaceOnUse" gradientTransform="translate(17.7738 7.40144) rotate(139.243) scale(9.96376 9.99754)">
<stop stop-color="#4BFDE8" stop-opacity="0.898039"/>
<stop offset="0.584724" stop-color="#4BFDE8" stop-opacity="0"/>
</radialGradient>
</defs>
</svg>
