<svg preserveAspectRatio="none" width="100%" height="100%" overflow="visible" style="display: block;" viewBox="0 0 30 30" fill="none" xmlns="http://www.w3.org/2000/svg">
<g id="Frame">
<g id="Vector">
</g>
<path id="Vector_2" d="M15.5 14.9999C15.5 12.8133 17.2726 11.0406 19.4593 11.0406C21.6459 11.0406 23.4186 12.8133 23.4186 14.9999C23.4186 17.1866 21.6459 18.9592 19.4593 18.9592C17.2726 18.9592 15.5 17.1866 15.5 14.9999Z" fill="var(--fill-0, #1ABCFE)"/>
<path id="Vector_3" d="M7.58146 22.9186C7.58146 20.732 9.35409 18.9593 11.5407 18.9593H15.5V22.9186C15.5 25.1052 13.7274 26.8779 11.5407 26.8779C9.35409 26.8779 7.58146 25.1052 7.58146 22.9186Z" fill="var(--fill-0, #0ACF83)"/>
<path id="Vector_4" d="M15.5 3.1221V11.0406H19.4593C21.6459 11.0406 23.4186 9.26802 23.4186 7.08137C23.4186 4.89473 21.6459 3.1221 19.4593 3.1221H15.5Z" fill="var(--fill-0, #FF7262)"/>
<path id="Vector_5" d="M7.58146 7.08138C7.58146 9.26802 9.35409 11.0406 11.5407 11.0406H15.5V3.1221H11.5407C9.35409 3.1221 7.58146 4.89473 7.58146 7.08138Z" fill="var(--fill-0, #F24E1E)"/>
<path id="Vector_6" d="M7.58146 14.9999C7.58146 17.1866 9.35409 18.9592 11.5407 18.9592H15.5V11.0406H11.5407C9.35409 11.0406 7.58146 12.8133 7.58146 14.9999Z" fill="var(--fill-0, #A259FF)"/>
</g>
</svg>
