<svg preserveAspectRatio="none" width="100%" height="100%" overflow="visible" style="display: block;" viewBox="0 0 20 20" fill="none" xmlns="http://www.w3.org/2000/svg">
<g id="Frame">
<path id="path841" d="M3.97598 14.6075C3.29195 14.6075 2.60792 14.2278 2.22791 13.6202C1.84789 13.0126 1.9239 12.2531 2.30391 11.6455L5.87606 6.02512C6.25607 5.41752 6.9401 5.03777 7.62413 5.03777C8.30816 5.03777 8.99219 5.49347 9.3722 6.10107C9.67622 6.70868 9.67622 7.46818 9.2962 8.07578L5.72405 13.6961C5.34404 14.2278 4.66001 14.6075 3.97598 14.6075Z" fill="var(--fill-0, #F62B54)"/>
<path id="path843" d="M10.1322 14.6075C9.3722 14.6075 8.76418 14.2278 8.38416 13.6202C8.08015 12.9366 8.08015 12.1771 8.46016 11.5695L12.0323 5.94917C12.4123 5.34157 13.0964 4.96182 13.7804 4.96182C14.5404 4.96182 15.1484 5.41752 15.5285 6.02512C15.8325 6.63273 15.8325 7.39223 15.3764 7.99983L11.8043 13.6202C11.4243 14.2278 10.8163 14.6075 10.1322 14.6075Z" fill="var(--fill-0, #FFCC00)"/>
<path id="ellipse845" d="M16.1365 14.6835C17.1439 14.6835 17.9606 13.8674 17.9606 12.8607C17.9606 11.854 17.1439 11.0379 16.1365 11.0379C15.1291 11.0379 14.3124 11.854 14.3124 12.8607C14.3124 13.8674 15.1291 14.6835 16.1365 14.6835Z" fill="var(--fill-0, #00CA72)"/>
</g>
</svg>
