<svg preserveAspectRatio="none" width="100%" height="100%" overflow="visible" style="display: block;" viewBox="0 0 20 20" fill="none" xmlns="http://www.w3.org/2000/svg">
<g id="Frame">
<path id="Vector" d="M18 9.12258H13.329L17.3806 6.77419L16.5032 5.22581L12.4516 7.57419L14.8 3.52258L13.2516 2.61935L10.9032 6.67097V2H9.12258V6.67097L6.77419 2.61935L5.22581 3.49677L7.57419 7.54839L3.52258 5.22581L2.64516 6.77419L6.69677 9.12258H2V10.9032H6.67097L2.61935 13.2258L3.49677 14.7742L7.54839 12.4258L5.2 16.4774L6.74839 17.3548L9.09677 13.3032V18H10.8774V13.329L13.2258 17.3806L14.7742 16.5032L12.4258 12.4516L16.4774 14.8L17.3548 13.2516L13.3032 10.9032H18V9.12258ZM10 12.4258C8.65806 12.4258 7.57419 11.3419 7.57419 10C7.57419 8.65806 8.65806 7.57419 10 7.57419C11.3419 7.57419 12.4258 8.65806 12.4258 10C12.4258 11.3419 11.3419 12.4258 10 12.4258Z" fill="var(--fill-0, #625DF5)"/>
</g>
</svg>
