<svg preserveAspectRatio="none" width="100%" height="100%" overflow="visible" style="display: block;" viewBox="0 0 20 20" fill="none" xmlns="http://www.w3.org/2000/svg">
<g id="Frame">
<path id="Vector" d="M13.6842 6.31577L10.3685 5.94736L6.31584 6.31577L5.94736 10L6.31577 13.6842L10 14.1448L13.6842 13.6842L14.0527 9.90796L13.6842 6.31577Z" fill="var(--fill-0, white)"/>
<path id="Vector_2" d="M7.82727 12.0318C7.55189 11.8458 7.36121 11.5741 7.25712 11.2149L7.89636 10.9515C7.95439 11.1725 8.05568 11.3438 8.2003 11.4654C8.34401 11.587 8.51901 11.6468 8.72348 11.6468C8.93257 11.6468 9.11219 11.5833 9.26227 11.4562C9.41235 11.329 9.48795 11.1669 9.48795 10.9708C9.48795 10.77 9.40871 10.606 9.2503 10.479C9.09189 10.3519 8.89295 10.2883 8.6553 10.2883H8.28598V9.65556H8.6175C8.82197 9.65556 8.99424 9.60033 9.13424 9.4898C9.27424 9.37927 9.34424 9.22821 9.34424 9.03571C9.34424 8.86442 9.28159 8.72806 9.15636 8.62586C9.03113 8.52366 8.87265 8.47207 8.68015 8.47207C8.49227 8.47207 8.34303 8.52184 8.2325 8.62222C8.12197 8.7226 8.04182 8.84601 7.99121 8.99154L7.35848 8.72813C7.44227 8.49048 7.59613 8.28048 7.82174 8.09904C8.04742 7.9176 8.33568 7.82639 8.68568 7.82639C8.94447 7.82639 9.1775 7.87616 9.38386 7.97654C9.59015 8.07692 9.75227 8.21601 9.86924 8.39283C9.98621 8.57056 10.0442 8.76957 10.0442 8.99056C10.0442 9.21624 9.98992 9.40685 9.88121 9.56344C9.7725 9.72003 9.63894 9.83973 9.48053 9.92359V9.96132C9.68962 10.0488 9.86 10.1824 9.99447 10.362C10.128 10.5416 10.1952 10.7562 10.1952 11.0068C10.1952 11.2573 10.1317 11.4811 10.0045 11.6773C9.87743 11.8735 9.70152 12.0282 9.47864 12.1406C9.25485 12.2529 9.00341 12.31 8.72432 12.31C8.40106 12.3109 8.10265 12.2179 7.82727 12.0318Z" fill="var(--fill-0, #1A73E8)"/>
<path id="Vector_3" d="M11.75 8.85975L11.0518 9.36725L10.7009 8.8349L11.96 7.92672H12.4427V12.2105H11.75V8.85975Z" fill="var(--fill-0, #1A73E8)"/>
<path id="Vector_4" d="M13.6842 17L17 13.6842L15.3421 12.9474L13.6842 13.6842L12.9474 15.3421L13.6842 17Z" fill="var(--fill-0, #EA4335)"/>
<path id="Vector_5" d="M5.57895 15.3421L6.31577 17H13.6842V13.6842H6.31577L5.57895 15.3421Z" fill="var(--fill-0, #34A853)"/>
<path id="Vector_6" d="M4.10523 3C3.49462 3 3 3.49462 3 4.10523V13.6842L4.65788 14.421L6.31576 13.6842V6.31576H13.6842L14.421 4.65788L13.6842 3H4.10523Z" fill="var(--fill-0, #4285F4)"/>
<path id="Vector_7" d="M3 13.6842V15.8947C3 16.5054 3.49462 17 4.10523 17H6.31576V13.6842H3Z" fill="var(--fill-0, #188038)"/>
<path id="Vector_8" d="M13.6842 6.31575V13.6842H17V6.31575L15.3421 5.57893L13.6842 6.31575Z" fill="var(--fill-0, #FBBC04)"/>
<path id="Vector_9" d="M17 6.31576V4.10523C17 3.49455 16.5054 3 15.8948 3H13.6842V6.31576H17Z" fill="var(--fill-0, #1967D2)"/>
</g>
</svg>
