<svg preserveAspectRatio="none" width="100%" height="100%" overflow="visible" style="display: block;" viewBox="0 0 20 20" fill="none" xmlns="http://www.w3.org/2000/svg">
<g id="Frame">
<path id="Vector" d="M1.00408 4.03397H19.5243V16.9959H1.00408V4.03397Z" fill="var(--fill-0, white)"/>
<path id="Vector_2" fill-rule="evenodd" clip-rule="evenodd" d="M8.70866 5.44812C9.30605 4.82575 10.1378 4.43956 11.0577 4.43956C12.2805 4.43956 13.3474 5.12142 13.9154 6.13378C14.4236 5.9067 14.9741 5.78965 15.5307 5.79034C17.7362 5.79034 19.5243 7.59393 19.5243 9.81891C19.5243 12.0439 17.7362 13.8475 15.5307 13.8475C15.2614 13.8475 14.9984 13.8205 14.744 13.7691C14.2438 14.6614 13.2902 15.2643 12.1961 15.2643C11.7535 15.265 11.3166 15.1644 10.9189 14.9704C10.4118 16.1635 9.22995 16.9999 7.85297 16.9999C6.41869 16.9999 5.19628 16.0925 4.72739 14.8199C4.51841 14.864 4.3054 14.8862 4.09182 14.886C2.38419 14.886 1 13.4874 1 11.762C1 10.6056 1.62182 9.59607 2.54605 9.05599C2.35023 8.60509 2.24947 8.11866 2.25004 7.62708C2.25004 5.64271 3.86089 4.03398 5.84791 4.03398C7.01451 4.03398 8.05131 4.58855 8.70866 5.44812Z" fill="var(--fill-0, #00A1E0)"/>
<path id="Vector_3" fill-rule="evenodd" clip-rule="evenodd" d="M3.68303 10.7578C3.67139 10.7882 3.68719 10.7945 3.69093 10.7999C3.72571 10.8251 3.76103 10.8433 3.7967 10.8638C3.98557 10.9638 4.1641 10.9931 4.35059 10.9931C4.73059 10.9931 4.96663 10.7911 4.96663 10.4658V10.4594C4.96663 10.1585 4.70016 10.0492 4.45044 9.97035L4.41784 9.9598C4.22951 9.89868 4.06698 9.84579 4.06698 9.72171V9.71538C4.06698 9.60914 4.16199 9.53107 4.30921 9.53107C4.4729 9.53107 4.66688 9.58545 4.79198 9.65453C4.79198 9.65453 4.82887 9.67836 4.84228 9.64276C4.84956 9.6235 4.91279 9.4532 4.91953 9.43476C4.92675 9.41482 4.91409 9.39977 4.90109 9.39202C4.75822 9.30496 4.56091 9.24575 4.35665 9.24575L4.31874 9.24588C3.97094 9.24588 3.72809 9.4562 3.72809 9.75717V9.76364C3.72809 10.0808 3.99599 10.1839 4.24693 10.2556L4.28723 10.2681C4.46998 10.3242 4.62781 10.3727 4.62781 10.5012V10.5076C4.62781 10.6254 4.52524 10.7128 4.36005 10.7128C4.29601 10.7128 4.09155 10.7118 3.87061 10.572C3.84387 10.5564 3.82862 10.5452 3.808 10.5326C3.79711 10.526 3.76988 10.5141 3.75804 10.5498L3.68303 10.7578ZM9.24581 10.7578C9.23417 10.7882 9.24996 10.7945 9.25384 10.7999C9.28848 10.8251 9.32388 10.8433 9.35947 10.8638C9.54842 10.9638 9.72694 10.9931 9.91337 10.9931C10.2934 10.9931 10.5295 10.7911 10.5295 10.4658V10.4594C10.5295 10.1585 10.2631 10.0492 10.0133 9.97035L9.98068 9.9598C9.79235 9.89868 9.62975 9.84579 9.62975 9.72171V9.71538C9.62975 9.60914 9.72483 9.53107 9.87212 9.53107C10.0357 9.53107 10.2297 9.58545 10.3548 9.65453C10.3548 9.65453 10.3916 9.67836 10.4051 9.64276C10.4123 9.6235 10.4756 9.4532 10.4823 9.43476C10.4896 9.41482 10.4769 9.39977 10.4639 9.39202C10.321 9.30496 10.1238 9.24575 9.91949 9.24575L9.88152 9.24588C9.53378 9.24588 9.29093 9.4562 9.29093 9.75717V9.76364C9.29093 10.0808 9.55876 10.1839 9.80978 10.2556L9.85 10.2681C10.0328 10.3242 10.1907 10.3727 10.1907 10.5012V10.5076C10.1907 10.6254 10.088 10.7128 9.92297 10.7128C9.85878 10.7128 9.65432 10.7118 9.43346 10.572C9.40671 10.5564 9.39105 10.5457 9.37077 10.5326C9.3639 10.5283 9.33184 10.5157 9.32088 10.5498L9.24581 10.7578ZM13.0434 10.1205C13.0434 10.3043 13.0091 10.4494 12.9417 10.5517C12.8747 10.6531 12.7736 10.7024 12.6327 10.7024C12.4917 10.7024 12.3912 10.6532 12.3253 10.5518C12.2588 10.4494 12.2251 10.3043 12.2251 10.1205C12.2251 9.93686 12.2588 9.79222 12.3253 9.69095C12.3912 9.59055 12.4917 9.54182 12.6327 9.54182C12.7736 9.54182 12.8747 9.59062 12.9417 9.69102C13.0092 9.79222 13.0434 9.93686 13.0434 10.1205ZM13.3607 9.7797C13.3294 9.67427 13.2809 9.5815 13.2163 9.50412C13.1516 9.42652 13.0697 9.36411 12.9727 9.31892C12.8757 9.27365 12.7614 9.25072 12.6327 9.25072C12.504 9.25072 12.3896 9.27365 12.2926 9.31892C12.1957 9.36411 12.1137 9.42652 12.049 9.50425C11.9845 9.58177 11.9358 9.67441 11.9047 9.7797C11.8737 9.88431 11.858 9.999 11.858 10.1205C11.858 10.2421 11.8737 10.3568 11.9047 10.4613C11.9358 10.5665 11.9843 10.6592 12.049 10.7369C12.1138 10.8146 12.1959 10.8765 12.2927 10.9206C12.3898 10.9647 12.5041 10.9871 12.6327 10.9871C12.7613 10.9871 12.8755 10.9647 12.9725 10.9206C13.0694 10.8765 13.1515 10.8146 13.2163 10.7369C13.2809 10.6595 13.3294 10.5666 13.3607 10.4613C13.3916 10.3566 13.4073 10.2419 13.4073 10.1205C13.4073 9.99914 13.3916 9.88438 13.3607 9.7797ZM15.9652 10.6532C15.9548 10.6224 15.9247 10.634 15.9247 10.634C15.8787 10.6517 15.8297 10.668 15.7773 10.6762C15.7244 10.6845 15.666 10.6886 15.6034 10.6886C15.4501 10.6886 15.3279 10.6429 15.2407 10.5527C15.1531 10.4624 15.1039 10.3164 15.1045 10.1191C15.1049 9.93965 15.1484 9.80448 15.2262 9.70143C15.3034 9.59906 15.4213 9.54652 15.578 9.54652C15.7089 9.54652 15.8088 9.5617 15.9134 9.5945C15.9134 9.5945 15.9382 9.60532 15.9501 9.57259C15.978 9.49547 15.9985 9.44061 16.0282 9.35587C16.0366 9.33171 16.0159 9.3215 16.0084 9.31858C15.9673 9.30251 15.8702 9.27617 15.7969 9.26508C15.7283 9.2546 15.6482 9.24915 15.5588 9.24915C15.4256 9.24915 15.3069 9.27195 15.2053 9.31715C15.104 9.36227 15.018 9.42462 14.9499 9.50214C14.8818 9.5798 14.8299 9.67257 14.7956 9.7778C14.7612 9.88248 14.7439 9.99737 14.7439 10.1192C14.7439 10.3823 14.8148 10.5948 14.9549 10.7505C15.0953 10.9068 15.3061 10.9862 15.5811 10.9862C15.7436 10.9862 15.9102 10.9533 16.0303 10.9061C16.0303 10.9061 16.0532 10.895 16.0432 10.8684L15.9652 10.6532ZM16.5202 9.94428C16.5354 9.84212 16.5634 9.75724 16.607 9.69095C16.6728 9.59055 16.773 9.53522 16.914 9.53522C17.055 9.53522 17.1479 9.59062 17.2149 9.69102C17.2591 9.75738 17.2784 9.84579 17.286 9.94441L16.5202 9.94428ZM17.5881 9.71987C17.561 9.61819 17.4945 9.51548 17.4507 9.46852C17.3816 9.39406 17.314 9.34192 17.2468 9.31313C17.1496 9.27181 17.045 9.25058 16.9394 9.25072C16.8053 9.25072 16.6836 9.27338 16.5848 9.31966C16.4859 9.36608 16.4028 9.42952 16.3377 9.50834C16.2724 9.58708 16.2235 9.68081 16.1922 9.78712C16.1609 9.89282 16.1451 10.0081 16.1451 10.1297C16.1451 10.2535 16.1615 10.3689 16.1938 10.4726C16.2264 10.5772 16.2787 10.669 16.3494 10.7454C16.42 10.8222 16.5108 10.8823 16.6194 10.9242C16.7274 10.9661 16.8586 10.9878 17.0091 10.9873C17.3194 10.9863 17.4825 10.9172 17.5499 10.8799C17.5618 10.8733 17.573 10.8618 17.559 10.8286L17.4888 10.6321C17.478 10.6027 17.4483 10.6133 17.4483 10.6133C17.3714 10.6421 17.2624 10.6933 17.0076 10.6928C16.8411 10.6925 16.7177 10.6433 16.6402 10.5664C16.5609 10.4878 16.522 10.3724 16.5154 10.2093L17.5889 10.2101C17.5889 10.2101 17.6172 10.2099 17.6201 10.1822C17.6213 10.1708 17.6569 9.9617 17.5881 9.71987ZM7.92124 9.94428C7.93642 9.84212 7.96446 9.75724 8.00802 9.69095C8.0739 9.59055 8.17395 9.53522 8.31505 9.53522C8.45608 9.53522 8.54898 9.59062 8.61596 9.69102C8.66013 9.75738 8.67946 9.84579 8.68701 9.94441L7.92124 9.94428ZM8.98908 9.71987C8.96212 9.61819 8.89549 9.51548 8.85179 9.46852C8.78271 9.39406 8.71512 9.34192 8.64788 9.31313C8.55065 9.27183 8.44607 9.2506 8.34044 9.25072C8.20642 9.25072 8.08466 9.27338 7.9859 9.31966C7.887 9.36608 7.8039 9.42952 7.73862 9.50834C7.67349 9.58708 7.62455 9.68081 7.59318 9.78712C7.56193 9.89282 7.54621 10.0081 7.54621 10.1297C7.54621 10.2535 7.56248 10.3689 7.59494 10.4726C7.62748 10.5772 7.67989 10.669 7.7504 10.7454C7.82105 10.8222 7.91185 10.8823 8.02041 10.9242C8.12849 10.9661 8.25958 10.9878 8.4102 10.9873C8.72036 10.9863 8.88358 10.9172 8.95096 10.8799C8.9628 10.8733 8.9741 10.8618 8.96001 10.8286L8.88984 10.6321C8.87902 10.6027 8.84934 10.6133 8.84934 10.6133C8.77243 10.6421 8.66346 10.6933 8.40857 10.6928C8.24215 10.6925 8.11876 10.6433 8.04123 10.5664C7.96201 10.4878 7.92301 10.3724 7.91641 10.2093L8.98996 10.2101C8.98996 10.2101 9.01827 10.2099 9.0212 10.1822C9.02236 10.1708 9.05802 9.9617 8.98908 9.71987ZM5.6005 10.6474C5.55837 10.6137 5.55252 10.6055 5.53856 10.5837C5.51726 10.5508 5.50637 10.504 5.50637 10.444C5.50637 10.3497 5.53768 10.2818 5.6022 10.2362C5.60152 10.2363 5.69477 10.1557 5.91359 10.1586C6.01121 10.1603 6.1086 10.1686 6.2051 10.1835V10.6715H6.20524C6.20524 10.6715 6.06877 10.7008 5.91515 10.7101C5.69681 10.7232 5.59982 10.6472 5.6005 10.6474ZM6.02773 9.89282C5.98417 9.88962 5.92775 9.88806 5.86009 9.88806C5.76814 9.88806 5.67918 9.89949 5.59567 9.92195C5.51181 9.94455 5.4364 9.97953 5.37154 10.0259C5.30671 10.0722 5.25341 10.1328 5.21574 10.203C5.17769 10.2738 5.1583 10.3571 5.1583 10.4504C5.1583 10.5456 5.17483 10.6281 5.2075 10.6955C5.23947 10.7623 5.28759 10.8201 5.34751 10.8636C5.4072 10.907 5.48084 10.9389 5.56626 10.9583C5.65059 10.9776 5.74615 10.9873 5.85056 10.9873C5.96082 10.9873 6.07047 10.9781 6.17672 10.9602C6.26722 10.9446 6.35738 10.9271 6.44713 10.9076C6.48293 10.8994 6.52241 10.8886 6.52241 10.8886C6.54896 10.8818 6.54691 10.8535 6.54691 10.8535L6.5463 9.87159C6.5463 9.65624 6.48886 9.4967 6.37567 9.3976C6.26302 9.29897 6.09715 9.24915 5.88255 9.24915C5.80197 9.24915 5.67251 9.26004 5.59478 9.27563C5.59478 9.27563 5.36037 9.32109 5.26386 9.39671C5.26386 9.39671 5.24263 9.40978 5.2542 9.43939L5.33022 9.64358C5.33968 9.67005 5.36548 9.661 5.36548 9.661C5.36548 9.661 5.37358 9.6578 5.38311 9.65215C5.58961 9.53985 5.8509 9.54318 5.8509 9.54318C5.96688 9.54318 6.05625 9.56666 6.11628 9.61261C6.17488 9.6576 6.20463 9.72532 6.20463 9.86846V9.91385C6.11254 9.90051 6.02773 9.89282 6.02773 9.89282ZM14.6877 9.33968C14.6893 9.33609 14.6901 9.33222 14.6901 9.32831C14.6901 9.3244 14.6893 9.32053 14.6878 9.31692C14.6863 9.31332 14.6841 9.31005 14.6813 9.30732C14.6785 9.30458 14.6752 9.30244 14.6716 9.30102C14.6533 9.29407 14.562 9.27481 14.4916 9.27046C14.3566 9.26202 14.2818 9.28475 14.2147 9.31497C14.1482 9.34498 14.0745 9.39351 14.0333 9.44885L14.0332 9.3179C14.0332 9.29993 14.0205 9.28543 14.0024 9.28543H13.7271C13.7093 9.28543 13.6964 9.29993 13.6964 9.3179V10.9195C13.6964 10.9282 13.6998 10.9365 13.7059 10.9426C13.712 10.9487 13.7203 10.9521 13.729 10.9522H14.0111C14.0197 10.9521 14.028 10.9487 14.0341 10.9426C14.0402 10.9365 14.0436 10.9282 14.0436 10.9195V10.1195C14.0436 10.012 14.0555 9.90494 14.0791 9.83762C14.1024 9.77099 14.134 9.7179 14.1732 9.67972C14.2104 9.64286 14.2558 9.6155 14.3058 9.59995C14.3526 9.58651 14.4011 9.57968 14.4498 9.57966C14.506 9.57966 14.5678 9.59409 14.5678 9.59409C14.5885 9.59641 14.6 9.58375 14.607 9.5651C14.6254 9.51603 14.6777 9.36894 14.6877 9.33968Z" fill="var(--fill-0, #FFFFFE)"/>
<path id="Vector_4" fill-rule="evenodd" clip-rule="evenodd" d="M12.0399 8.59752C12.005 8.587 11.9696 8.57859 11.9337 8.57234C11.8855 8.56429 11.8367 8.56051 11.7878 8.56104C11.5936 8.56104 11.4406 8.6159 11.3331 8.72426C11.2264 8.8318 11.1537 8.99562 11.1173 9.21118L11.1042 9.28394H10.8605C10.8605 9.28394 10.8307 9.28271 10.8245 9.31518L10.7844 9.53842C10.7816 9.5598 10.7908 9.57314 10.8194 9.573H11.0567L10.816 10.9168C10.7971 11.025 10.7755 11.114 10.7516 11.1815C10.7281 11.248 10.7051 11.2979 10.6768 11.3341C10.6493 11.3692 10.6233 11.395 10.5785 11.41C10.5415 11.4225 10.4988 11.4282 10.4522 11.4282C10.4262 11.4282 10.3916 11.4238 10.3661 11.4187C10.3405 11.4137 10.3273 11.408 10.3081 11.3999C10.3081 11.3999 10.2803 11.3893 10.2693 11.4172C10.2604 11.44 10.1972 11.6139 10.1897 11.6354C10.1821 11.6567 10.1928 11.6734 10.2062 11.6783C10.2378 11.6895 10.2613 11.6968 10.3043 11.7069C10.3641 11.721 10.4144 11.7219 10.4616 11.7219C10.5604 11.7219 10.6505 11.708 10.7252 11.681C10.8003 11.6539 10.8657 11.6066 10.9236 11.5425C10.9861 11.4734 11.0254 11.4011 11.0631 11.3024C11.1003 11.2046 11.132 11.0832 11.1574 10.9417L11.3993 9.573H11.753C11.753 9.573 11.7828 9.57409 11.789 9.54176L11.829 9.31851C11.8318 9.29714 11.8227 9.2838 11.7939 9.28394H11.4507C11.4524 9.27618 11.468 9.15543 11.5074 9.04177C11.5242 8.99324 11.5559 8.9541 11.5827 8.92722C11.6077 8.90161 11.6386 8.88242 11.6726 8.87127C11.7099 8.85974 11.7488 8.85413 11.7878 8.85466C11.8201 8.85466 11.8519 8.85854 11.876 8.86358C11.9093 8.87066 11.9222 8.8744 11.931 8.87699C11.9659 8.88767 11.9706 8.87733 11.9775 8.86038L12.0596 8.63496C12.068 8.61073 12.0475 8.60052 12.0399 8.59752ZM7.2432 10.9196C7.2432 10.9376 7.2304 10.9522 7.21243 10.9522H6.92773C6.90969 10.9522 6.89689 10.9376 6.89689 10.9196V8.62808C6.89689 8.61018 6.90969 8.59569 6.92773 8.59569H7.21243C7.2304 8.59569 7.2432 8.61018 7.2432 8.62808V10.9196Z" fill="var(--fill-0, #FFFFFE)"/>
</g>
</svg>
