<svg preserveAspectRatio="none" width="100%" height="100%" overflow="visible" style="display: block;" viewBox="0 0 30 30" fill="none" xmlns="http://www.w3.org/2000/svg">
<g id="Frame">
<path id="Vector" fill-rule="evenodd" clip-rule="evenodd" d="M15.2135 3.00001C8.45976 3.00001 3.00001 8.50001 3.00001 15.3043C3.00001 20.7433 6.49826 25.3473 11.3513 26.9768C11.958 27.0993 12.1803 26.712 12.1803 26.3863C12.1803 26.101 12.1603 25.1233 12.1603 24.1045C8.76276 24.838 8.05526 22.6378 8.05526 22.6378C7.50926 21.2118 6.70026 20.8453 6.70026 20.8453C5.58826 20.0915 6.78126 20.0915 6.78126 20.0915C8.01476 20.173 8.66201 21.3545 8.66201 21.3545C9.75376 23.2285 11.513 22.699 12.2208 22.373C12.3218 21.5785 12.6455 21.0285 12.9893 20.723C10.2795 20.4378 7.42851 19.3785 7.42851 14.6523C7.42851 13.3078 7.91351 12.2078 8.68201 11.3523C8.56076 11.0468 8.13601 9.78351 8.80351 8.09276C8.80351 8.09276 9.83476 7.76676 12.16 9.35576C13.1555 9.08642 14.1822 8.94941 15.2135 8.94826C16.2448 8.94826 17.296 9.09101 18.2668 9.35576C20.5923 7.76676 21.6235 8.09276 21.6235 8.09276C22.291 9.78351 21.866 11.0468 21.7448 11.3523C22.5335 12.2078 22.9985 13.3078 22.9985 14.6523C22.9985 19.3785 20.1475 20.4173 17.4175 20.723C17.8625 21.11 18.2465 21.8433 18.2465 23.0045C18.2465 24.6545 18.2265 25.9788 18.2265 26.386C18.2265 26.712 18.449 27.0993 19.0555 26.977C23.9085 25.347 27.4068 20.7433 27.4068 15.3043C27.4268 8.50001 21.947 3.00001 15.2135 3.00001Z" fill="var(--fill-0, #24292F)"/>
</g>
</svg>
