<svg preserveAspectRatio="none" width="100%" height="100%" overflow="visible" style="display: block;" viewBox="0 0 16 12.1955" fill="none" xmlns="http://www.w3.org/2000/svg">
<g id="Group">
<path id="Vector" d="M13.5447 1.01094C12.5249 0.543021 11.4313 0.198277 10.2879 0.000828273C10.2671 -0.00298243 10.2463 0.00654072 10.2356 0.0255875C10.0949 0.275731 9.93915 0.602063 9.83006 0.858559C8.60027 0.674446 7.37679 0.674446 6.17221 0.858559C6.0631 0.596362 5.90166 0.275731 5.76038 0.0255875C5.74966 0.00717622 5.72886 -0.00234694 5.70803 0.000828273C4.56527 0.197646 3.47171 0.54239 2.45129 1.01094C2.44246 1.01475 2.43488 1.02111 2.42986 1.02935C0.355594 4.12826 -0.212633 7.151 0.0661201 10.1363C0.0673814 10.1509 0.0755799 10.1648 0.086932 10.1737C1.45547 11.1787 2.78114 11.7889 4.08219 12.1933C4.10301 12.1997 4.12507 12.192 4.13832 12.1749C4.44608 11.7546 4.72043 11.3114 4.95565 10.8454C4.96953 10.8181 4.95628 10.7857 4.92791 10.775C4.49275 10.6099 4.0784 10.4086 3.67982 10.1801C3.64829 10.1617 3.64577 10.1166 3.67477 10.095C3.75865 10.0321 3.84255 9.96673 3.92264 9.9007C3.93713 9.88864 3.95732 9.8861 3.97435 9.89371C6.59286 11.0892 9.4277 11.0892 12.0153 9.89371C12.0323 9.88547 12.0525 9.88801 12.0677 9.90007C12.1478 9.9661 12.2316 10.0321 12.3161 10.095C12.3451 10.1166 12.3433 10.1617 12.3117 10.1801C11.9131 10.4131 11.4988 10.6099 11.063 10.7743C11.0346 10.7851 11.022 10.8181 11.0359 10.8454C11.2762 11.3108 11.5505 11.754 11.8526 12.1743C11.8652 12.192 11.8879 12.1997 11.9087 12.1933C13.2161 11.7889 14.5417 11.1787 15.9103 10.1737C15.9223 10.1648 15.9298 10.1515 15.9311 10.1369C16.2647 6.6856 15.3723 3.68765 13.5655 1.02998C13.5611 1.02111 13.5535 1.01475 13.5447 1.01094ZM5.34668 8.31855C4.55833 8.31855 3.90875 7.59478 3.90875 6.70593C3.90875 5.81707 4.54574 5.09331 5.34668 5.09331C6.15392 5.09331 6.79721 5.82343 6.78459 6.70593C6.78459 7.59478 6.14761 8.31855 5.34668 8.31855ZM10.6632 8.31855C9.87484 8.31855 9.22526 7.59478 9.22526 6.70593C9.22526 5.81707 9.86222 5.09331 10.6632 5.09331C11.4704 5.09331 12.1137 5.82343 12.1011 6.70593C12.1011 7.59478 11.4704 8.31855 10.6632 8.31855Z" fill="var(--fill-0, #5865F2)"/>
</g>
</svg>
