<svg preserveAspectRatio="none" width="100%" height="100%" overflow="visible" style="display: block;" viewBox="0 0 20 20" fill="none" xmlns="http://www.w3.org/2000/svg">
<g id="Frame">
<path id="Vector" d="M15.744 9.22339C14.6365 8.75192 13.6295 8.07281 12.7773 7.22272C11.5906 6.03361 10.7439 4.54839 10.3253 2.92139C10.307 2.84913 10.2651 2.78505 10.2062 2.73928C10.1473 2.69351 10.0749 2.66866 10.0003 2.66866C9.92578 2.66866 9.85335 2.69351 9.79449 2.73928C9.73564 2.78505 9.69371 2.84913 9.67534 2.92139C9.25586 4.54817 8.40906 6.03323 7.22268 7.22272C6.37043 8.07271 5.36344 8.7518 4.25601 9.22339C3.82268 9.41005 3.37734 9.56005 2.92134 9.67539C2.84864 9.69325 2.78402 9.73498 2.73783 9.7939C2.69164 9.85281 2.66653 9.92552 2.66653 10.0004C2.66653 10.0753 2.69164 10.148 2.73783 10.2069C2.78402 10.2658 2.84864 10.3075 2.92134 10.3254C3.37734 10.4401 3.82134 10.5901 4.25601 10.7767C5.36351 11.2482 6.37052 11.9273 7.22268 12.7774C8.40974 13.9666 9.25663 15.4521 9.67534 17.0794C9.69321 17.1521 9.73493 17.2167 9.79385 17.2629C9.85277 17.3091 9.92548 17.3342 10.0003 17.3342C10.0752 17.3342 10.1479 17.3091 10.2068 17.2629C10.2658 17.2167 10.3075 17.1521 10.3253 17.0794C10.44 16.6227 10.59 16.1787 10.7767 15.7441C11.2481 14.6365 11.9272 13.6295 12.7773 12.7774C13.9667 11.5906 15.4521 10.7439 17.0793 10.3254C17.1516 10.307 17.2157 10.2651 17.2615 10.2062C17.3072 10.1474 17.3321 10.0749 17.3321 10.0004C17.3321 9.92583 17.3072 9.85339 17.2615 9.79454C17.2157 9.73568 17.1516 9.69375 17.0793 9.67539C16.6229 9.56055 16.1764 9.4094 15.744 9.22339Z" fill="var(--fill-0, #3186FF)"/>
<path id="Vector_2" d="M15.744 9.22339C14.6365 8.75192 13.6295 8.07281 12.7773 7.22272C11.5906 6.03361 10.7439 4.54839 10.3253 2.92139C10.307 2.84913 10.2651 2.78505 10.2062 2.73928C10.1473 2.69351 10.0749 2.66866 10.0003 2.66866C9.92578 2.66866 9.85335 2.69351 9.79449 2.73928C9.73564 2.78505 9.69371 2.84913 9.67534 2.92139C9.25586 4.54817 8.40906 6.03323 7.22268 7.22272C6.37043 8.07271 5.36344 8.7518 4.25601 9.22339C3.82268 9.41005 3.37734 9.56005 2.92134 9.67539C2.84864 9.69325 2.78402 9.73498 2.73783 9.7939C2.69164 9.85281 2.66653 9.92552 2.66653 10.0004C2.66653 10.0753 2.69164 10.148 2.73783 10.2069C2.78402 10.2658 2.84864 10.3075 2.92134 10.3254C3.37734 10.4401 3.82134 10.5901 4.25601 10.7767C5.36351 11.2482 6.37052 11.9273 7.22268 12.7774C8.40974 13.9666 9.25663 15.4521 9.67534 17.0794C9.69321 17.1521 9.73493 17.2167 9.79385 17.2629C9.85277 17.3091 9.92548 17.3342 10.0003 17.3342C10.0752 17.3342 10.1479 17.3091 10.2068 17.2629C10.2658 17.2167 10.3075 17.1521 10.3253 17.0794C10.44 16.6227 10.59 16.1787 10.7767 15.7441C11.2481 14.6365 11.9272 13.6295 12.7773 12.7774C13.9667 11.5906 15.4521 10.7439 17.0793 10.3254C17.1516 10.307 17.2157 10.2651 17.2615 10.2062C17.3072 10.1474 17.3321 10.0749 17.3321 10.0004C17.3321 9.92583 17.3072 9.85339 17.2615 9.79454C17.2157 9.73568 17.1516 9.69375 17.0793 9.67539C16.6229 9.56055 16.1764 9.4094 15.744 9.22339Z" fill="url(#paint0_linear_3945_21493)"/>
<path id="Vector_3" d="M15.744 9.22339C14.6365 8.75192 13.6295 8.07281 12.7773 7.22272C11.5906 6.03361 10.7439 4.54839 10.3253 2.92139C10.307 2.84913 10.2651 2.78505 10.2062 2.73928C10.1473 2.69351 10.0749 2.66866 10.0003 2.66866C9.92578 2.66866 9.85335 2.69351 9.79449 2.73928C9.73564 2.78505 9.69371 2.84913 9.67534 2.92139C9.25586 4.54817 8.40906 6.03323 7.22268 7.22272C6.37043 8.07271 5.36344 8.7518 4.25601 9.22339C3.82268 9.41005 3.37734 9.56005 2.92134 9.67539C2.84864 9.69325 2.78402 9.73498 2.73783 9.7939C2.69164 9.85281 2.66653 9.92552 2.66653 10.0004C2.66653 10.0753 2.69164 10.148 2.73783 10.2069C2.78402 10.2658 2.84864 10.3075 2.92134 10.3254C3.37734 10.4401 3.82134 10.5901 4.25601 10.7767C5.36351 11.2482 6.37052 11.9273 7.22268 12.7774C8.40974 13.9666 9.25663 15.4521 9.67534 17.0794C9.69321 17.1521 9.73493 17.2167 9.79385 17.2629C9.85277 17.3091 9.92548 17.3342 10.0003 17.3342C10.0752 17.3342 10.1479 17.3091 10.2068 17.2629C10.2658 17.2167 10.3075 17.1521 10.3253 17.0794C10.44 16.6227 10.59 16.1787 10.7767 15.7441C11.2481 14.6365 11.9272 13.6295 12.7773 12.7774C13.9667 11.5906 15.4521 10.7439 17.0793 10.3254C17.1516 10.307 17.2157 10.2651 17.2615 10.2062C17.3072 10.1474 17.3321 10.0749 17.3321 10.0004C17.3321 9.92583 17.3072 9.85339 17.2615 9.79454C17.2157 9.73568 17.1516 9.69375 17.0793 9.67539C16.6229 9.56055 16.1764 9.4094 15.744 9.22339Z" fill="url(#paint1_linear_3945_21493)"/>
<path id="Vector_4" d="M15.744 9.22339C14.6365 8.75192 13.6295 8.07281 12.7773 7.22272C11.5906 6.03361 10.7439 4.54839 10.3253 2.92139C10.307 2.84913 10.2651 2.78505 10.2062 2.73928C10.1473 2.69351 10.0749 2.66866 10.0003 2.66866C9.92578 2.66866 9.85335 2.69351 9.79449 2.73928C9.73564 2.78505 9.69371 2.84913 9.67534 2.92139C9.25586 4.54817 8.40906 6.03323 7.22268 7.22272C6.37043 8.07271 5.36344 8.7518 4.25601 9.22339C3.82268 9.41005 3.37734 9.56005 2.92134 9.67539C2.84864 9.69325 2.78402 9.73498 2.73783 9.7939C2.69164 9.85281 2.66653 9.92552 2.66653 10.0004C2.66653 10.0753 2.69164 10.148 2.73783 10.2069C2.78402 10.2658 2.84864 10.3075 2.92134 10.3254C3.37734 10.4401 3.82134 10.5901 4.25601 10.7767C5.36351 11.2482 6.37052 11.9273 7.22268 12.7774C8.40974 13.9666 9.25663 15.4521 9.67534 17.0794C9.69321 17.1521 9.73493 17.2167 9.79385 17.2629C9.85277 17.3091 9.92548 17.3342 10.0003 17.3342C10.0752 17.3342 10.1479 17.3091 10.2068 17.2629C10.2658 17.2167 10.3075 17.1521 10.3253 17.0794C10.44 16.6227 10.59 16.1787 10.7767 15.7441C11.2481 14.6365 11.9272 13.6295 12.7773 12.7774C13.9667 11.5906 15.4521 10.7439 17.0793 10.3254C17.1516 10.307 17.2157 10.2651 17.2615 10.2062C17.3072 10.1474 17.3321 10.0749 17.3321 10.0004C17.3321 9.92583 17.3072 9.85339 17.2615 9.79454C17.2157 9.73568 17.1516 9.69375 17.0793 9.67539C16.6229 9.56055 16.1764 9.4094 15.744 9.22339Z" fill="url(#paint2_linear_3945_21493)"/>
</g>
<defs>
<linearGradient id="paint0_linear_3945_21493" x1="6.66668" y1="12.3334" x2="9.33334" y2="10.0001" gradientUnits="userSpaceOnUse">
<stop stop-color="#08B962"/>
<stop offset="1" stop-color="#08B962" stop-opacity="0"/>
</linearGradient>
<linearGradient id="paint1_linear_3945_21493" x1="7.33334" y1="5.66672" x2="9.66668" y2="9.33339" gradientUnits="userSpaceOnUse">
<stop stop-color="#F94543"/>
<stop offset="1" stop-color="#F94543" stop-opacity="0"/>
</linearGradient>
<linearGradient id="paint2_linear_3945_21493" x1="4.33334" y1="11.0001" x2="13.6667" y2="10.0001" gradientUnits="userSpaceOnUse">
<stop stop-color="#FABC12"/>
<stop offset="0.46" stop-color="#FABC12" stop-opacity="0"/>
</linearGradient>
</defs>
</svg>
