<svg preserveAspectRatio="none" width="100%" height="100%" overflow="visible" style="display: block;" viewBox="0 0 30 30" fill="none" xmlns="http://www.w3.org/2000/svg">
<g id="Frame">
<path id="Vector" d="M4.63641 24H8.45459V14.7273L3.00004 10.6364V22.3636C3.00004 23.2691 3.73368 24 4.63641 24Z" fill="var(--fill-0, #4285F4)"/>
<path id="Vector_2" d="M21.5455 24H25.3637C26.2691 24 27 23.2664 27 22.3636V10.6364L21.5455 14.7273" fill="var(--fill-0, #34A853)"/>
<path id="Vector_3" d="M21.5455 7.63636V14.7273L27 10.6364V8.45454C27 6.43091 24.69 5.27727 23.0728 6.49091" fill="var(--fill-0, #FBBC04)"/>
<path id="Vector_4" d="M8.45459 14.7273V7.63636L15 12.5455L21.5455 7.63636V14.7273L15 19.6364" fill="var(--fill-0, #EA4335)"/>
<path id="Vector_5" d="M3.00004 8.45454V10.6364L8.45459 14.7273V7.63636L6.92732 6.49091C5.30732 5.27727 3.00004 6.43091 3.00004 8.45454Z" fill="var(--fill-0, #C5221F)"/>
</g>
</svg>
