<svg preserveAspectRatio="none" width="100%" height="100%" overflow="visible" style="display: block;" viewBox="0 0 20 20" fill="none" xmlns="http://www.w3.org/2000/svg">
<g id="Frame">
<path id="Vector" d="M2.87494 15.2976L3.61534 16.5765C3.76919 16.8457 3.99034 17.0573 4.24997 17.2111L6.89423 12.6342H1.60569C1.60569 12.9322 1.68262 13.2303 1.83647 13.4995L2.87494 15.2976Z" fill="var(--fill-0, #1967D2)"/>
<path id="Vector_2" d="M10.0001 7.24975L7.3558 2.67282C7.09616 2.82667 6.87501 3.0382 6.72116 3.30743L1.83647 11.769C1.68545 12.0324 1.6059 12.3306 1.60569 12.6342H6.89423L10.0001 7.24975Z" fill="var(--fill-0, #34A853)"/>
<path id="Vector_3" d="M15.7501 17.2111C16.0097 17.0573 16.2309 16.8457 16.3847 16.5765L16.6924 16.0476L18.1636 13.4995C18.3174 13.2303 18.3944 12.9322 18.3944 12.6342H13.1054L14.2308 14.8457L15.7501 17.2111Z" fill="var(--fill-0, #EA4335)"/>
<path id="Vector_4" d="M9.99962 7.24955L12.6439 2.67262C12.3843 2.51878 12.0862 2.44186 11.7785 2.44186H8.22075C7.91303 2.44186 7.61495 2.5284 7.35534 2.67262L9.99962 7.24955Z" fill="var(--fill-0, #188038)"/>
<path id="Vector_5" d="M13.1057 12.6342H6.89416L4.2499 17.2111C4.50952 17.3649 4.80747 17.4419 5.11517 17.4419H14.8846C15.1923 17.4419 15.4904 17.3553 15.75 17.2111L13.1057 12.6342Z" fill="var(--fill-0, #4285F4)"/>
<path id="Vector_6" d="M15.7211 7.53814L13.2788 3.30737C13.1249 3.03815 12.9038 2.82661 12.6442 2.67276L10 7.24971L13.1057 12.6342L18.3846 12.6343C18.3846 12.3362 18.3077 12.0381 18.1539 11.7689L15.7211 7.53814Z" fill="var(--fill-0, #FBBC05)"/>
</g>
</svg>
