<svg preserveAspectRatio="none" width="100%" height="100%" overflow="visible" style="display: block;" viewBox="0 0 20 20" fill="none" xmlns="http://www.w3.org/2000/svg">
<g id="Frame">
<path id="Vector" fill-rule="evenodd" clip-rule="evenodd" d="M4.90488 1.99999L9.53631 6.26716V6.26618V2.00984H10.4379V6.28625L15.09 1.99999V6.8652H17.0001V13.8828H15.0959V18.215L10.4379 14.1226V18.262H9.53631V14.1901L4.91013 18.2647V13.8828H3.00006V6.8652H4.90488V1.99999ZM8.85664 7.75574H3.90161V12.9923H4.909V11.3405L8.85664 7.75574ZM5.81164 11.7356V16.2775L9.53631 12.9969V8.35254L5.81164 11.7356ZM10.4638 12.9535V8.34817L14.1896 11.7314V13.8828H14.1943V16.2311L10.4638 12.9535ZM15.0959 12.9923H16.0985V7.75574H11.1804L15.0959 11.3034V12.9923ZM14.1885 6.8652V4.04843L11.1312 6.8652H14.1885ZM8.86364 6.8652H5.80644V4.04843L8.86364 6.8652Z" fill="var(--fill-0, #20808D)"/>
</g>
</svg>
