<svg preserveAspectRatio="none" width="100%" height="100%" overflow="visible" style="display: block;" viewBox="0 0 10 9.9321" fill="none" xmlns="http://www.w3.org/2000/svg">
<g id="Vector (Stroke)">
<path id="Vector" d="M3.38914 9.9321C2.1291 9.9321 1.12848 9.45032 0.535518 8.59793C-0.0945031 7.70849 -0.168623 6.44845 0.313158 5.11429C0.980239 3.37247 2.57382 2.29772 4.50094 2.29772H4.538C4.538 2.26066 4.538 2.2236 4.538 2.14948C4.50094 1.51946 4.90861 0.963562 5.50157 0.778261L7.24339 0.11118C7.42869 0.0370601 7.61399 0 7.79929 0C8.35519 0 8.87403 0.296481 9.13345 0.815321L9.83759 2.29772C10.06 2.74244 10.06 3.29835 9.80053 3.70601C9.54111 4.11367 9.13345 4.33603 8.68873 4.37309C8.57755 4.59545 8.50343 4.81781 8.39225 5.00311C8.16989 5.52195 7.94753 6.04079 7.68811 6.59669C6.72455 8.59793 5.64981 9.9321 3.38914 9.9321Z" fill="var(--fill-0, #07401A)"/>
<path id="Vector_2" d="M3.38913 8.635C4.79741 8.635 5.57567 8.00498 6.50218 6.0408C7.02102 4.96605 7.42868 3.89131 7.91046 2.85363L8.50342 3.03893C8.65166 3.07599 8.76284 3.00187 8.68872 2.85363L7.94752 1.40829C7.91046 1.29711 7.76222 1.29711 7.6881 1.33417L5.90922 2.00125C5.76098 2.03831 5.76098 2.18655 5.90922 2.22361L6.42806 2.40891C5.98334 3.37247 5.46449 4.85487 5.01977 5.78138C4.53799 6.81906 4.31563 7.5232 3.46325 7.5232C2.61087 7.5232 2.49969 6.89318 2.87029 5.96668C3.27795 4.89193 3.94503 4.59545 4.68623 4.81781C4.90859 4.52133 5.05683 4.07661 5.13095 3.66895C4.90859 3.59483 4.64917 3.59483 4.42681 3.59483C3.20383 3.59483 1.98085 4.22485 1.46201 5.55902C0.906106 7.30084 1.49907 8.635 3.38913 8.635Z" fill="var(--fill-0, #D0EC1A)"/>
</g>
</svg>
