<svg preserveAspectRatio="none" width="100%" height="100%" overflow="visible" style="display: block;" viewBox="0 0 20 20" fill="none" xmlns="http://www.w3.org/2000/svg">
<g id="Google Sheets.svg">
<path id="Vector" d="M11.875 2L16 6.12844L13.9375 6.50375L11.875 6.12844L11.5 4.06422L11.875 2Z" fill="var(--fill-0, #188038)"/>
<path id="Vector_2" d="M11.875 6.12844V2H5.12503C4.50347 2 4.00003 2.50386 4.00003 3.12594V17.3878C4.00003 18.0099 4.50347 18.5138 5.12503 18.5138H14.875C15.4966 18.5138 16 18.0099 16 17.3878V6.12844H11.875Z" fill="var(--fill-0, #34A853)"/>
<path id="Vector_3" d="M6.25003 8.38031V13.8223H13.75V8.38031H6.25003ZM9.53128 12.8841H7.18753V11.5705H9.53128V12.8841ZM9.53128 10.6322H7.18753V9.31859H9.53128V10.6322ZM12.8125 12.8841H10.4688V11.5705H12.8125V12.8841ZM12.8125 10.6322H10.4688V9.31859H12.8125V10.6322Z" fill="var(--fill-0, white)"/>
</g>
</svg>
