<svg preserveAspectRatio="none" width="100%" height="100%" overflow="visible" style="display: block;" viewBox="0 0 20 20" fill="none" xmlns="http://www.w3.org/2000/svg">
<g id="Frame">
<path id="Vector" d="M17.11 3H4.91462C3.96899 3 3.36248 4.00701 3.80595 4.84727L5.02548 7.16207H2.81466C2.36467 7.16207 2.00273 7.52826 2.00273 7.97618C2.00273 8.10696 2.03533 8.23774 2.09729 8.35544L6.02003 15.8034C6.22872 16.2022 6.7211 16.3526 7.11891 16.1434C7.26239 16.0682 7.37978 15.9472 7.45804 15.8034L8.52432 13.7926L9.86125 16.3298C10.3308 17.2223 11.6058 17.2223 12.0786 16.333L18.1926 4.79822C18.6197 3.98412 18.0295 3 17.11 3ZM11.6319 7.93041L8.99714 12.9033C8.85692 13.1681 8.53084 13.2695 8.26672 13.1289C8.17215 13.0766 8.09389 12.9981 8.04172 12.9033L5.42982 7.95002C5.28961 7.68519 5.3907 7.35824 5.65482 7.21766C5.73308 7.17515 5.81786 7.15553 5.9059 7.15553H11.1656C11.4558 7.15553 11.6906 7.39094 11.6906 7.68519C11.6938 7.76693 11.671 7.85194 11.6319 7.93041Z" fill="var(--fill-0, #F71963)"/>
<path id="Vector_2" d="M17.11 3H4.91462C3.96899 3 3.36248 4.00701 3.80595 4.84727L5.02548 7.16207H2.81466C2.36467 7.16207 2.00273 7.52826 2.00273 7.97618C2.00273 8.10696 2.03533 8.23774 2.09729 8.35544L6.02003 15.8034C6.22872 16.2022 6.7211 16.3526 7.11891 16.1434C7.26239 16.0682 7.37978 15.9472 7.45804 15.8034L8.52432 13.7926L9.86125 16.3298C10.3308 17.2223 11.6058 17.2223 12.0786 16.333L18.1926 4.79822C18.6197 3.98412 18.0295 3 17.11 3ZM11.6319 7.93041L8.99714 12.9033C8.85692 13.1681 8.53084 13.2695 8.26672 13.1289C8.17215 13.0766 8.09389 12.9981 8.04172 12.9033L5.42982 7.95002C5.28961 7.68519 5.3907 7.35824 5.65482 7.21766C5.73308 7.17515 5.81786 7.15553 5.9059 7.15553H11.1656C11.4558 7.15553 11.6906 7.39094 11.6906 7.68519C11.6938 7.76693 11.671 7.85194 11.6319 7.93041Z" fill="var(--fill-0, #F71963)"/>
</g>
</svg>
