<svg preserveAspectRatio="none" width="100%" height="100%" overflow="visible" style="display: block;" viewBox="0 0 12.5688 16" fill="none" xmlns="http://www.w3.org/2000/svg">
<path id="Clip-5" d="M4.40019 6.04109C4.40019 7.55604 5.16872 9.19032 6.85994 9.19032C8.11416 9.19032 9.3823 8.21116 9.3823 6.01887C9.3823 4.0968 8.38541 2.80647 6.90168 2.80647C5.69267 2.80647 4.40019 3.65577 4.40019 6.04109ZM7.49749 0C10.5299 0 12.5688 2.4017 12.5688 5.97675C12.5688 9.49565 10.4209 11.9523 7.35027 11.9523C5.88624 11.9523 4.94848 11.3253 4.45815 10.8714C4.46163 10.979 4.46395 11.0995 4.46395 11.2282V16H1.32261V3.2861C1.32261 3.10126 1.26349 3.04278 1.08034 3.04278H0V0.258538H2.63594C3.84959 0.258538 4.16025 0.876212 4.21936 1.35234C4.71201 0.800179 5.73324 0 7.49749 0Z" fill="var(--fill-0, #26292C)"/>
</svg>
