<svg preserveAspectRatio="none" width="100%" height="100%" overflow="visible" style="display: block;" viewBox="0 0 30 30" fill="none" xmlns="http://www.w3.org/2000/svg">
<g id="Frame">
<path id="Vector" d="M20.5264 9.47365L15.5527 8.92104L9.47376 9.47365L8.92104 15L9.47365 20.5264L15 21.2172L20.5264 20.5264L21.079 14.8619L20.5264 9.47365Z" fill="var(--fill-0, white)"/>
<path id="Vector_2" d="M11.7409 18.0478C11.3278 17.7687 11.0418 17.3612 10.8857 16.8223L11.8445 16.4272C11.9316 16.7588 12.0835 17.0157 12.3004 17.1981C12.516 17.3805 12.7785 17.4703 13.0852 17.4703C13.3988 17.4703 13.6683 17.3749 13.8934 17.1842C14.1185 16.9936 14.2319 16.7504 14.2319 16.4562C14.2319 16.155 14.1131 15.909 13.8754 15.7184C13.6378 15.5279 13.3394 15.4324 12.9829 15.4324H12.429V14.4833H12.9262C13.2329 14.4833 13.4914 14.4005 13.7014 14.2347C13.9114 14.0689 14.0164 13.8423 14.0164 13.5536C14.0164 13.2966 13.9224 13.0921 13.7345 12.9388C13.5467 12.7855 13.309 12.7081 13.0202 12.7081C12.7384 12.7081 12.5145 12.7828 12.3487 12.9333C12.1829 13.0839 12.0627 13.269 11.9868 13.4873L11.0377 13.0922C11.1634 12.7357 11.3942 12.4207 11.7326 12.1486C12.0711 11.8764 12.5035 11.7396 13.0285 11.7396C13.4167 11.7396 13.7662 11.8142 14.0758 11.9648C14.3852 12.1154 14.6284 12.324 14.8039 12.5892C14.9793 12.8558 15.0664 13.1543 15.0664 13.4858C15.0664 13.8244 14.9849 14.1103 14.8218 14.3452C14.6587 14.58 14.4584 14.7596 14.2208 14.8854V14.942C14.5344 15.0732 14.79 15.2736 14.9917 15.543C15.192 15.8124 15.2928 16.1344 15.2928 16.5101C15.2928 16.8859 15.1975 17.2216 15.0068 17.5159C14.8161 17.8103 14.5523 18.0423 14.218 18.2108C13.8823 18.3794 13.5051 18.465 13.0865 18.465C12.6016 18.4664 12.154 18.3269 11.7409 18.0478Z" fill="var(--fill-0, #1A73E8)"/>
<path id="Vector_3" d="M17.625 13.2896L16.5777 14.0509L16.0514 13.2523L17.94 11.8901H18.664V18.3158H17.625V13.2896Z" fill="var(--fill-0, #1A73E8)"/>
<path id="Vector_4" d="M20.5264 25.5L25.5 20.5264L23.0132 19.4211L20.5264 20.5264L19.4211 23.0132L20.5264 25.5Z" fill="var(--fill-0, #EA4335)"/>
<path id="Vector_5" d="M8.36842 23.0131L9.47365 25.5H20.5263V20.5263H9.47365L8.36842 23.0131Z" fill="var(--fill-0, #34A853)"/>
<path id="Vector_6" d="M6.15784 4.5C5.24193 4.5 4.5 5.24193 4.5 6.15784V20.5263L6.98682 21.6315L9.47364 20.5263V9.47364H20.5263L21.6315 6.98682L20.5264 4.5H6.15784Z" fill="var(--fill-0, #4285F4)"/>
<path id="Vector_7" d="M4.5 20.5263V23.8421C4.5 24.7581 5.24193 25.5 6.15785 25.5H9.47364V20.5263H4.5Z" fill="var(--fill-0, #188038)"/>
<path id="Vector_8" d="M20.5263 9.47362V20.5262H25.5V9.47362L23.0132 8.36839L20.5263 9.47362Z" fill="var(--fill-0, #FBBC04)"/>
<path id="Vector_9" d="M25.5 9.47364V6.15785C25.5 5.24183 24.7581 4.5 23.8421 4.5H20.5263V9.47364H25.5Z" fill="var(--fill-0, #1967D2)"/>
</g>
</svg>
