<svg preserveAspectRatio="none" width="100%" height="100%" overflow="visible" style="display: block;" viewBox="0 0 12.9153 12.8" fill="none" xmlns="http://www.w3.org/2000/svg">
<path id="Vector" d="M4.95358 4.65918V3.44317C4.95358 3.34076 4.99203 3.26393 5.08158 3.21279L7.52645 1.80479C7.85925 1.6128 8.25606 1.52324 8.66561 1.52324C10.2016 1.52324 11.1745 2.71367 11.1745 3.98082C11.1745 4.0704 11.1744 4.17281 11.1616 4.27522L8.62719 2.79039C8.47361 2.70084 8.31995 2.70084 8.16638 2.79039L4.95358 4.65918ZM10.6624 9.39521V6.48955C10.6624 6.31031 10.5855 6.18232 10.432 6.09274L7.21919 4.22395L8.26879 3.62231C8.35837 3.57117 8.4352 3.57117 8.52478 3.62231L10.9696 5.03031C11.6737 5.43996 12.1472 6.31031 12.1472 7.15506C12.1472 8.12783 11.5713 9.02387 10.6624 9.39511V9.39521ZM4.19839 6.83523L3.14879 6.22086C3.05924 6.16973 3.0208 6.09287 3.0208 5.99046V3.17448C3.0208 1.80492 4.0704 0.768051 5.49123 0.768051C6.0289 0.768051 6.52799 0.947292 6.9505 1.26728L4.42891 2.72653C4.27535 2.81608 4.19852 2.94408 4.19852 3.12334V6.83534L4.19839 6.83523ZM6.45762 8.14079L4.95358 7.29602V5.50409L6.45762 4.65931L7.96155 5.50409V7.29602L6.45762 8.14079ZM7.42401 12.0321C6.88637 12.0321 6.38727 11.8528 5.96477 11.5329L8.48634 10.0736C8.63992 9.98402 8.71674 9.85603 8.71674 9.67676V5.96477L9.7792 6.57913C9.86876 6.63027 9.9072 6.7071 9.9072 6.80954V9.62552C9.9072 10.9951 8.84474 12.0319 7.42401 12.0319V12.0321ZM4.39038 9.17767L1.94551 7.76969C1.24146 7.36002 0.767918 6.48969 0.767918 5.64491C0.767918 4.65931 1.35673 3.77612 2.26547 3.40489V6.32328C2.26547 6.50252 2.34233 6.63051 2.49588 6.72009L5.69595 8.57602L4.64635 9.17767C4.55679 9.2288 4.47994 9.2288 4.39038 9.17767ZM4.24966 11.2769C2.80325 11.2769 1.74082 10.1888 1.74082 8.84485C1.74082 8.74243 1.75365 8.64002 1.76638 8.53761L4.28797 9.99686C4.44152 10.0864 4.59521 10.0864 4.74876 9.99686L7.96155 8.14093V9.35693C7.96155 9.45935 7.92314 9.53618 7.83356 9.58731L5.38871 10.9953C5.05589 11.1873 4.65907 11.2769 4.24953 11.2769H4.24966ZM7.42401 12.8C8.97284 12.8 10.2656 11.6992 10.5601 10.24C11.9937 9.86875 12.9153 8.52475 12.9153 7.15519C12.9153 6.25915 12.5313 5.38882 11.8401 4.76159C11.9041 4.49277 11.9425 4.22395 11.9425 3.95526C11.9425 2.12489 10.4577 0.755193 8.74243 0.755193C8.39692 0.755193 8.0641 0.806332 7.73128 0.921603C7.15519 0.358376 6.36159 0 5.49123 0C3.94243 0 2.6497 1.10074 2.35519 2.55998C0.921603 2.93122 0 4.27522 0 5.64478C0 6.54083 0.383959 7.41116 1.07518 8.03838C1.01118 8.3072 0.972769 8.57602 0.972769 8.84474C0.972769 10.6751 2.4576 12.0448 4.17281 12.0448C4.51835 12.0448 4.85117 11.9936 5.18399 11.8784C5.75994 12.4416 6.55355 12.8 7.42401 12.8Z" fill="var(--fill-0, black)"/>
</svg>
