<svg preserveAspectRatio="none" width="100%" height="100%" overflow="visible" style="display: block;" viewBox="0 0 16 16" fill="none" xmlns="http://www.w3.org/2000/svg">
<g id="Group">
<path id="Vector" d="M9.17559 1.33514e-05H15.7576C15.8914 1.33514e-05 16 0.108573 16 0.242413V10.3013C16 10.5423 15.6866 10.6356 15.5547 10.434L8.97271 0.375214C8.86727 0.213934 8.98295 1.33514e-05 9.17559 1.33514e-05Z" fill="var(--fill-0, #246DFF)"/>
<path id="Vector_2" d="M6.8244 0H0.2424C0.10856 0 0 0.10856 0 0.2424V10.3013C0 10.5422 0.31336 10.6356 0.44528 10.434L7.0272 0.3752C7.13272 0.21392 7.01704 0 6.8244 0Z" fill="var(--fill-0, #20A34E)"/>
<path id="Vector_3" d="M7.88727 8.05346L0.410153 15.5868C0.258313 15.7398 0.366633 16 0.582233 16H15.424C15.6386 16 15.7474 15.7416 15.5974 15.5882L8.23263 8.05482C8.13807 7.95802 7.98255 7.95746 7.88727 8.05346Z" fill="var(--fill-0, #F86606)"/>
</g>
</svg>
