<svg preserveAspectRatio="none" width="100%" height="100%" overflow="visible" style="display: block;" viewBox="0 0 30 30" fill="none" xmlns="http://www.w3.org/2000/svg">
<g id="Frame">
<path id="Vector" d="M25.665 4.5H7.37193C5.95348 4.5 5.04372 6.01051 5.70892 7.2709L7.53823 10.7431H4.222C3.54701 10.7431 3.00409 11.2924 3.00409 11.9643C3.00409 12.1604 3.053 12.3566 3.14593 12.5332L9.03004 23.705C9.34308 24.3034 10.0816 24.529 10.6784 24.2151C10.8936 24.1023 11.0697 23.9208 11.1871 23.705L12.7865 20.6889L14.7919 24.4946C15.4962 25.8335 17.4087 25.8335 18.1179 24.4995L27.2889 7.19734C27.9296 5.97618 27.0443 4.5 25.665 4.5ZM17.4478 11.8956L13.4957 19.355C13.2854 19.7522 12.7963 19.9042 12.4001 19.6934C12.2582 19.6149 12.1408 19.4972 12.0626 19.355L8.14474 11.925C7.93441 11.5278 8.08604 11.0374 8.48223 10.8265C8.59962 10.7627 8.72679 10.7333 8.85885 10.7333H16.7484C17.1837 10.7333 17.5358 11.0864 17.5358 11.5278C17.5407 11.6504 17.5065 11.7779 17.4478 11.8956Z" fill="var(--fill-0, #F71963)"/>
<path id="Vector_2" d="M25.665 4.5H7.37193C5.95348 4.5 5.04372 6.01051 5.70892 7.2709L7.53823 10.7431H4.222C3.54701 10.7431 3.00409 11.2924 3.00409 11.9643C3.00409 12.1604 3.053 12.3566 3.14593 12.5332L9.03004 23.705C9.34308 24.3034 10.0816 24.529 10.6784 24.2151C10.8936 24.1023 11.0697 23.9208 11.1871 23.705L12.7865 20.6889L14.7919 24.4946C15.4962 25.8335 17.4087 25.8335 18.1179 24.4995L27.2889 7.19734C27.9296 5.97618 27.0443 4.5 25.665 4.5ZM17.4478 11.8956L13.4957 19.355C13.2854 19.7522 12.7963 19.9042 12.4001 19.6934C12.2582 19.6149 12.1408 19.4972 12.0626 19.355L8.14474 11.925C7.93441 11.5278 8.08604 11.0374 8.48223 10.8265C8.59962 10.7627 8.72679 10.7333 8.85885 10.7333H16.7484C17.1837 10.7333 17.5358 11.0864 17.5358 11.5278C17.5407 11.6504 17.5065 11.7779 17.4478 11.8956Z" fill="var(--fill-0, #F71963)"/>
</g>
</svg>
