<svg preserveAspectRatio="none" width="100%" height="100%" overflow="visible" style="display: block;" viewBox="0 0 20 20" fill="none" xmlns="http://www.w3.org/2000/svg">
<g id="Frame">
<path id="Vector" d="M8.58599 3.18308L2.26431 5.80651C1.91395 5.95903 1.91395 6.44711 2.26431 6.59964L8.61646 9.13155C9.18008 9.34508 9.7894 9.34508 10.353 9.13155L16.7204 6.59964C17.0708 6.44711 17.086 5.95903 16.7204 5.80651L10.3987 3.18308C9.81986 2.93904 9.16484 2.93904 8.58599 3.18308Z" fill="var(--fill-0, #FCB400)"/>
<path id="Vector_2" d="M10.0636 10.5043V16.8188C10.0636 17.1238 10.3682 17.3374 10.6424 17.2154L17.741 14.4699C17.9086 14.4089 18 14.2564 18 14.0733V7.75883C18 7.45378 17.6953 7.24024 17.4211 7.36226L10.3225 10.1077C10.155 10.1687 10.0636 10.3212 10.0636 10.5043Z" fill="var(--fill-0, #18BFFF)"/>
<path id="Vector_3" d="M0.999969 7.77408V13.7073C0.999969 14.0276 1.36556 14.2259 1.63975 14.0886L6.07255 11.9533L6.28581 11.8465L1.13707 7.48428C1.0609 7.56054 0.999969 7.65206 0.999969 7.77408Z" fill="var(--fill-0, #F82B60)"/>
<path id="Vector_4" d="M8.37273 10.062L1.62452 7.37751C1.48743 7.33176 1.35033 7.34701 1.2437 7.40802C1.21323 7.42327 1.16753 7.45378 1.12183 7.48428L6.28581 11.8465L8.38796 10.8398C8.73832 10.672 8.70786 10.184 8.37273 10.062Z" fill="var(--fill-0, #BA1E45)"/>
</g>
</svg>
