<svg preserveAspectRatio="none" width="100%" height="100%" overflow="visible" style="display: block;" viewBox="0 0 25.6 19.5128" fill="none" xmlns="http://www.w3.org/2000/svg">
<g id="Group">
<path id="Vector" d="M21.6715 1.61751C20.0398 0.868833 18.2901 0.317244 16.4607 0.00132524C16.4274 -0.00477189 16.3941 0.0104652 16.3769 0.04094C16.1519 0.441169 15.9026 0.963301 15.7281 1.37369C13.7604 1.07911 11.8029 1.07911 9.87554 1.37369C9.70096 0.954179 9.44265 0.441169 9.21661 0.04094C9.19945 0.0114819 9.16617 -0.0037551 9.13285 0.00132524C7.30444 0.316234 5.55473 0.867824 3.92206 1.61751C3.90793 1.6236 3.89582 1.63377 3.88777 1.64697C0.568951 6.60522 -0.340214 11.4416 0.105792 16.218C0.10781 16.2414 0.120928 16.2637 0.139091 16.2779C2.32876 17.886 4.44982 18.8622 6.5315 19.5093C6.56481 19.5194 6.60011 19.5073 6.62131 19.4798C7.11374 18.8074 7.55269 18.0983 7.92904 17.3527C7.95125 17.309 7.93005 17.2572 7.88466 17.2399C7.18841 16.9758 6.52544 16.6538 5.88771 16.2881C5.83727 16.2587 5.83323 16.1865 5.87964 16.152C6.01384 16.0514 6.14807 15.9468 6.27622 15.8411C6.2994 15.8218 6.33171 15.8178 6.35897 15.8299C10.5486 17.7428 15.0843 17.7428 19.2245 15.8299C19.2517 15.8167 19.284 15.8208 19.3082 15.8401C19.4364 15.9458 19.5706 16.0514 19.7058 16.152C19.7522 16.1865 19.7492 16.2587 19.6988 16.2881C19.061 16.6609 18.3981 16.9758 17.7008 17.2389C17.6554 17.2562 17.6352 17.309 17.6574 17.3527C18.0419 18.0973 18.4808 18.8063 18.9642 19.4788C18.9843 19.5073 19.0207 19.5194 19.054 19.5093C21.1457 18.8622 23.2668 17.886 25.4565 16.2779C25.4756 16.2637 25.4878 16.2424 25.4898 16.219C26.0236 10.697 24.5957 5.90024 21.7048 1.64797C21.6977 1.63377 21.6856 1.6236 21.6715 1.61751ZM8.55469 13.3097C7.29333 13.3097 6.25401 12.1517 6.25401 10.7295C6.25401 9.30731 7.27318 8.14929 8.55469 8.14929C9.84627 8.14929 10.8755 9.31748 10.8553 10.7295C10.8553 12.1517 9.83617 13.3097 8.55469 13.3097ZM17.0611 13.3097C15.7997 13.3097 14.7604 12.1517 14.7604 10.7295C14.7604 9.30731 15.7796 8.14929 17.0611 8.14929C18.3527 8.14929 19.3819 9.31748 19.3617 10.7295C19.3617 12.1517 18.3527 13.3097 17.0611 13.3097Z" fill="var(--fill-0, #5865F2)"/>
</g>
</svg>
