<svg preserveAspectRatio="none" width="100%" height="100%" overflow="visible" style="display: block;" viewBox="0 0 20 20" fill="none" xmlns="http://www.w3.org/2000/svg">
<g id="Frame">
<g id="Vector">
</g>
<path id="Vector_2" d="M10.3333 9.99993C10.3333 8.54219 11.5151 7.36041 12.9729 7.36041C14.4306 7.36041 15.6124 8.54219 15.6124 9.99993C15.6124 11.4577 14.4306 12.6394 12.9729 12.6394C11.5151 12.6394 10.3333 11.4577 10.3333 9.99993Z" fill="var(--fill-0, #1ABCFE)"/>
<path id="Vector_3" d="M5.05431 15.2791C5.05431 13.8213 6.23606 12.6395 7.69383 12.6395H10.3333V15.2791C10.3333 16.7368 9.1516 17.9186 7.69383 17.9186C6.23606 17.9186 5.05431 16.7368 5.05431 15.2791Z" fill="var(--fill-0, #0ACF83)"/>
<path id="Vector_4" d="M10.3333 2.0814V7.36042H12.9729C14.4306 7.36042 15.6124 6.17868 15.6124 4.72092C15.6124 3.26315 14.4306 2.0814 12.9729 2.0814H10.3333Z" fill="var(--fill-0, #FF7262)"/>
<path id="Vector_5" d="M5.05431 4.72092C5.05431 6.17868 6.23606 7.36042 7.69383 7.36042H10.3333V2.0814H7.69383C6.23606 2.0814 5.05431 3.26315 5.05431 4.72092Z" fill="var(--fill-0, #F24E1E)"/>
<path id="Vector_6" d="M5.05431 9.99993C5.05431 11.4577 6.23606 12.6394 7.69383 12.6394H10.3333V7.36041H7.69383C6.23606 7.36041 5.05431 8.54219 5.05431 9.99993Z" fill="var(--fill-0, #A259FF)"/>
</g>
</svg>
