<svg preserveAspectRatio="none" width="100%" height="100%" overflow="visible" style="display: block;" viewBox="0 0 16.0413 16" fill="none" xmlns="http://www.w3.org/2000/svg">
<path id="Vector" d="M3.14735 10.637L6.30282 8.87225L6.35561 8.71844L6.30282 8.63344H6.1485L5.62056 8.60106L3.81743 8.55249L2.25391 8.48773L0.739119 8.40678L0.357376 8.32583L0 7.85631L0.0365499 7.62155L0.357376 7.40703L0.81628 7.44751L1.83155 7.51632L3.35447 7.62155L4.45908 7.68631L6.0957 7.85631H6.35561L6.39216 7.75108L6.30282 7.68631L6.23378 7.62155L4.65808 6.55705L2.95242 5.43182L2.05898 4.78421L1.57571 4.45636L1.33204 4.14875L1.22645 3.47685L1.66505 2.99519L2.25391 3.03567L2.40417 3.07614L3.00115 3.53352L4.27633 4.51708L5.94138 5.73944L6.18505 5.94182L6.28252 5.87301L6.2947 5.82444L6.18505 5.6423L5.27942 4.01113L4.31288 2.35163L3.88241 1.66355L3.7687 1.2507C3.72809 1.0807 3.69966 0.939034 3.69966 0.764989L4.19917 0.0890463L4.47533 0L5.14135 0.0890463L5.42156 0.3319L5.83579 1.27498L6.50588 2.76044L7.54552 4.78017L7.8501 5.37921L8.01254 5.93372L8.07346 6.10372H8.17905V6.00658L8.26433 4.86921L8.42271 3.47281L8.57703 1.67569L8.62983 1.16974L8.88162 0.562611L9.38113 0.234758L9.771 0.420946L10.0918 0.87832L10.0472 1.17379L9.85628 2.4083L9.48266 4.34303L9.23899 5.63825H9.38113L9.54357 5.47635L10.2015 4.60612L11.3061 3.22995L11.7934 2.68353L12.362 2.08045L12.7275 1.79307H13.4179L13.9255 2.54591L13.6981 3.32305L12.9874 4.2216L12.3985 4.98255L11.5538 6.11586L11.0259 7.02251L11.0746 7.09537L11.2005 7.08323L13.1092 6.67847L14.1407 6.49228L15.3712 6.28181L15.9276 6.54086L15.9885 6.80395L15.7692 7.34227L14.4534 7.66608L12.9102 7.97369L10.6116 8.51606L10.5832 8.5363L10.6157 8.57678L11.6513 8.67392L12.0939 8.6982H13.1783L15.1966 8.84796L15.7246 9.19605L16.0413 9.62105L15.9885 9.94485L15.1763 10.3577L14.0798 10.0987L11.5213 9.49153L10.6441 9.27296H10.5223V9.34581L11.2533 10.0582L12.5935 11.2644L14.2707 12.8186L14.356 13.2031L14.1407 13.5067L13.9133 13.4743L12.4391 12.3693L11.8706 11.8715L10.5832 10.7908H10.4979V10.9041L10.7944 11.3372L12.362 13.6848L12.4432 14.4053L12.3295 14.64L11.9234 14.7817L11.4767 14.7007L10.5588 13.4177L9.61261 11.9727L8.84913 10.6775L8.75572 10.7301L8.30494 15.5669L8.09376 15.8138L7.60643 16L7.20032 15.6924L6.98508 15.1945L7.20032 14.211L7.46023 12.9279L7.67141 11.9079L7.86228 10.641L7.97599 10.2201L7.96787 10.1918L7.87446 10.2039L6.91605 11.5153L5.45811 13.4784L4.30476 14.7088L4.02861 14.8181L3.5494 14.5712L3.59407 14.13L3.8621 13.7374L5.45811 11.7136L6.42059 10.4589L7.04194 9.73438L7.03788 9.62914H7.00133L2.76155 12.3734L2.00618 12.4705L1.68129 12.167L1.7219 11.6691L1.87623 11.5072L3.15141 10.6329L3.14735 10.637Z" fill="var(--fill-0, #D97757)"/>
</svg>
