<svg preserveAspectRatio="none" width="100%" height="100%" overflow="visible" style="display: block;" viewBox="0 0 20 20" fill="none" xmlns="http://www.w3.org/2000/svg">
<g id="Frame">
<path id="Vector" d="M10 2C5.57335 2 2.00002 5.57333 2.00002 10C2.00002 14.4267 5.57335 18 10 18C14.4267 18 18 14.4267 18 10C18 5.57333 14.4267 2 10 2ZM10 15.8667C6.74668 15.8667 4.13335 13.2533 4.13335 10C4.13335 6.74667 6.74668 4.13333 10 4.13333C13.2533 4.13333 15.8667 6.74667 15.8667 10C15.8667 13.2533 13.2533 15.8667 10 15.8667ZM13.6267 8.02667C13.6267 8.93333 12.88 9.68 11.9733 9.68C11.0667 9.68 10.32 8.93333 10.32 8.02667C10.32 7.12 11.0667 6.37333 11.9733 6.37333C12.88 6.37333 13.6267 7.12 13.6267 8.02667ZM13.6267 11.9733C13.6267 12.88 12.88 13.6267 11.9733 13.6267C11.0667 13.6267 10.32 12.88 10.32 11.9733C10.32 11.0667 11.0667 10.32 11.9733 10.32C12.88 10.32 13.6267 11.0667 13.6267 11.9733ZM9.68002 11.9733C9.68002 12.88 8.93335 13.6267 8.02668 13.6267C7.12002 13.6267 6.37335 12.88 6.37335 11.9733C6.37335 11.0667 7.12002 10.32 8.02668 10.32C8.93335 10.32 9.68002 11.0667 9.68002 11.9733ZM9.68002 8.02667C9.68002 8.93333 8.93335 9.68 8.02668 9.68C7.12002 9.68 6.37335 8.93333 6.37335 8.02667C6.37335 7.12 7.12002 6.37333 8.02668 6.37333C8.93335 6.37333 9.68002 7.12 9.68002 8.02667Z" fill="var(--fill-0, #F22F46)"/>
</g>
</svg>
