<svg preserveAspectRatio="none" width="100%" height="100%" overflow="visible" style="display: block;" viewBox="0 0 13.5871 16" fill="none" xmlns="http://www.w3.org/2000/svg">
<path id="Vector" fill-rule="evenodd" clip-rule="evenodd" d="M0.0143648 5.78633C0.0351654 5.35512 0.391175 5.01511 0.823186 5.01511C1.59361 5.01431 2.79924 5.01431 3.65766 5.01431C4.22248 5.01431 4.68009 4.5567 4.68009 3.99188C4.68009 3.15106 4.68009 1.98383 4.68009 1.26381C4.68009 0.622995 5.1625 0.0861807 5.79932 0.0165789C5.99292 -0.00182163 6.21853 -0.00662173 6.48173 0.0109787C7.89297 0.105381 7.20495 1.37981 9.28341 1.41182C11.4539 1.44542 13.0731 1.89023 13.2867 4.8143C13.4899 7.59918 13.7251 9.60083 13.4867 11.8201C13.2867 13.6865 12.5883 15.733 9.88422 15.981C6.74254 16.2698 6.11053 13.1881 8.12258 12.0601C8.8938 11.6281 10.485 12.5145 8.9634 13.0609C7.74417 13.4993 8.53459 14.7074 9.64582 14.6226C10.7162 14.5402 11.2211 13.7537 11.0851 12.7985C10.821 10.9465 8.74579 10.9721 8.12098 10.6193C7.12015 10.0536 6.92415 9.01762 6.92415 9.01762C6.92415 9.01762 6.73294 10.6441 5.80092 11.4201C5.3121 11.8265 4.19447 11.5601 3.47926 11.4201C1.09599 10.9529 -0.149639 9.07842 0.0143648 5.78633ZM9.94903 7.38637C9.93063 7.44637 9.96423 7.50958 10.0242 7.52958C10.5194 7.68798 11.0435 7.74798 11.5963 7.70798C11.6307 7.70558 11.6619 7.68798 11.6819 7.65998C11.7019 7.63278 11.7083 7.59758 11.7003 7.56398C11.6419 7.33917 11.4611 6.90156 10.9251 6.85596C10.2226 6.79676 10.0106 7.18797 9.94903 7.38637ZM4.36008 0.490991L0.291172 4.5343C0.291172 4.5343 0.623981 4.4647 0.856787 4.41589C1.00319 4.38469 1.15279 4.36949 1.3024 4.36949C1.76321 4.36869 2.82564 4.36869 3.50806 4.36789C3.85047 4.36789 4.12727 4.09029 4.12727 3.74788C4.12727 3.06706 4.12727 1.98863 4.12727 1.37261C4.12727 1.06381 4.20728 0.759799 4.36008 0.490991Z" fill="var(--fill-0, #00A82D)"/>
</svg>
