<svg preserveAspectRatio="none" width="100%" height="100%" overflow="visible" style="display: block;" viewBox="0 0 20 20" fill="none" xmlns="http://www.w3.org/2000/svg">
<g id="Frame">
<path id="Vector" fill-rule="evenodd" clip-rule="evenodd" d="M12.5552 18.6186L12.5174 4.12287C12.4197 4.02523 12.229 4.05471 12.1545 4.07646L11.6581 4.23017C11.5968 4.02874 11.5173 3.8333 11.4205 3.64628C11.0682 2.97442 10.5534 2.61916 9.93015 2.61819H9.92822C9.88661 2.61819 9.84548 2.62206 9.80386 2.62544L9.79902 2.62593C9.781 2.60375 9.76228 2.58215 9.7429 2.56116C9.47193 2.27115 9.12354 2.12953 8.70644 2.14161C7.90225 2.16481 7.10144 2.7458 6.4516 3.77775C5.99435 4.50423 5.64741 5.41631 5.54822 6.12249L3.96451 6.61309C3.49854 6.75955 3.48402 6.77405 3.42257 7.21341C3.37661 7.54596 2.15677 16.9805 2.15677 16.9805L12.38 18.7486L12.5552 18.6186ZM9.2058 2.80428C9.06983 2.71486 8.91064 2.6733 8.72193 2.67716C7.48031 2.71293 6.39741 4.65262 6.12112 5.9451L7.31048 5.57679L7.52289 5.51105C7.6787 4.69032 8.06967 3.83866 8.58112 3.29054C8.75995 3.09413 8.97105 2.92968 9.20531 2.80428H9.2058ZM8.1108 5.32883L9.81789 4.80004C9.82322 4.35536 9.77483 3.698 9.55225 3.23398C9.31515 3.33162 9.1158 3.50273 8.97257 3.65595C8.58886 4.06825 8.2758 4.69709 8.11128 5.32883H8.1108ZM10.3526 4.63474L11.1461 4.38871C11.0193 3.97689 10.7184 3.28667 10.1082 3.17066C10.2979 3.6603 10.3468 4.22727 10.3526 4.63474Z" fill="var(--fill-0, #95BF47)"/>
<path id="Vector_2" d="M14.8458 5.20119C14.7848 5.19635 13.6032 5.17799 13.6032 5.17799C13.6032 5.17799 12.6147 4.21805 12.5169 4.11993C12.4791 4.08504 12.4312 4.06304 12.38 4.0571V18.7461L16.8098 17.6446C16.8098 17.6446 15.0021 5.42015 14.9905 5.33653C14.9849 5.30101 14.9676 5.26839 14.9413 5.24387C14.9149 5.21934 14.8817 5.20431 14.8458 5.20119Z" fill="var(--fill-0, #5E8E3E)"/>
<path id="Vector_3" d="M9.92485 7.48214L9.41001 9.40782C9.41001 9.40782 8.83614 9.14632 8.15533 9.18934C7.15759 9.25218 7.14695 9.88198 7.15711 10.04C7.2113 10.9004 9.4763 11.0889 9.60356 13.1059C9.70372 14.6928 8.76211 15.7789 7.40533 15.8639C5.77711 15.9669 4.8805 15.006 4.8805 15.006L5.2255 13.5376C5.2255 13.5376 6.12791 14.2186 6.84985 14.1727C7.32211 14.1432 7.4905 13.7594 7.47356 13.4878C7.40243 12.365 5.55791 12.4307 5.4413 10.5853C5.34356 9.03128 6.36308 7.45798 8.61356 7.31587C9.48066 7.26077 9.92485 7.48263 9.92485 7.48263" fill="var(--fill-0, white)"/>
</g>
</svg>
