<svg preserveAspectRatio="none" width="100%" height="100%" overflow="visible" style="display: block;" viewBox="0 0 16 16.124" fill="none" xmlns="http://www.w3.org/2000/svg">
<g id="Group">
<path id="Vector" d="M5.14536 10.9464H3.71219C1.55065 10.9464 0 9.62241 0 7.68375H7.7063C8.10574 7.68375 8.36417 7.96744 8.36417 8.36936V16.124C6.43758 16.124 5.14536 14.5636 5.14536 12.3886V10.9464ZM8.95156 7.0927H7.51835C5.35681 7.0927 3.80616 5.79237 3.80616 3.85368H11.5125C11.9119 3.85368 12.1938 4.11376 12.1938 4.51568V12.2703C10.2673 12.2703 8.95156 10.71 8.95156 8.53486V7.0927ZM12.7812 3.26263H11.348C9.18648 3.26263 7.63583 1.93866 7.63583 0H15.3421C15.7416 0 16 0.28369 16 0.661967V8.41667C14.0734 8.41667 12.7812 6.85625 12.7812 4.68118V3.26263Z" fill="var(--fill-0, #1868DB)"/>
</g>
</svg>
