<svg preserveAspectRatio="none" width="100%" height="100%" overflow="visible" style="display: block;" viewBox="0 0 30 30" fill="none" xmlns="http://www.w3.org/2000/svg">
<g id="Frame">
<path id="Vector" fill-rule="evenodd" clip-rule="evenodd" d="M18.8327 27.9279L18.7761 6.1843C18.6295 6.03784 18.3435 6.08207 18.2318 6.1147L17.4871 6.34525C17.3952 6.04311 17.2759 5.74995 17.1307 5.46942C16.6023 4.46164 15.8301 3.92874 14.8952 3.92729H14.8923C14.8299 3.92729 14.7682 3.93309 14.7058 3.93817L14.6985 3.93889C14.6715 3.90563 14.6434 3.87323 14.6143 3.84174C14.2079 3.40672 13.6853 3.19429 13.0597 3.21241C11.8534 3.24722 10.6522 4.1187 9.67741 5.66663C8.99152 6.75635 8.47112 8.12447 8.32233 9.18374L5.94676 9.91964C5.24781 10.1393 5.22604 10.1611 5.13386 10.8201C5.06491 11.3189 3.23515 25.4707 3.23515 25.4707L18.57 28.1229L18.8327 27.9279ZM13.8087 4.20643C13.6047 4.0723 13.366 4.00994 13.0829 4.01574C11.2205 4.0694 9.59612 6.97893 9.18168 8.91765L10.9657 8.36518L11.2843 8.26658C11.5181 7.03548 12.1045 5.75798 12.8717 4.9358C13.1399 4.64119 13.4566 4.39452 13.808 4.20643H13.8087ZM12.1662 7.99324L14.7268 7.20006C14.7348 6.53304 14.6622 5.547 14.3284 4.85097C13.9727 4.99743 13.6737 5.25409 13.4589 5.48392C12.8833 6.10237 12.4137 7.04563 12.1669 7.99324H12.1662ZM15.5289 6.9521L16.7192 6.58306C16.529 5.96534 16.0776 4.93 15.1623 4.756C15.4468 5.49045 15.5201 6.34091 15.5289 6.9521Z" fill="var(--fill-0, #95BF47)"/>
<path id="Vector_2" d="M22.2687 7.80178C22.1773 7.79453 20.4048 7.76698 20.4048 7.76698C20.4048 7.76698 18.922 6.32708 18.7754 6.1799C18.7186 6.12756 18.6467 6.09456 18.57 6.08564V28.1192L25.2148 26.4669C25.2148 26.4669 22.5031 8.13022 22.4857 8.00479C22.4773 7.95152 22.4513 7.90259 22.4119 7.8658C22.3724 7.82901 22.3225 7.80647 22.2687 7.80178Z" fill="var(--fill-0, #5E8E3E)"/>
<path id="Vector_3" d="M14.8873 11.2232L14.115 14.1117C14.115 14.1117 13.2542 13.7195 12.233 13.784C10.7364 13.8783 10.7204 14.823 10.7357 15.0601C10.817 16.3506 14.2145 16.6334 14.4053 19.6589C14.5556 22.0392 13.1432 23.6683 11.108 23.7959C8.66566 23.9503 7.32074 22.509 7.32074 22.509L7.83824 20.3064C7.83824 20.3064 9.19187 21.3279 10.2748 21.259C10.9832 21.2148 11.2357 20.6391 11.2103 20.2317C11.1036 18.5474 8.33687 18.646 8.16195 15.8779C8.01534 13.5469 9.54461 11.187 12.9203 10.9738C14.221 10.8912 14.8873 11.2239 14.8873 11.2239" fill="var(--fill-0, white)"/>
</g>
</svg>
