<svg preserveAspectRatio="none" width="100%" height="100%" overflow="visible" style="display: block;" viewBox="0 0 20 20" fill="none" xmlns="http://www.w3.org/2000/svg">
<g id="Frame">
<path id="Vector" d="M3.09094 16H5.63639V9.81818L2.00003 7.09091V14.9091C2.00003 15.5127 2.48912 16 3.09094 16Z" fill="var(--fill-0, #4285F4)"/>
<path id="Vector_2" d="M14.3637 16H16.9091C17.5128 16 18 15.5109 18 14.9091V7.09091L14.3637 9.81818" fill="var(--fill-0, #34A853)"/>
<path id="Vector_3" d="M14.3637 5.09091V9.81818L18 7.09091V5.63636C18 4.28727 16.46 3.51818 15.3818 4.32727" fill="var(--fill-0, #FBBC04)"/>
<path id="Vector_4" d="M5.63639 9.81818V5.09091L10 8.36364L14.3637 5.09091V9.81818L10 13.0909" fill="var(--fill-0, #EA4335)"/>
<path id="Vector_5" d="M2.00003 5.63636V7.09091L5.63639 9.81818V5.09091L4.61821 4.32727C3.53821 3.51818 2.00003 4.28727 2.00003 5.63636Z" fill="var(--fill-0, #C5221F)"/>
</g>
</svg>
