<svg preserveAspectRatio="none" width="100%" height="100%" overflow="visible" style="display: block;" viewBox="0 0 20 20" fill="none" xmlns="http://www.w3.org/2000/svg">
<g id="Frame">
<path id="Vector" d="M11.7803 3.4294C13.0769 2.99551 14.3205 2.88633 15.3682 3.16095L15.3835 3.16502L15.3926 3.16719L15.4022 3.17002C15.6952 3.24948 15.9648 3.35717 16.2101 3.49074L16.2202 3.49587L16.2282 3.50068C16.5781 3.69395 16.8781 3.9403 17.1261 4.23279L17.1364 4.24411L17.1495 4.2607C17.1802 4.29767 17.2099 4.33538 17.239 4.37378L17.2403 4.37512L17.2411 4.37602L17.2472 4.38474C17.3173 4.4785 17.3826 4.57646 17.4429 4.67837L17.4483 4.6854H17.4471C17.4652 4.71597 17.4827 4.74691 17.4998 4.77819L17.5015 4.78138C17.5018 4.78189 17.5021 4.7824 17.5023 4.78289L17.5075 4.79176C17.5117 4.79951 17.5156 4.80729 17.5197 4.81507L17.5231 4.82118C17.5416 4.85618 17.5594 4.89162 17.5769 4.92748L17.5833 4.94036L17.5844 4.9432C17.6011 4.97792 17.6173 5.01303 17.6329 5.04853L17.6354 5.05351L17.638 5.06013C17.6852 5.16847 17.7277 5.28038 17.7654 5.39568C17.7687 5.40572 17.7719 5.41579 17.7751 5.42587L17.7757 5.42639L17.7762 5.42815L17.778 5.43494C17.8129 5.54563 17.8434 5.6594 17.8695 5.77604L17.8709 5.78033L17.8712 5.78116L17.8803 5.82455L17.8815 5.83126C17.8898 5.87082 17.8975 5.91073 17.9048 5.95093L17.9063 5.95721H17.9077V5.96648C17.9298 6.09107 17.9471 6.21871 17.9595 6.34922L17.9597 6.35016C17.972 6.47981 17.9794 6.61297 17.982 6.74813L17.9823 6.75082L17.9823 6.75165L17.983 6.75825L17.9823 6.76628C17.9832 6.82576 17.9833 6.88576 17.9823 6.94623V6.95782L17.9823 6.96422C17.9797 7.10097 17.972 7.24027 17.9597 7.38191V7.3851C17.942 7.58806 17.914 7.79587 17.876 8.008L17.8713 8.03571L17.8651 8.06726C17.7786 8.52949 17.644 9.0119 17.4596 9.50945L17.4524 9.53028L17.4475 9.54431L17.441 9.53307C17.44 9.53212 17.4392 9.53082 17.4389 9.5294L17.3066 9.30073L17.1709 9.07006L17.0302 8.84455L17.0266 8.83878L16.8823 8.61684L16.8814 8.6154L16.7297 8.38911L16.6393 8.26026L16.5738 8.16528L16.5718 8.1626L16.4108 7.94358L16.3158 7.81688L16.2456 7.7218L16.2439 7.71948L16.2444 7.71682C16.2444 7.7169 16.2444 7.71676 16.2444 7.71682L16.2646 7.5972V7.59285L16.2805 7.47921L16.2931 7.3851L16.2942 7.37699L16.2948 7.37379L16.2964 7.36588L16.3076 7.25319L16.3144 7.14257L16.3212 7.03643L16.3234 6.93011L16.3235 6.92917V6.92346L16.3258 6.82862L16.3236 6.75825L16.3235 6.75213V6.72916L16.3189 6.63188L16.3127 6.55686L16.3121 6.55066V6.53921L16.3031 6.44696L16.2919 6.36105L16.2783 6.27527L16.2666 6.20302L16.2648 6.1918L16.2559 6.16047L16.2467 6.11233L16.2287 6.03826L16.2284 6.03735L16.2098 5.97531H16.2081V5.96959L16.208 5.96854V5.96502L16.1858 5.89599L16.1632 5.82811L16.1452 5.78557L16.1384 5.76509L16.1114 5.70435L16.0847 5.64657L16.0843 5.6457L16.0837 5.64449L16.055 5.5893L16.0257 5.53531L15.9942 5.48355L15.9604 5.43389L15.9266 5.38658L15.8566 5.29625L15.7799 5.21508L15.7236 5.16336L15.6652 5.11166L15.602 5.06202L15.5435 5.02162L15.5368 5.01699L15.485 4.98356L15.4668 4.97187L15.4241 4.94941L15.3922 4.93121L15.3134 4.8907L15.2302 4.8547L15.1421 4.82082L15.0723 4.80056L15.0476 4.79155L14.948 4.7644L14.8443 4.73959L14.7337 4.71703L14.7259 4.7158L14.6185 4.69895L14.4965 4.68539L14.368 4.67635L14.235 4.67185H14.0954L13.9521 4.67409L13.803 4.68539L13.7295 4.69187L13.6491 4.69899L13.4933 4.71702L13.3305 4.74188L13.1654 4.77357L12.9959 4.80975L12.9951 4.80991L12.8229 4.85015L12.8218 4.85045L12.6454 4.8979L12.4669 4.94984L12.4603 4.95195L12.2838 5.00863L12.1005 5.07426L11.9604 5.12851L11.9169 5.14505L11.9129 5.14661L11.7252 5.22344L11.5355 5.30475L11.3429 5.39311L11.153 5.48693L11.1509 5.48804L11.1495 5.48879L10.9563 5.5875L10.7617 5.69163L10.5671 5.8002L10.3727 5.91551L10.237 5.9992L10.1758 6.03546L10.1244 6.06829L9.98137 6.15979L9.94316 6.18676L9.78922 6.2886L9.7855 6.29122L9.66026 6.37914L9.59455 6.42443L9.4023 6.56238L9.21953 6.69945L9.21232 6.70486L9.12186 6.77494L9.02231 6.85189L8.88112 6.96646L8.86702 6.9779L8.86627 6.97851L8.83449 7.00349L8.64919 7.15937L8.46598 7.31995L8.28586 7.48433L8.28501 7.48513L8.1062 7.65031L7.93208 7.82217L7.92983 7.82439L7.75786 7.99638L7.59057 8.17265L7.50685 8.26322L7.42475 8.34973L7.42308 8.35151L7.26256 8.53457L7.10438 8.7176L7.1026 8.72028L6.9481 8.90562L6.92101 8.93947L6.79654 9.09335L6.74007 9.16787L6.66009 9.27243L6.6518 9.28331L6.50931 9.4732L6.37134 9.66549L6.23784 9.85784L6.10899 10.0522L5.98884 10.2401L5.98455 10.2467L5.98338 10.2486L5.8675 10.4403L5.86693 10.4413L5.79905 10.5566L5.75152 10.6359L5.75108 10.6367L5.6679 10.7896L5.64306 10.8301L5.64117 10.8338L5.54353 11.0225L5.54302 11.0234L5.54224 11.0242L5.54083 11.0256L5.44404 11.2191L5.42823 11.2531L5.35356 11.4114L5.26806 11.6026L5.22011 11.7145L5.18621 11.7935L5.11433 11.9799L5.11391 11.9811L5.04414 12.1656L5.04415 12.1689L5.04417 12.1758H5.04214L4.98036 12.3522L4.96686 12.3972L4.92387 12.5331L4.89902 12.6211L4.87184 12.7118L4.84021 12.8337L4.82666 12.8857L4.7924 13.0334L4.79047 13.0418L4.78593 13.0599L4.75203 13.2271L4.72266 13.3919L4.72251 13.3931L4.70007 13.5526L4.69966 13.5562L4.68875 13.6565L4.68211 13.7073L4.68198 13.7083L4.67077 13.8587L4.67074 13.8593L4.67077 13.8662L4.66166 14.0069L4.66163 14.0291L4.66166 14.0517V14.0585L4.65938 14.1492L4.66166 14.2439V14.2848L4.66842 14.4152L4.66999 14.4296L4.67068 14.4356L4.67972 14.542L4.69101 14.621L4.69543 14.6609L4.69555 14.6618L4.7158 14.7768L4.7384 14.8874L4.76252 14.9883L4.76332 14.9915L4.79251 15.0881L4.81582 15.1538L4.81716 15.1576L4.81741 15.1582L4.82359 15.1789L4.8242 15.1809L4.85808 15.2667L4.89634 15.3477L4.93463 15.4265L4.97527 15.4942L4.97622 15.4959V15.5002L4.99164 15.5233L5.02021 15.5661L5.06768 15.6317L5.11701 15.6922L5.16896 15.7487L5.223 15.805L5.22554 15.8074L5.27882 15.8564L5.27934 15.8569L5.33802 15.9065L5.40103 15.9538L5.45799 15.9911L5.46011 15.9924L5.46572 15.9966L5.46875 15.9989L5.54068 16.0416L5.55998 16.0518L5.61743 16.0823L5.69649 16.1207L5.7817 16.1565L5.84979 16.1821L5.87239 16.1905L5.95935 16.2175L5.96696 16.2198L6.06874 16.247L6.17468 16.2695L6.28755 16.2898L6.33445 16.2966L6.3352 16.2966L6.40535 16.3079L6.5069 16.3172L6.52917 16.3192L6.5915 16.3236L6.65796 16.3282L6.79364 16.3327L6.93372 16.3305L7.08053 16.3237L7.22972 16.3147L7.38549 16.2989L7.54374 16.2763L7.70594 16.2492L7.70948 16.2485L7.7119 16.2504L7.71577 16.2533L7.72094 16.2572L7.74631 16.2762L7.74769 16.2772L7.74824 16.2776L7.75064 16.2797L7.80523 16.3209L7.80944 16.3237L7.81089 16.3247L7.81148 16.3251L7.81866 16.3305H7.82323V16.3339L7.8367 16.3441H7.83596L7.93218 16.4167L7.93362 16.4178L7.93623 16.4197L8.1553 16.5784L8.23996 16.6383L8.34985 16.7141L8.37922 16.7367L8.53756 16.8408L8.60543 16.8883L8.61423 16.8939L8.83398 17.0353L8.83827 17.038L8.89951 17.076L9.06235 17.1778L9.06361 17.1785L9.29311 17.3135L9.29835 17.3165L9.31523 17.3262L9.52013 17.4449C9.52205 17.4445 9.52398 17.445 9.52547 17.4461H9.55968L9.53658 17.4543L9.52284 17.4593L9.45946 17.4819L9.45838 17.4823L9.4233 17.4946C9.37353 17.5126 9.32393 17.53 9.2745 17.547L9.22866 17.5634L9.22755 17.5637L9.06097 17.6178L8.99994 17.6381L8.87696 17.6746H8.88348L8.83215 17.688L8.79256 17.6983C8.73364 17.7149 8.67495 17.7309 8.61655 17.7461L8.60577 17.7491L8.59212 17.7525C8.55192 17.7629 8.51183 17.7729 8.47188 17.7825L8.43283 17.7924H8.43956L8.37991 17.8056L8.37916 17.8058L8.33945 17.8146L8.31808 17.8193L8.1573 17.8533L8.10486 17.8627C8.06252 17.8709 8.02036 17.8787 7.97835 17.886L7.93536 17.8941L7.91356 17.8971C7.85886 17.9063 7.80445 17.9147 7.75034 17.9225L7.71568 17.928L7.68854 17.931C7.64981 17.9362 7.61123 17.9411 7.57281 17.9456L7.50051 17.9552L7.49636 17.9555L7.45179 17.9587C7.40843 17.963 7.36527 17.9668 7.32232 17.9702L7.28745 17.9734L7.21945 17.9779L7.17824 17.9799C7.14773 17.9816 7.11734 17.9831 7.08706 17.9843L7.07895 17.9847H7.07721L7.07621 17.9848C7.01037 17.9873 6.94509 17.9888 6.88042 17.9891L6.87736 17.9892H6.86672C6.81056 17.9894 6.75486 17.9888 6.69959 17.9873L6.66892 17.987L6.64761 17.9856C6.61467 17.9845 6.58188 17.9831 6.54928 17.9813L6.4696 17.9779L6.42679 17.9734L6.40191 17.9711C6.37924 17.9693 6.35664 17.9673 6.33415 17.9651L6.27514 17.9598L6.22932 17.9552L6.0827 17.9349L6.08188 17.9349L6.03719 17.9281L6.03641 17.928L5.89612 17.9031L5.85072 17.8941L5.7126 17.8646L5.66933 17.8532L5.53581 17.8192L5.52012 17.8146L5.49027 17.8056L5.48952 17.8054L5.44593 17.7924H5.44822L5.36225 17.7652L5.36074 17.7647L5.32194 17.7496C5.29732 17.7411 5.27287 17.7323 5.24856 17.7233L5.19459 17.7041L5.19328 17.7036L5.15255 17.6878L5.03025 17.6379L4.99148 17.6174L4.87382 17.5632L4.84247 17.5448C4.8229 17.5347 4.80346 17.5244 4.78415 17.5139L4.7219 17.4816L4.68312 17.4587L4.57443 17.3931L4.51795 17.3537C4.50014 17.3418 4.48244 17.3297 4.46489 17.3175L4.43398 17.2979L4.29995 17.1958L4.29096 17.189L4.23732 17.1435C4.22768 17.1354 4.2181 17.1272 4.20856 17.1191L4.17071 17.087L4.15421 17.0713C4.13054 17.05 4.10719 17.0285 4.08418 17.0065L4.0483 16.9736L4.01512 16.9383C3.96993 16.8924 3.92609 16.845 3.88363 16.7962L3.83961 16.7469L3.82127 16.724L3.71936 16.5926L3.71867 16.5915L3.71649 16.5872L3.70836 16.5756C3.68757 16.5469 3.6672 16.5178 3.64726 16.4883L3.6239 16.4549L3.62199 16.4522L3.60584 16.4269L3.60435 16.4245L3.59922 16.4165L3.55375 16.3431L3.55308 16.3418L3.55119 16.338L3.54942 16.3345C3.54798 16.3321 3.54651 16.3296 3.54507 16.3273L3.53837 16.3189L3.53775 16.3181L3.53737 16.3172L3.53365 16.3079C3.53274 16.3064 3.53184 16.3048 3.53094 16.3032L3.52899 16.3003L3.52245 16.2886C3.51957 16.2836 3.5167 16.2786 3.51384 16.2736L3.50391 16.2571L3.49874 16.2468C3.493 16.2365 3.48727 16.2262 3.48162 16.2157L3.47225 16.2005L3.45585 16.1698L3.45451 16.1672L3.45396 16.1662L3.45123 16.1608L3.44932 16.157L3.43579 16.1299L3.43546 16.1292L3.43088 16.12L3.42605 16.1092C3.41756 16.0922 3.40919 16.0751 3.40095 16.058L3.39916 16.0544L3.39769 16.0514L3.39729 16.0506L3.39238 16.0408L3.37704 16.0079L3.37282 16.0016L3.37236 16.0009L3.36583 15.9911H3.36833L3.3564 15.962L3.34165 15.9277C3.33957 15.9228 3.33746 15.918 3.33539 15.9132L3.31334 15.8646L3.30431 15.8398L3.29475 15.8168L3.29286 15.8123L3.2891 15.8032L3.27251 15.7558L3.27005 15.7489C3.26358 15.7315 3.25719 15.7139 3.25094 15.6963L3.24096 15.6724L3.22945 15.6379L3.20904 15.5722L3.18648 15.5044L3.18612 15.5034V15.4986L3.17908 15.4723C3.17081 15.4436 3.16278 15.4147 3.15506 15.3855L3.14565 15.3525L3.14107 15.3342L3.13636 15.3122C3.12599 15.27 3.11622 15.2275 3.10706 15.1847L3.1004 15.1625L3.10022 15.1616L3.09249 15.1138C3.08459 15.0737 3.07724 15.0333 3.07039 14.9927L3.06863 14.9857L3.06653 14.9773H3.06739L3.06415 14.9546C3.05898 14.9223 3.05412 14.8898 3.0496 14.8571L3.04136 14.8063L3.03903 14.7788L3.03741 14.7623C3.0291 14.6921 3.02229 14.6211 3.01691 14.5495L3.01639 14.5432L3.01607 14.5382C3.01381 14.5071 3.0118 14.4758 3.01009 14.4445L3.0096 14.4368L3.00958 14.4348C3.0063 14.3727 3.00411 14.3101 3.00297 14.2471L3.0028 14.2444V14.2392C2.99873 13.9958 3.01053 13.746 3.03769 13.4911L3.0413 13.4515L3.04462 13.429C3.05131 13.3712 3.05877 13.3133 3.06701 13.2551L3.06711 13.2542C3.07647 13.1882 3.08684 13.1219 3.09818 13.0553L3.10017 13.0393L3.11345 12.9687C3.11858 12.9405 3.12393 12.9123 3.12941 12.884L3.12964 12.8827C3.16099 12.7213 3.19805 12.558 3.2406 12.3937C3.29782 12.1728 3.36511 11.9492 3.44203 11.7246L3.44392 11.7186L3.44678 11.7095L3.44818 11.7051L3.45499 11.687C3.50398 11.5459 3.55678 11.4041 3.61334 11.2619L3.61882 11.2478L3.61999 11.2452C3.6307 11.2184 3.64152 11.1915 3.65249 11.1648C4.27391 9.64616 5.31965 8.08632 6.69859 6.70752L6.76335 6.64313C6.78643 6.62033 6.8096 6.59761 6.83278 6.57498H6.83134L6.84139 6.56659C7.5948 5.83231 8.39907 5.19667 9.21892 4.6741H9.20216L9.23688 4.66264C9.31069 4.61577 9.38464 4.56984 9.45866 4.52481L9.46166 4.52298C9.53801 4.47656 9.61446 4.43115 9.69097 4.38671L9.69165 4.38631C10.1793 4.10321 10.67 3.86057 11.1565 3.66151C11.3653 3.57605 11.5735 3.49858 11.7803 3.4294ZM13.0735 5.62229C13.0756 5.62015 13.0788 5.61964 13.0814 5.62099L13.0825 5.62174L13.1482 5.67518C15.9237 7.94457 17.8199 11.1324 17.9748 13.8007L17.9781 13.8635C17.9953 14.2235 17.98 14.5644 17.9341 14.8845L17.9335 14.8881C17.9073 15.0693 17.8713 15.2438 17.8258 15.4113L17.828 15.4117L17.8236 15.4207L17.8232 15.4216L17.8227 15.4225C17.743 15.7122 17.6348 15.9808 17.4996 16.2265L17.4974 16.2314L17.4971 16.2321L17.4967 16.2327L17.4948 16.2351C17.4804 16.2611 17.4657 16.2869 17.4507 16.3124L17.4453 16.3222L17.4437 16.326L17.4412 16.329L17.4403 16.3305H17.444L17.4336 16.3411C17.4146 16.3728 17.395 16.404 17.375 16.4348L17.3657 16.4495L17.3158 16.5244L17.3001 16.5454C17.2789 16.5751 17.2574 16.6045 17.2354 16.6334L17.2161 16.6603L17.1787 16.7059C17.1606 16.7283 17.1422 16.7504 17.1236 16.7723L17.1072 16.7919L17.0982 16.8017C17.07 16.8339 17.0414 16.8654 17.012 16.8964L16.9939 16.9166L16.9369 16.9735L16.8736 17.0346L16.8432 17.0615C16.7945 17.1058 16.7444 17.1486 16.6928 17.1899L16.6831 17.1979L16.6151 17.2523L16.5503 17.2977C16.5115 17.3254 16.4719 17.3523 16.4316 17.3784L16.4065 17.3952L16.3317 17.4427L16.2589 17.4837L16.2268 17.5011C16.2124 17.5091 16.1979 17.5169 16.1833 17.5247L16.1796 17.5268L16.1773 17.5279C16.1497 17.5426 16.1217 17.5569 16.0935 17.5709L16.0233 17.6061L15.946 17.6401L15.8622 17.6764L15.7805 17.7081L15.7723 17.7111C15.747 17.7208 15.7216 17.7301 15.696 17.7393L15.6944 17.7399L15.6929 17.7403C15.6436 17.7579 15.5935 17.7745 15.5428 17.7902L15.5245 17.7965L15.4894 17.8064C15.4589 17.8154 15.4283 17.824 15.3974 17.8323L15.3476 17.8464L15.3095 17.8549C15.2771 17.8629 15.2445 17.8706 15.2116 17.8778L15.1641 17.8894L15.1338 17.8946L15.1221 17.8966C15.0819 17.9046 15.0413 17.9121 15.0004 17.9191L14.9782 17.9235L14.9774 17.9236L14.9472 17.9279C14.9007 17.9353 14.8537 17.942 14.8062 17.9481L14.7877 17.9506L14.787 17.9507L14.7545 17.9543C14.7384 17.9562 14.7223 17.958 14.7061 17.9598L14.6857 17.962L14.5928 17.9711L14.5618 17.973C14.5238 17.976 14.4856 17.9785 14.4471 17.9806L14.3935 17.9847H14.3919L14.3329 17.9858C14.293 17.9871 14.2528 17.988 14.2123 17.9885L14.1896 17.9892L14.1627 17.9889C14.1093 17.9891 14.0555 17.9885 14.0011 17.9871L13.9833 17.987L13.907 17.9847H13.9062L13.7734 17.9779H13.7727L13.7124 17.9733C13.6943 17.972 13.6762 17.9706 13.658 17.9692L13.5597 17.962L13.4912 17.9537C13.4555 17.9499 13.4198 17.9459 13.3841 17.9415L13.3445 17.9371L13.2887 17.9293C13.2801 17.9282 13.2714 17.9269 13.2627 17.9257L13.247 17.9236L13.2426 17.9229C13.2123 17.9186 13.182 17.9141 13.1515 17.9094L13.1254 17.9055L13.1246 17.9054L13.025 17.8896L12.9027 17.8669L12.8494 17.856C12.8206 17.8503 12.7915 17.8444 12.7625 17.8384L12.6785 17.8216L12.6095 17.8048C12.5653 17.7946 12.521 17.784 12.4766 17.7731L12.452 17.7672L12.4143 17.7574C12.3878 17.7506 12.3613 17.7437 12.3347 17.7367L12.2255 17.7084L12.119 17.6767L11.9945 17.6405L11.889 17.6068L11.8879 17.6065L11.8844 17.6053L11.8465 17.5932H11.8474L11.7635 17.5657L11.7076 17.5455C11.6732 17.5336 11.6387 17.5216 11.6043 17.5093L11.5303 17.4842L11.4237 17.4434L11.297 17.3959L11.2019 17.3563C11.1879 17.3506 11.174 17.345 11.16 17.3393L11.0637 17.3008L10.955 17.2532L10.8282 17.1989L10.7594 17.1659C10.7307 17.1528 10.7021 17.1396 10.6734 17.1262L10.5928 17.0902L10.4838 17.0358L10.3572 16.9747L10.2484 16.9181L10.1217 16.8525L10.013 16.7936L9.88996 16.7265L9.88833 16.7256L9.88744 16.7251L9.8651 16.7129H9.86612L9.77903 16.6631L9.77739 16.6622L9.77589 16.6614L9.75531 16.6496L9.65294 16.5898L9.54589 16.5274L9.54421 16.5264L9.54304 16.5257L9.52263 16.5138L9.41966 16.4516L9.31271 16.3848L9.31098 16.3838L9.30519 16.3801L9.29099 16.3712L9.24991 16.3453L9.24928 16.3449L9.24872 16.3443L9.24709 16.3427L9.24436 16.3411L9.23645 16.3363L9.21997 16.326L9.21818 16.3249L9.19329 16.3091L9.18979 16.3067L9.18637 16.3045L9.1592 16.2863L9.12084 16.2615L9.11901 16.2603L9.10158 16.249L9.08997 16.2409C9.08089 16.235 9.07182 16.229 9.06274 16.2231L9.01677 16.1937L8.95556 16.1528L8.95266 16.1501L8.92266 16.1298C8.90539 16.1182 8.88812 16.1065 8.87087 16.0948L8.80786 16.0521L8.80609 16.051L8.80361 16.0493L8.78781 16.0386L8.72688 15.9966L8.72189 15.9933L8.71998 15.992L8.70154 15.9798H8.70303L8.65039 15.9416C8.60711 15.9109 8.56391 15.8799 8.52079 15.8487L8.49839 15.8338L8.42796 15.7815L8.31929 15.7001L8.27191 15.6662L8.206 15.6139L8.08842 15.5234L8.06829 15.5069C8.03652 15.482 8.00477 15.4569 7.97312 15.4316L7.96614 15.4261L7.83935 15.3242L7.82804 15.3152L7.81295 15.3031L7.71027 15.2178L7.6084 15.1318L7.57897 15.1069L7.5123 15.0482C7.48539 15.0249 7.45855 15.0014 7.43176 14.9779L7.39343 14.9463L7.31922 14.8781C7.30239 14.863 7.28558 14.8479 7.26881 14.8328L7.18049 14.7538L7.16891 14.7422L7.12798 14.7039C7.05493 14.6362 6.98236 14.5678 6.91036 14.4984L6.89068 14.4799L6.86515 14.4547C6.78265 14.3747 6.70089 14.2935 6.6199 14.2113L6.5623 14.1537L6.46272 14.0496L6.36743 13.9499L6.36538 13.9478L6.32014 13.9003L6.17763 13.7442L6.17087 13.7374L6.10569 13.6634C6.07134 13.625 6.03719 13.5864 6.00321 13.5476L5.98052 13.5222L5.89672 13.4248L5.88907 13.4158C5.86397 13.3865 5.83899 13.357 5.8141 13.3275L5.79483 13.3048L5.78533 13.2936L5.75637 13.2595L5.62031 13.0945L5.61785 13.0915L5.6133 13.0847L5.61159 13.0821L5.6124 13.0792L5.63955 12.9773L5.65541 12.9139L5.66672 12.8731L5.69846 12.7667L5.7318 12.6622L5.73244 12.6602L5.73322 12.6577L5.76124 12.5717L5.76414 12.5628L5.76811 12.5509L5.76866 12.5493L5.80487 12.4406L5.84565 12.3273L5.89085 12.2144L5.89302 12.2058L5.89331 12.2048L5.9363 12.1007L5.96796 12.0216L5.98386 11.9853L6.03366 11.8698L6.04723 11.8382L6.08807 11.7519L6.08844 11.7511L6.12896 11.6621L6.13338 11.6522L6.13944 11.6401L6.14243 11.6341L6.14434 11.6304L6.22666 11.4657L6.26013 11.3988L6.32357 11.2787L6.32873 11.2689L6.33508 11.2779L6.33563 11.2787L6.46797 11.4649L6.46857 11.4657L6.60426 11.6511L6.68119 11.7507L6.74483 11.834L6.74684 11.8367L6.89156 12.0198L7.0409 12.2031L7.19237 12.384L7.283 12.4864L7.33717 12.5469L7.34864 12.5606L7.50686 12.7369L7.66969 12.911L7.73076 12.9743L7.83033 13.0762L7.83112 13.0771L7.83528 13.0834L8.00443 13.2503L8.05193 13.2955L8.17636 13.4154L8.17776 13.4167L8.34925 13.5748L8.35054 13.576L8.527 13.7343L8.54275 13.7463H8.54062L8.70561 13.8903L8.88477 14.0381L8.88661 14.0396L9.06992 14.1867L9.25352 14.3278L9.25551 14.3293L9.2568 14.3303L9.44068 14.4693L9.55158 14.5462L9.6285 14.6028L9.81632 14.7318L10.0041 14.8585L10.1939 14.9782L10.384 15.0959L10.4291 15.1207L10.4522 15.1334H10.4505L10.574 15.2067L10.7483 15.3039L10.7641 15.3131L10.9539 15.4147L11.0829 15.4804L11.1409 15.5116L11.1418 15.5121L11.3294 15.6024L11.5148 15.6884L11.7002 15.7698L11.7023 15.7706L11.8852 15.8442L12.0667 15.9145L12.1028 15.9277L12.2474 15.98L12.426 16.0388L12.6002 16.0909L12.7721 16.1383L12.7731 16.1386L12.7811 16.1406L12.9415 16.1813L13.109 16.2175L13.2711 16.249L13.4299 16.2739L13.5612 16.2921L13.5862 16.2966L13.735 16.3124L13.8821 16.3237L13.8878 16.324L14.0245 16.3305L14.161 16.3328H14.1621L14.2956 16.3305H14.2965L14.4218 16.3237L14.546 16.3124L14.6613 16.2966L14.724 16.2864L14.7718 16.2786L14.878 16.256L14.9775 16.2311L15.0744 16.2018L15.1449 16.1783L15.1625 16.1724L15.248 16.1387L15.3294 16.1025L15.4059 16.0643L15.4781 16.0237L15.5456 15.981L15.5796 15.9567L15.6089 15.9358L15.6195 15.9273L15.6275 15.9209H15.6264L15.6427 15.9087L15.6695 15.8886L15.7259 15.839L15.7801 15.7871L15.832 15.733L15.8816 15.6766L15.9288 15.6158L15.9739 15.5526L16.0166 15.4853L16.0573 15.4151L16.0955 15.3389L16.1293 15.2599L16.1632 15.1741L16.1948 15.0836L16.2219 14.989L16.2489 14.8899L16.2526 14.8709L16.2693 14.7836L16.2806 14.7159L16.2896 14.6706L16.3031 14.5533L16.3032 14.5526L16.3144 14.4314L16.3234 14.305L16.3258 14.174L16.3235 14.0361L16.3189 13.8939L16.3082 13.7598L16.3076 13.7535V13.749L16.3029 13.7038L16.2918 13.5978L16.2917 13.5969L16.2851 13.5526L16.2716 13.4449L16.2715 13.444L16.2711 13.4418L16.2444 13.2836L16.2128 13.1208L16.1767 12.9561L16.1698 12.9311L16.1336 12.7862L16.1328 12.7831L16.0865 12.6135L16.0861 12.612L16.0342 12.4382L15.9844 12.2888L15.9754 12.2596L15.9114 12.0853L15.9097 12.0806L15.8419 11.8976L15.8171 11.8413L15.7676 11.7152L15.7672 11.7143L15.6859 11.5291L15.6 11.3414L15.5136 11.1642H15.5128L15.5113 11.1595L15.5092 11.1532L15.4147 10.9663L15.3943 10.9323L15.3128 10.7761L15.2698 10.7015L15.2064 10.5861L15.2018 10.5784L15.0933 10.3983L15.0911 10.3948L15.0003 10.2477L14.9983 10.2445L14.9919 10.2341L14.978 10.2084L14.8562 10.0189L14.8544 10.0172L14.8536 10.0161L14.7292 9.83067L14.6003 9.64297L14.5392 9.55929L14.4653 9.45619L14.4645 9.45513L14.3718 9.33077L14.3265 9.26978L14.1818 9.08427L14.0367 8.90353L14.036 8.90265L14.0347 8.90108L13.8855 8.72013L13.885 8.71964L13.8333 8.66142L13.8311 8.65901L13.8304 8.65815L13.8212 8.64783L13.7324 8.54233L13.7316 8.54137L13.7308 8.54051L13.5733 8.36503L13.4375 8.21795L13.4125 8.18833L13.2475 8.01664L13.2318 8.00088L13.0802 7.84707L12.9115 7.68282L12.9105 7.68192L12.7974 7.5733L12.7387 7.51688L12.5709 7.36704L12.5687 7.36504L12.562 7.35834L12.3835 7.20016L12.3825 7.19932L12.2049 7.04867L12.2025 7.04671L12.0221 6.89975L12.0215 6.89932L11.8384 6.75464L11.6528 6.61435L11.651 6.61294L11.4673 6.47632L11.3069 6.3656L11.2802 6.34562L11.2796 6.3452L11.2706 6.33891L11.2803 6.33365L11.398 6.27029L11.5181 6.20912L11.5829 6.17669H11.5778L11.6088 6.16375L11.636 6.15242L11.7536 6.09591L11.8691 6.04379L11.9846 5.99173L12.0996 5.94435L12.2133 5.89661L12.3243 5.85359L12.3995 5.82597H12.3937L12.4349 5.81292L12.5464 5.77429L12.6552 5.74029L12.7616 5.70634L12.8682 5.67685L12.9722 5.64742L13.0697 5.6225L13.0705 5.62229H13.0735ZM14.6615 11.2787L14.7249 11.3986L14.786 11.5187L14.8427 11.6365L14.8965 11.7532L14.898 11.7545L14.9097 11.7661H14.9037L14.9514 11.8697L15.0013 11.9853L15.051 12.1007L15.0947 12.212H15.0954L15.0965 12.2166L15.1394 12.3272L15.1802 12.4405L15.1808 12.4424L15.2187 12.5514L15.2549 12.6601L15.2617 12.6805L15.2881 12.764L15.2889 12.7665L15.3183 12.8731L15.3274 12.9024L15.3478 12.9773L15.3717 13.0772C15.3738 13.0791 15.3744 13.082 15.3735 13.0845L15.3732 13.0852C15.373 13.0856 15.3727 13.086 15.3724 13.0864C15.3711 13.088 15.3698 13.0897 15.3684 13.0914L15.3398 13.128L15.2711 13.2103C15.1389 13.3703 15.0032 13.5278 14.8642 13.6829L14.8463 13.7032L14.8404 13.7092C14.7315 13.83 14.6207 13.9491 14.508 14.0665L14.4771 14.0993L14.4533 14.1232C14.2096 14.3745 13.9572 14.6177 13.6973 14.8517L13.697 14.8525L13.6959 14.8534L13.6633 14.8822C13.6218 14.9194 13.58 14.9564 13.5381 14.9931L13.5195 15.0094L13.5076 15.0202H13.5097L13.4946 15.032L13.4927 15.0338L13.4812 15.0426C13.437 15.081 13.3925 15.119 13.3478 15.1569L13.3112 15.1883L13.2991 15.198C13.2271 15.2584 13.1547 15.3182 13.0817 15.3771L13.0805 15.3783L13.0778 15.3807L13.0741 15.3798L13.0711 15.379L12.9731 15.3529L12.9724 15.3527L12.8682 15.3255L12.7618 15.2961L12.6552 15.2621L12.5827 15.2379L12.5465 15.2259L12.4356 15.1896L12.3245 15.1488L12.2113 15.1058L12.0992 15.0587L12.0979 15.0582L12.0381 15.0338L12.0368 15.0333L11.9851 15.0108L11.8706 14.9614L11.8692 14.9609L11.7514 14.9065L11.7506 14.9061L11.6418 14.8551L11.6401 14.8542L11.6362 14.8517L11.6332 14.8496L11.516 14.7933L11.3981 14.7321L11.2804 14.671L11.2767 14.6691V14.665V14.6627L11.2767 14.6593L11.2796 14.6572L11.5 14.4998L11.513 14.4905L11.5172 14.4875L11.748 14.316L11.7547 14.311L11.7553 14.3106L11.9898 14.1279L12.2229 13.9378L12.4514 13.7411L12.6774 13.5399L12.7295 13.4901L12.897 13.3317L12.9328 13.2959L12.9429 13.2857L12.9444 13.2843L12.9464 13.2823L13.1074 13.1257L13.1141 13.1191L13.2433 12.9858L13.2544 12.9744L13.2563 12.9723L13.3268 12.8997L13.3538 12.8704L13.4511 12.7641L13.5327 12.6779L13.7338 12.452L13.7451 12.4384L13.8425 12.3252L13.9289 12.2255L13.9373 12.2145L13.9393 12.212L14.0302 12.0991L14.1207 11.9904L14.1249 11.9842L14.2157 11.8684L14.2976 11.7634L14.3039 11.7552L14.4803 11.5178L14.65 11.2779L14.6564 11.2689L14.6615 11.2787ZM5.74947 3.12902C6.59167 2.93677 7.57959 2.97906 8.64694 3.26149L8.66826 3.26659H8.66616C8.93016 3.33709 9.19899 3.42222 9.47164 3.52214L9.52529 3.54197L9.5265 3.54258C9.52756 3.54324 9.52837 3.54419 9.52891 3.54526L9.53669 3.54808L9.52744 3.55331C9.52669 3.55399 9.52581 3.55449 9.52484 3.55478L9.52389 3.55535L9.33208 3.66439L9.292 3.68722L9.06238 3.82451L8.93203 3.90375L8.75925 4.01224L8.67102 4.06885L8.5781 4.12856L8.48293 4.19234L8.39052 4.25432L8.21904 4.37388L8.2173 4.37567L8.21642 4.3764L8.08846 4.46681L8.06473 4.48402L8.05986 4.48753L7.94267 4.57241L7.92008 4.58905L7.87935 4.61981H7.88029L7.86378 4.63178L7.86192 4.63339L7.85482 4.63832L7.81641 4.66733V4.66923L7.81271 4.6711L7.80887 4.67299L7.79861 4.68076L7.78998 4.68769H7.79356L7.77529 4.69988L7.77361 4.70128L7.76984 4.70353L7.75809 4.71137L7.72089 4.73944L7.71232 4.74706L7.70997 4.74915L7.70892 4.749L7.70633 4.7503L7.70449 4.75124L7.70245 4.75097L7.69194 4.74967L7.68433 4.74873L7.58249 4.73064L7.5247 4.72268L7.46712 4.71479L7.35171 4.70124L7.2391 4.68996L7.13066 4.68093L7.07762 4.67759L7.02166 4.6741L6.91782 4.67184H6.85896L6.81638 4.66959L6.79651 4.67179L6.71687 4.67184L6.61974 4.67633L6.52467 4.68318L6.43443 4.69216L6.34647 4.70343L6.26276 4.71702L6.18169 4.73052L6.11155 4.74652L6.10251 4.74861L6.02793 4.76671L5.95704 4.78661L5.95576 4.78697L5.92013 4.79732L5.88565 4.80735L5.82058 4.82975L5.75748 4.85454L5.69639 4.88172L5.63765 4.90883L5.58142 4.93803L5.52728 4.96736L5.47552 4.99889L5.42589 5.03274L5.37919 5.06606L5.34014 5.09728L5.28839 5.1387L5.20756 5.21502L5.13079 5.29626L5.05848 5.38667L5.02475 5.43389L4.99113 5.48308L4.97543 5.51236L4.96253 5.53375L4.96175 5.53511L4.93019 5.58921L4.90092 5.64549L4.89145 5.66755L4.88759 5.6766L4.88723 5.67738L4.87379 5.70423L4.849 5.76506L4.82425 5.82811L4.81897 5.84391L4.81749 5.84843L4.79933 5.89605L4.77907 5.96578L4.77802 5.96965L4.76326 6.02239L4.75872 6.03819L4.7384 6.11266L4.72424 6.18348L4.7229 6.19029L4.72263 6.19153L4.70723 6.27279L4.70679 6.27522L4.69326 6.36105L4.69211 6.37256L4.69106 6.38328L4.69044 6.38939L4.68195 6.44696L4.67296 6.53906L4.67297 6.56821L4.66842 6.63186L4.66392 6.72916L4.66166 6.82859V6.93013L4.66392 7.03643L4.67031 7.1362L4.67071 7.14243L4.67852 7.23865L4.67973 7.25319L4.6888 7.3437L4.69091 7.36502L4.69104 7.36632L4.70459 7.47913L4.72266 7.59669L4.74303 7.71664L4.74351 7.71948L4.7418 7.72178L4.71691 7.75573L4.57633 7.94088L4.57437 7.9435L4.41369 8.16527L4.25779 8.38887L4.2562 8.39211L4.13543 8.57015L4.10438 8.61447L4.10375 8.61545L4.10197 8.61816L4.01105 8.76013L3.95681 8.84145L3.8889 8.95234L3.8143 9.06991L3.81361 9.07113L3.77135 9.14452L3.67933 9.29929L3.67855 9.30064L3.65822 9.33682L3.58126 9.47262L3.54848 9.5294C3.54818 9.53082 3.54746 9.53212 3.54638 9.53307L3.54018 9.54383L3.53508 9.53055L3.51246 9.47169L3.4649 9.33588L3.45131 9.29966L3.3992 9.14329L3.38484 9.09588C3.37843 9.07588 3.3721 9.05589 3.36585 9.03593L3.33806 8.9509L3.3063 8.83979L3.28368 8.7583L3.24294 8.61345L3.23157 8.568L3.1886 8.38698L3.18631 8.37793L3.141 8.16724L3.14086 8.16654V8.16189L3.13945 8.15451C3.1297 8.10548 3.12048 8.05662 3.11179 8.008L3.10257 7.95928L3.09805 7.94118L3.06852 7.75276L3.06642 7.72205C3.0614 7.6857 3.05671 7.64945 3.05231 7.61335L3.05039 7.59871L3.04439 7.55257L3.04357 7.54649L3.04348 7.5457L3.0426 7.539L3.03678 7.48086L3.02609 7.37379L3.02542 7.36767L3.02382 7.35119L3.02317 7.34473L3.0225 7.3376L3.01952 7.27211C3.01684 7.23368 3.01454 7.19541 3.01259 7.15731L3.012 7.14822L2.99999 7.1362H3.00946L3.00734 7.03682L3.00507 6.95082V6.91589C3.00463 6.87485 3.00463 6.83403 3.00507 6.79342V6.7287L3.00767 6.67294C3.00866 6.64247 3.00986 6.61213 3.01135 6.58192L3.01185 6.56821L3.01183 6.53879L3.01866 6.44551L3.02267 6.38939L3.02313 6.38284L3.02319 6.38214L3.02546 6.35933L3.03452 6.27329L3.04355 6.19886V6.1897L3.05422 6.12744C3.05594 6.11523 3.05771 6.10303 3.05953 6.09086L3.06533 6.04318L3.06625 6.03543L3.0685 6.01961L3.07988 5.96265L3.09345 5.89255L3.1025 5.84503L3.10704 5.82455L3.12063 5.76117L3.13239 5.70828L3.13422 5.69983L3.14105 5.67269L3.15016 5.64079L3.15424 5.62623C3.15978 5.60506 3.16544 5.58398 3.17129 5.563L3.17742 5.53856L3.17959 5.52979L3.18081 5.52498L3.18641 5.50718L3.19276 5.48651L3.19517 5.47863L3.19545 5.47773L3.19692 5.47294L3.21132 5.42786L3.21614 5.41339C3.22018 5.40078 3.22432 5.38823 3.22848 5.3757L3.23615 5.34889L3.25663 5.28969L3.2883 5.20824L3.29284 5.19471L3.3062 5.16345C3.31778 5.13453 3.32966 5.10581 3.34191 5.07735L3.34944 5.0588L3.35396 5.04534L3.35446 5.0442L3.36432 5.0264C3.36532 5.02415 3.36635 5.0219 3.36736 5.01967L3.37526 4.99998H3.37427L3.37919 4.99017L3.38068 4.9864L3.39494 4.95867L3.40851 4.92927L3.41764 4.90946H3.41638L3.42237 4.89925L3.43693 4.87433C3.44017 4.86795 3.44341 4.86155 3.44669 4.85518L3.45161 4.84534L3.45348 4.84157L3.4569 4.83561C3.46118 4.82743 3.4655 4.81926 3.46984 4.81112L3.4765 4.79782L3.47839 4.79407L3.48782 4.77744L3.49689 4.75934L3.49738 4.75836L3.49813 4.75761L3.49981 4.75589L3.50073 4.75444C3.50636 4.74437 3.51205 4.73431 3.51777 4.7243L3.51949 4.72087L3.51991 4.72014L3.52157 4.71762C3.52428 4.7129 3.52707 4.70824 3.5298 4.70353L3.53558 4.69324L3.53726 4.68996L3.54089 4.68444L3.54165 4.6832H3.54008L3.54671 4.67319L3.55096 4.6668L3.55146 4.66607L3.55348 4.66201L3.55499 4.65898V4.65603L3.55784 4.656L3.57057 4.63339L3.57631 4.62309L3.57685 4.62216L3.57818 4.61981L3.58313 4.61179L3.65854 4.4976H3.65702L3.6645 4.48742L3.6662 4.48404L3.66702 4.48402L3.75322 4.36685L3.75387 4.36607L3.75603 4.3639L3.76502 4.35256C3.78381 4.32814 3.80294 4.30398 3.82241 4.28013L3.85068 4.24446L3.87987 4.21168C3.90017 4.18819 3.92084 4.165 3.94183 4.1421L3.96181 4.11971L3.9749 4.10661C3.99521 4.08512 4.01583 4.06387 4.03677 4.04293C4.04445 4.03526 4.05217 4.02762 4.05992 4.02004L4.07742 4.00185L4.10512 3.97669C4.13194 3.95144 4.15918 3.92669 4.18683 3.90242H4.18575L4.19932 3.89115L4.21009 3.88214C4.24444 3.85258 4.27945 3.8238 4.31503 3.79574L4.32921 3.78408L4.34576 3.77179C4.46679 3.6787 4.59471 3.59409 4.72903 3.51798L4.751 3.50511L4.76485 3.49797C4.80836 3.47401 4.85254 3.45091 4.89736 3.4287L4.90286 3.42576L4.91048 3.42223C4.95644 3.3997 5.00309 3.3781 5.05037 3.3574L5.05935 3.35322L5.06616 3.35047C5.1355 3.32052 5.20627 3.29259 5.27835 3.26659H5.27616L5.31138 3.25483C5.37818 3.23142 5.44612 3.2097 5.51515 3.18966H5.5096L5.55496 3.1783C5.6128 3.16214 5.67138 3.14713 5.7307 3.13331L5.73943 3.13102L5.74947 3.12902Z" fill="var(--fill-0, black)"/>
</g>
</svg>
