<svg width="490" height="486" viewBox="0 0 490 486" fill="none" xmlns="http://www.w3.org/2000/svg">
<path opacity="0.1" d="M194.913 484.6C109.079 484.6 61.098 443.566 35.9567 409.146C-1.21644 358.253 -9.39297 291.725 12.9225 221.816C13.6217 219.611 14.4569 217.222 15.3988 214.755C30.9167 174.838 56.9418 140.583 90.6676 115.661C112.303 99.6746 137.687 87.3886 164.334 79.9879C180.308 56.5231 203.721 38.5943 230.746 29.2414L281.427 10.2345C297.237 3.93128 314.609 0.599976 331.691 0.599976C382.857 0.599976 430.052 30.164 451.989 75.9281C466.665 104.547 474.097 119.047 474.285 119.429C495.114 161.095 493.114 209.355 468.924 248.495C458.262 265.764 442.812 281.012 425.158 291.793C420.38 302.835 414.233 316.714 407.202 331.292C384.158 380.106 360.551 412.953 330.69 437.7C292.08 469.701 248.935 484.6 194.923 484.6H194.913Z" stroke="#D0EC1A" stroke-width="1.2" stroke-miterlimit="10"/>
<path opacity="0.2" d="M194.914 472.945C113.975 472.945 68.9162 434.514 45.3674 402.269C10.4472 354.466 2.87277 291.637 24.023 225.361C24.6542 223.35 25.4213 221.184 26.2759 218.941C40.9878 181.102 65.6437 148.653 97.5923 125.033C119.296 108.998 144.797 96.9746 171.638 90.0983C186.262 66.8569 208.471 49.2389 234.69 40.2065L285.623 21.1025C300.102 15.314 316.018 12.2546 331.672 12.2546C378.449 12.2546 421.546 39.2741 441.531 81.095C456.233 109.766 463.668 124.269 463.837 124.606C482.86 162.649 481.054 206.674 459.001 242.357C448.591 259.208 433.413 273.747 415.953 283.673C410.485 296.357 404.028 311.013 396.696 326.222C374.39 373.482 351.725 405.115 323.243 428.716C286.837 458.892 246.061 472.945 194.914 472.945Z" stroke="#D0EC1A" stroke-width="1.2" stroke-miterlimit="10"/>
<path opacity="0.3" d="M194.913 461.291C118.867 461.291 76.7318 425.452 54.7755 395.393C22.1083 350.668 15.1262 291.54 35.1208 228.906C35.6937 227.099 36.3735 225.137 37.1504 223.117C51.0466 187.366 74.3332 156.715 104.514 134.406C126.325 118.293 152.01 106.551 179.113 100.267C192.291 77.2101 213.227 59.8932 238.631 51.1716L289.836 31.9705C302.985 26.6967 317.444 23.9093 331.68 23.9093C374.058 23.9093 413.057 48.3842 431.09 86.2716C445.825 115.007 453.263 129.52 453.406 129.812C470.613 164.222 469.001 204.023 449.094 236.248C438.966 252.642 424.079 266.405 406.842 275.388C400.618 289.899 393.83 305.37 386.207 321.182C364.639 366.878 342.916 397.306 315.813 419.761C281.611 448.101 243.195 461.31 194.913 461.31V461.291Z" stroke="#D0EC1A" stroke-width="1.2" stroke-miterlimit="10"/>
<path opacity="0.4" d="M194.914 449.636C123.753 449.636 84.55 416.401 64.1864 388.517C33.772 346.88 27.392 291.453 46.2213 232.441C46.7263 230.829 47.3478 229.081 48.0275 227.284C61.1178 193.621 83.0351 164.756 111.439 143.768C133.415 127.529 159.362 116.098 186.834 110.504C198.274 87.8742 218.278 70.431 242.565 62.1368L294.052 42.8288C305.86 38.0698 318.863 35.5641 331.672 35.5641C369.66 35.5641 404.551 57.4846 420.633 91.4289C442.783 134.619 442.832 134.716 442.958 134.988C458.35 165.786 456.941 201.352 439.171 230.11C429.353 246.009 414.787 258.907 397.812 266.832C391.112 282.517 383.887 299.125 375.701 316.093C354.861 360.225 334.09 389.449 308.375 410.768C276.378 437.282 240.331 449.636 194.914 449.636Z" stroke="#D0EC1A" stroke-width="1.2" stroke-miterlimit="10"/>
<path opacity="0.5" d="M194.914 437.981C128.647 437.981 92.3677 407.349 73.5966 381.65C45.4352 343.093 39.6572 291.365 57.3213 235.996C57.768 234.578 58.3118 233.043 58.9041 231.48C71.1786 199.905 91.7365 172.837 118.364 153.16C140.582 136.737 166.898 125.655 194.866 120.876C204.324 98.5966 223.173 81.0368 246.488 73.1311L298.286 53.7066C308.764 49.472 320.301 47.2285 331.682 47.2285C365.262 47.2285 396.055 66.5947 410.184 96.5861C424.996 125.47 432.445 140 432.529 140.175C446.114 167.34 444.9 198.691 429.266 223.991C419.798 239.327 405.601 251.254 388.917 258.013C381.916 274.446 374.07 292.676 365.213 311.042C345.112 353.621 325.282 381.64 300.947 401.803C271.164 426.492 237.467 437.991 194.924 437.991L194.914 437.981Z" stroke="#D0EC1A" stroke-width="1.2" stroke-miterlimit="10"/>
<path opacity="0.6" d="M194.914 426.326C133.541 426.326 100.184 398.287 83.006 374.774C57.0975 339.295 51.9119 291.268 68.4203 239.541C68.8087 238.307 69.2749 236.986 69.7798 235.656C81.2483 206.169 100.437 180.898 125.287 162.532C147.865 145.847 174.715 135.153 203.372 131.375C210.5 109.377 227.892 91.6814 250.401 84.1058L302.52 64.5551C311.657 60.8353 321.737 58.8734 331.681 58.8734C360.862 58.8734 387.538 75.6853 399.725 101.714C421.973 145.108 422.041 145.244 422.089 145.332C433.878 168.903 432.859 196.02 419.36 217.853C410.281 232.548 396.521 243.377 380.167 248.816C372.321 267.25 364.203 286.305 354.715 305.972C335.352 346.987 316.464 373.803 293.508 392.819C265.929 415.672 234.602 426.326 194.914 426.326Z" stroke="#D0EC1A" stroke-width="1.2" stroke-miterlimit="10"/>
<path opacity="0.7" d="M194.915 414.672C138.436 414.672 108.003 389.235 92.4166 367.898C68.7513 335.507 64.1775 291.171 79.5303 243.086C79.8508 242.056 80.2392 240.959 80.6665 239.842C102.419 183.919 152.41 147.187 212.627 142.088C216.822 120.488 232.564 102.336 254.306 95.0904L306.774 75.4134C314.562 72.2181 323.175 70.5378 331.682 70.5378C356.445 70.5378 379.013 84.7857 389.258 106.852C389.258 106.852 411.583 150.382 411.661 150.538C421.634 170.487 420.808 193.359 409.456 211.734C400.93 225.536 387.374 235.296 371.623 239.181C371.069 240.473 369.807 243.464 369.719 243.639C361.834 262.16 353.687 281.313 344.229 300.912C325.603 340.363 307.657 365.975 286.08 383.855C260.706 404.882 231.738 414.682 194.924 414.682L194.915 414.672Z" stroke="#D0EC1A" stroke-width="1.2" stroke-miterlimit="10"/>
<path opacity="0.8" d="M194.913 403.017C143.329 403.017 115.818 380.184 101.825 361.021C80.4124 331.71 76.4407 291.083 90.6282 246.621C90.8904 245.795 91.2011 244.911 91.541 244.018C112.876 189.153 163.071 154.646 223.162 153.189C223.375 131.783 237.378 112.932 258.179 106.085L311.026 86.2619C317.474 83.6008 324.601 82.1925 331.671 82.1925C352.015 82.1925 370.466 93.8666 378.768 111.951C393.691 141.055 401.178 155.656 401.229 155.753C409.387 172.06 408.746 190.698 399.53 205.606C391.577 218.475 378.37 226.866 363.318 228.915C361.959 232.091 360.59 235.316 359.191 238.608C359.143 238.744 359.084 238.87 359.026 238.997C351.17 257.45 343.052 276.525 333.729 295.852C315.832 333.769 298.838 358.147 278.65 374.881C255.479 394.082 228.881 403.027 194.923 403.027L194.913 403.017Z" stroke="#D0EC1A" stroke-width="1.2" stroke-miterlimit="10"/>
<path opacity="0.9" d="M194.914 391.362C148.225 391.362 123.637 371.122 111.236 354.145C92.0765 327.912 88.6971 290.986 101.729 250.166C101.933 249.525 102.166 248.855 102.419 248.194C122.433 196.729 170.22 164.785 227.164 164.785C229.883 164.785 233.058 164.785 236.535 164.931C235.409 161.328 234.816 157.54 234.816 153.675C234.816 137.008 245.741 122.343 262.036 117.079L315.319 97.0911C320.408 94.9544 326.059 93.8375 331.682 93.8375C347.598 93.8375 361.921 102.928 368.282 117.021C390.724 160.794 390.782 160.901 390.811 160.959C397.152 173.643 396.696 188.017 389.626 199.468C382.557 210.899 370.03 217.737 356.095 217.737C355.872 217.737 355.658 217.737 355.435 217.737C353.123 223.098 350.812 228.537 348.404 234.199L348.355 234.315C340.528 252.701 332.439 271.708 323.214 290.841C306.074 327.165 290.032 350.319 271.212 365.916C250.247 383.292 226.008 391.382 194.924 391.382L194.914 391.362Z" stroke="#D0EC1A" stroke-width="1.2" stroke-miterlimit="10"/>
<path opacity="0.95" d="M194.914 379.708C153.109 379.708 131.454 362.07 120.646 347.269C103.739 324.125 100.962 290.899 112.829 253.711C112.965 253.274 113.13 252.827 113.295 252.39C131.512 205.528 175.143 176.44 227.164 176.44C235.078 176.44 245.916 176.44 256.413 179.937C256.491 179.966 256.578 179.995 256.656 180.014C257.248 178.577 257.831 177.139 258.423 175.712C251.043 170.778 246.469 162.678 246.469 153.675C246.469 141.962 254.238 131.735 265.852 128.093L319.631 107.92C323.35 106.327 327.506 105.492 331.682 105.492C343.16 105.492 353.337 111.98 357.765 122.052C372.843 151.46 380.392 166.184 380.411 166.223C384.917 175.236 384.645 185.346 379.702 193.33C374.779 201.303 365.942 206.072 356.085 206.072C353.473 206.072 350.822 205.742 348.21 205.091C344.704 213.104 341.247 221.223 337.654 229.673C329.856 247.99 321.816 266.881 312.688 285.81C296.305 320.531 281.215 342.471 263.764 356.923C245.013 372.462 223.134 379.708 194.914 379.708Z" stroke="#D0EC1A" stroke-width="1.2" stroke-miterlimit="10"/>
<path d="M194.913 368.053C158.002 368.053 139.27 353.009 130.054 340.393C115.4 320.327 113.225 290.802 123.936 257.256C124.014 257.023 124.092 256.799 124.179 256.576C140.6 214.337 180.065 188.105 227.172 188.105C234.688 188.105 244.03 188.105 252.741 191.009C257.315 192.533 260.374 196.661 260.684 201.284C265.015 190.406 269.385 179.529 273.619 169.651L269.735 168.262C262.772 166.242 258.14 160.464 258.14 153.684C258.14 146.944 262.724 141.194 269.628 139.135L324.018 118.74C326.359 117.7 329 117.157 331.69 117.157C338.74 117.157 344.712 120.993 347.227 127.024C347.227 127.024 370.019 171.467 370.038 171.506C372.728 176.897 372.65 182.617 369.815 187.211C367.028 191.727 361.901 194.427 356.103 194.427C354.443 194.427 352.733 194.214 351.034 193.786C350.82 193.728 350.597 193.67 350.383 193.602L341.77 190.911C336.749 202.08 331.962 213.347 326.951 225.118C319.221 243.29 311.22 262.092 302.189 280.788C286.564 313.917 272.425 334.633 256.353 347.949C239.806 361.662 220.287 368.053 194.932 368.053H194.913Z" stroke="#D0EC1A" stroke-width="1.2" stroke-miterlimit="10"/>
<path d="M194.913 356.398C238.68 356.398 262.86 336.818 291.653 275.777C307.773 242.377 320.445 208.976 335.419 176.722L353.841 182.481C358.444 183.637 361.901 181.325 359.599 176.722L336.565 131.803C335.419 128.345 330.807 128.345 328.505 129.501L273.231 150.237C268.628 151.392 268.628 155.996 273.231 157.152L289.351 162.911C275.533 192.854 259.413 238.929 245.584 267.726C230.61 299.98 223.706 321.862 197.215 321.862C170.724 321.862 167.276 302.282 178.793 273.485C191.466 240.085 212.189 230.868 235.223 237.783C242.137 228.566 246.74 214.745 249.041 202.081C242.127 199.779 234.067 199.779 227.163 199.779C189.155 199.779 151.156 219.359 135.036 260.82C117.761 314.956 136.192 356.418 194.923 356.418L194.913 356.398Z" stroke="#D0EC1A" stroke-width="1.2" stroke-miterlimit="10"/>
</svg>
