<svg preserveAspectRatio="none" width="100%" height="100%" overflow="visible" style="display: block;" viewBox="0 0 20 20" fill="none" xmlns="http://www.w3.org/2000/svg">
<g id="Frame">
<path id="Vector" d="M2.97439 2.69016L11.8468 2.02562C12.9238 1.92338 13.2058 2.00006 13.8982 2.48568L16.7445 4.47929C17.2061 4.81156 17.36 4.9138 17.36 5.29718V16.2109C17.36 16.901 17.1035 17.31 16.2317 17.3611L5.92331 17.9745C5.2566 18.0001 4.94889 17.9234 4.61553 17.4889L2.53847 14.8052C2.15383 14.294 1.99997 13.9362 1.99997 13.5017V3.7892C1.99997 3.2269 2.2564 2.74127 2.97439 2.69016Z" fill="var(--fill-0, white)"/>
<path id="Vector_2" fill-rule="evenodd" clip-rule="evenodd" d="M11.8468 2.02564L2.97438 2.69018C2.25638 2.7413 1.99996 3.22692 1.99996 3.78922V13.5017C1.99996 13.9362 2.15381 14.3196 2.53845 14.8052L4.61551 17.5145C4.94887 17.949 5.28223 18.0512 5.92329 18.0001L16.2317 17.3867C17.1035 17.3355 17.36 16.9266 17.36 16.2365V5.29721C17.36 4.93938 17.2317 4.83714 16.7958 4.53043C16.7702 4.50487 16.7445 4.50487 16.7189 4.47932L13.8982 2.51126C13.2315 2.00008 12.9494 1.94896 11.8468 2.02564ZM6.15408 5.11829C5.30787 5.16941 5.12837 5.19497 4.64116 4.78602L3.43595 3.84034C3.30774 3.71254 3.35902 3.55919 3.69238 3.53363L12.2314 2.92021C12.9494 2.86909 13.3084 3.09912 13.5905 3.32916L15.0521 4.37708C15.129 4.40264 15.2829 4.58155 15.0778 4.58155L6.25665 5.11829H6.15408ZM5.17966 16.1343V6.85631C5.17966 6.44737 5.30787 6.26845 5.66687 6.24289L15.7957 5.65503C16.1291 5.62948 16.283 5.83395 16.283 6.24289V15.4442C16.283 15.8531 16.206 16.1854 15.6675 16.2109L5.97458 16.7732C5.43608 16.8244 5.17966 16.6199 5.17966 16.1343ZM14.7444 7.36749C14.7957 7.64864 14.7444 7.92979 14.4623 7.95535L14.0008 8.05759V14.9074C13.5905 15.1375 13.2315 15.2397 12.9238 15.2397C12.4365 15.2397 12.3083 15.0863 11.9237 14.6263L8.84657 9.82117V14.4474L9.82099 14.6774C9.82099 14.6774 9.82099 15.2397 9.05171 15.2397L6.89772 15.3675C6.84643 15.2397 6.89772 14.933 7.10286 14.8819L7.667 14.7285V8.59433L6.89772 8.51765C6.84643 8.2365 7.00029 7.82756 7.43622 7.802L9.74406 7.64864L12.9238 12.5049V8.21094L12.1032 8.10871C12.0519 7.77644 12.2827 7.52085 12.5904 7.49529L14.7444 7.36749Z" fill="var(--fill-0, black)"/>
</g>
</svg>
