<svg preserveAspectRatio="none" width="100%" height="100%" overflow="visible" style="display: block;" viewBox="0 0 20 20" fill="none" xmlns="http://www.w3.org/2000/svg">
<g id="Frame">
<path id="Vector" d="M2.12015 6.03019C2.12015 3.85045 3.88989 2.08003 6.07031 2.08003H13.97C16.1504 2.08003 17.9202 3.84977 17.9202 6.03019V13.9299C17.9202 16.1103 16.1504 17.88 13.97 17.88H6.07031C3.88989 17.88 2.12015 16.1103 2.12015 13.9299V6.03019Z" fill="var(--fill-0, #FFDD33)"/>
<path id="Vector_2" fill-rule="evenodd" clip-rule="evenodd" d="M12.6231 5.094H11.1898L12.3853 7.19403L9.75639 5.094H8.32303L9.63751 7.65875L6.88967 5.094H5.45632L6.88967 8.36127L5.45632 14.8951H6.88967L9.63751 7.89587L8.32303 14.8951H9.75639L12.3853 7.42775L11.1898 14.8951H12.6231L15.252 6.72931L12.6231 5.09737V5.094Z" fill="var(--fill-0, #1C1C1E)"/>
</g>
</svg>
