<svg preserveAspectRatio="none" width="100%" height="100%" overflow="visible" style="display: block;" viewBox="0 0 20 20" fill="none" xmlns="http://www.w3.org/2000/svg">
<g id="Frame">
<path id="Vector" d="M9.46139 2.18865C10.1057 1.93712 10.8204 1.93712 11.4647 2.18865C12.1887 2.47147 12.9028 2.8004 13.6043 3.17592C13.7499 3.25404 13.7275 3.47098 13.5715 3.52556C9.73533 4.87471 6.98417 8.54429 6.98417 12.86C6.98417 14.2039 7.25109 15.4858 7.73483 16.6542C7.8032 16.819 7.63134 16.9874 7.47352 16.9046C6.32646 16.3037 5.24078 15.5913 4.23206 14.7776C3.69312 14.3426 3.33578 13.7206 3.23041 13.0341C3.07662 12.0302 2.9996 11.016 3.00001 10.0003C3.00001 8.96828 3.07868 7.95512 3.23041 6.96644C3.3359 6.27985 3.69342 5.65784 4.23253 5.22294C5.02059 4.58713 5.85595 4.01291 6.73129 3.50533C7.60653 2.99701 8.51923 2.55683 9.46139 2.18865Z" fill="var(--fill-0, #00B96C)"/>
<path id="Vector_2" d="M16.694 5.22336C16.6041 5.15072 16.5136 5.07888 16.4224 5.00783C16.3268 4.93252 16.2164 4.87829 16.0986 4.8487C15.9807 4.81911 15.8579 4.8148 15.7383 4.83607C11.5705 5.60076 8.41104 9.26845 8.41104 13.6773C8.41104 15.0476 8.71589 16.3464 9.26191 17.5088C9.3462 17.6885 9.5026 17.8231 9.68945 17.889C10.2736 18.06 10.8976 18.0327 11.4647 17.8113C12.3933 17.449 13.3055 17.0114 14.1948 16.4951C15.0703 15.9876 15.9058 15.4134 16.694 14.7775C17.2329 14.3427 17.5902 13.7208 17.6957 13.0345C17.8474 12.0453 17.9261 11.0322 17.9261 10.0007C17.9261 8.96869 17.8474 7.95554 17.6957 6.96685C17.5903 6.28033 17.233 5.65834 16.694 5.22336Z" fill="var(--fill-0, #00B96C)"/>
</g>
</svg>
