<svg width="336" height="320" viewBox="0 0 336 320" fill="none" xmlns="http://www.w3.org/2000/svg" xmlns:xlink="http://www.w3.org/1999/xlink">
<g clip-path="url(#clip0_3905_18023)">
<path d="M73.0232 52.799L-4.97683 8.22752C-6.84628 7.15926 -8 5.1712 -8 3.01807V-14.0181C-8 -16.1712 -6.84628 -18.1593 -4.97684 -19.2275L73.0232 -63.799C74.8678 -64.853 77.1322 -64.853 78.9768 -63.799L156.977 -19.2275C158.846 -18.1593 160 -16.1712 160 -14.0181V3.01807C160 5.1712 158.846 7.15926 156.977 8.22752L78.9768 52.799C77.1322 53.853 74.8678 53.853 73.0232 52.799Z" fill="white" stroke="#D9D9D7" stroke-width="3"/>
<path d="M77.5078 -55.6234L140.41 -19.0539C142.428 -17.8808 142.393 -14.954 140.347 -13.8307L77.4439 20.7072C76.5446 21.201 75.4554 21.201 74.5561 20.7072L11.6534 -13.8307C9.60747 -14.954 9.57164 -17.8808 11.5895 -19.0539L74.4922 -55.6234C75.4244 -56.1653 76.5756 -56.1653 77.5078 -55.6234Z" fill="url(#pattern0_3905_18023)" stroke="#D9D9D7" stroke-width="1.5"/>
<path d="M-6.5 -16L76 30.5M76 30.5L158.5 -16M76 30.5V54.5" stroke="#D9D9D7" stroke-width="1.5"/>
<path d="M-19.9768 109.799L-97.9768 65.2275C-99.8463 64.1593 -101 62.1712 -101 60.0181V42.9819C-101 40.8288 -99.8463 38.8407 -97.9768 37.7725L-19.9768 -6.79895C-18.1322 -7.85301 -15.8678 -7.85301 -14.0232 -6.79895L63.9768 37.7725C65.8463 38.8407 67 40.8288 67 42.9819V60.0181C67 62.1712 65.8463 64.1593 63.9768 65.2275L-14.0232 109.799C-15.8678 110.853 -18.1322 110.853 -19.9768 109.799Z" fill="white" stroke="#D9D9D7" stroke-width="3"/>
<path d="M-15.4922 1.37659L47.4105 37.9461C49.4284 39.1192 49.3925 42.046 47.3466 43.1693L-15.5561 77.7072C-16.4554 78.201 -17.5446 78.201 -18.4439 77.7072L-81.3466 43.1693C-83.3925 42.046 -83.4284 39.1192 -81.4105 37.9461L-18.5078 1.37659C-17.5756 0.83466 -16.4244 0.834662 -15.4922 1.37659Z" fill="url(#pattern1_3905_18023)" stroke="#D9D9D7" stroke-width="1.5"/>
<path d="M-99.5 41L-17 87.5M-17 87.5L65.5 41M-17 87.5V111.5" stroke="#D9D9D7" stroke-width="1.5"/>
<path d="M259.023 52.299L181.023 7.72752C179.154 6.65926 178 4.6712 178 2.51807V-14.5181C178 -16.6712 179.154 -18.6593 181.023 -19.7275L259.023 -64.299C260.868 -65.353 263.132 -65.353 264.977 -64.299L342.977 -19.7275C344.846 -18.6593 346 -16.6712 346 -14.5181V2.51807C346 4.6712 344.846 6.65926 342.977 7.72752L264.977 52.299C263.132 53.353 260.868 53.353 259.023 52.299Z" fill="white" stroke="#D9D9D7" stroke-width="3"/>
<path d="M263.508 -56.1234L326.41 -19.5539C328.428 -18.3808 328.393 -15.454 326.347 -14.3307L263.444 20.2072C262.545 20.701 261.455 20.701 260.556 20.2072L197.653 -14.3307C195.607 -15.454 195.572 -18.3808 197.589 -19.5539L260.492 -56.1234C261.424 -56.6653 262.576 -56.6653 263.508 -56.1234Z" fill="url(#pattern2_3905_18023)" stroke="#D9D9D7" stroke-width="1.5"/>
<path d="M179.5 -16.5L262 30M262 30L344.5 -16.5M262 30V54" stroke="#D9D9D7" stroke-width="1.5"/>
<path d="M352.023 106.299L274.023 61.7275C272.154 60.6593 271 58.6712 271 56.5181V39.4819C271 37.3288 272.154 35.3407 274.023 34.2725L352.023 -10.299C353.868 -11.353 356.132 -11.353 357.977 -10.299L435.977 34.2725C437.846 35.3407 439 37.3288 439 39.4819V56.5181C439 58.6712 437.846 60.6593 435.977 61.7275L357.977 106.299C356.132 107.353 353.868 107.353 352.023 106.299Z" fill="white" stroke="#D9D9D7" stroke-width="3"/>
<path d="M356.508 -2.12341L419.41 34.4461C421.428 35.6192 421.393 38.546 419.347 39.6693L356.444 74.2072C355.545 74.701 354.455 74.701 353.556 74.2072L290.653 39.6693C288.607 38.546 288.572 35.6192 290.589 34.4461L353.492 -2.12341C354.424 -2.66534 355.576 -2.66534 356.508 -2.12341Z" fill="url(#pattern3_3905_18023)" stroke="#D9D9D7" stroke-width="1.5"/>
<path d="M272.5 37.5L355 84M355 84L437.5 37.5M355 84V108" stroke="#D9D9D7" stroke-width="1.5"/>
<path d="M165.023 107.799L87.0232 63.2275C85.1537 62.1593 84 60.1712 84 58.0181V40.9819C84 38.8288 85.1537 36.8407 87.0232 35.7725L165.023 -8.79895C166.868 -9.85301 169.132 -9.85301 170.977 -8.79895L248.977 35.7725C250.846 36.8407 252 38.8288 252 40.9819V58.0181C252 60.1712 250.846 62.1593 248.977 63.2275L170.977 107.799C169.132 108.853 166.868 108.853 165.023 107.799Z" fill="white" stroke="#131310" stroke-width="3"/>
<path d="M169.508 -0.62341L232.41 35.9461C234.428 37.1192 234.393 40.046 232.347 41.1693L169.444 75.7072C168.545 76.201 167.455 76.201 166.556 75.7072L103.653 41.1693C101.607 40.046 101.572 37.1192 103.589 35.9461L166.492 -0.623412C167.424 -1.16534 168.576 -1.16534 169.508 -0.62341Z" stroke="#131310" stroke-width="1.5"/>
<path d="M85.5 39L168 85.5M168 85.5L250.5 39M168 85.5V109.5" stroke="#131310" stroke-width="1.5"/>
<path d="M165.023 107.799L87.0232 63.2275C85.1537 62.1593 84 60.1712 84 58.0181V40.9819C84 38.8288 85.1537 36.8407 87.0232 35.7725L165.023 -8.79895C166.868 -9.85301 169.132 -9.85301 170.977 -8.79895L248.977 35.7725C250.846 36.8407 252 38.8288 252 40.9819V58.0181C252 60.1712 250.846 62.1593 248.977 63.2275L170.977 107.799C169.132 108.853 166.868 108.853 165.023 107.799Z" fill="white" stroke="#D9D9D7" stroke-width="3"/>
<path d="M169.508 -0.62341L232.41 35.9461C234.428 37.1192 234.393 40.046 232.347 41.1693L169.444 75.7072C168.545 76.201 167.455 76.201 166.556 75.7072L103.653 41.1693C101.607 40.046 101.572 37.1192 103.589 35.9461L166.492 -0.623412C167.424 -1.16534 168.576 -1.16534 169.508 -0.62341Z" fill="url(#pattern4_3905_18023)" stroke="#D9D9D7" stroke-width="1.5"/>
<path d="M85.5 39L168 85.5M168 85.5L250.5 39M168 85.5V109.5" stroke="#D9D9D7" stroke-width="1.5"/>
<path d="M72.0232 164.799L-5.97683 120.228C-7.84628 119.159 -9 117.171 -9 115.018V97.9819C-9 95.8288 -7.84628 93.8407 -5.97684 92.7725L72.0232 48.201C73.8678 47.147 76.1322 47.147 77.9768 48.201L155.977 92.7725C157.846 93.8407 159 95.8288 159 97.9819V115.018C159 117.171 157.846 119.159 155.977 120.228L77.9768 164.799C76.1322 165.853 73.8678 165.853 72.0232 164.799Z" fill="white" stroke="#D9D9D7" stroke-width="3"/>
<path d="M76.5078 56.3766L139.41 92.9461C141.428 94.1192 141.393 97.046 139.347 98.1693L76.4439 132.707C75.5446 133.201 74.4554 133.201 73.5561 132.707L10.6534 98.1693C8.60747 97.046 8.57164 94.1192 10.5895 92.9461L73.4922 56.3766C74.4244 55.8347 75.5756 55.8347 76.5078 56.3766Z" fill="url(#pattern5_3905_18023)" stroke="#D9D9D7" stroke-width="1.5"/>
<path d="M-7.5 96L75 142.5M75 142.5L157.5 96M75 142.5V166.5" stroke="#D9D9D7" stroke-width="1.5"/>
<path d="M-20.9768 221.799L-98.9768 177.228C-100.846 176.159 -102 174.171 -102 172.018V154.982C-102 152.829 -100.846 150.841 -98.9768 149.772L-20.9768 105.201C-19.1322 104.147 -16.8678 104.147 -15.0232 105.201L62.9768 149.772C64.8463 150.841 66 152.829 66 154.982V172.018C66 174.171 64.8463 176.159 62.9768 177.228L-15.0232 221.799C-16.8678 222.853 -19.1322 222.853 -20.9768 221.799Z" fill="white" stroke="#D9D9D7" stroke-width="3"/>
<path d="M-16.4922 113.377L46.4105 149.946C48.4284 151.119 48.3925 154.046 46.3466 155.169L-16.5561 189.707C-17.4554 190.201 -18.5446 190.201 -19.4439 189.707L-82.3466 155.169C-84.3925 154.046 -84.4284 151.119 -82.4105 149.946L-19.5078 113.377C-18.5756 112.835 -17.4244 112.835 -16.4922 113.377Z" fill="url(#pattern6_3905_18023)" stroke="#D9D9D7" stroke-width="1.5"/>
<path d="M-100.5 153L-18 199.5M-18 199.5L64.5 153M-18 199.5V223.5" stroke="#D9D9D7" stroke-width="1.5"/>
<path d="M258.023 161.799L180.023 117.228C178.154 116.159 177 114.171 177 112.018V94.9819C177 92.8288 178.154 90.8407 180.023 89.7725L258.023 45.201C259.868 44.147 262.132 44.147 263.977 45.201L341.977 89.7725C343.846 90.8407 345 92.8288 345 94.9819V112.018C345 114.171 343.846 116.159 341.977 117.228L263.977 161.799C262.132 162.853 259.868 162.853 258.023 161.799Z" fill="white" stroke="#D9D9D7" stroke-width="3"/>
<path d="M262.508 53.3766L325.41 89.9461C327.428 91.1192 327.393 94.046 325.347 95.1693L262.444 129.707C261.545 130.201 260.455 130.201 259.556 129.707L196.653 95.1693C194.607 94.046 194.572 91.1192 196.589 89.9461L259.492 53.3766C260.424 52.8347 261.576 52.8347 262.508 53.3766Z" fill="url(#pattern7_3905_18023)" stroke="#D9D9D7" stroke-width="1.5"/>
<path d="M178.5 93L261 139.5M261 139.5L343.5 93M261 139.5V163.5" stroke="#D9D9D7" stroke-width="1.5"/>
<path d="M165.023 218.799L87.0232 174.228C85.1537 173.159 84 171.171 84 169.018V151.982C84 149.829 85.1537 147.841 87.0232 146.772L165.023 102.201C166.868 101.147 169.132 101.147 170.977 102.201L248.977 146.772C250.846 147.841 252 149.829 252 151.982V169.018C252 171.171 250.846 173.159 248.977 174.228L170.977 218.799C169.132 219.853 166.868 219.853 165.023 218.799Z" fill="white" stroke="#131310" stroke-width="3"/>
<path d="M159.132 134.52L177.247 131.718L177.334 131.704L177.311 131.755L172.457 142.213L172.433 142.265L168.92 140.236C164.626 142.507 162.318 143.797 161.294 147.279C160.181 151.063 159.959 151.8 159.332 153.167C161.489 152.844 162.957 152.699 169.176 152.089C175.207 151.498 177.441 150.165 181.375 147.686L177.862 145.657L177.951 145.643L196.066 142.841L196.154 142.827L196.131 142.878L191.277 153.336L191.252 153.388L188.149 151.596C184.021 154.188 179.41 156.653 170.769 157.5C162.87 158.274 163.073 158.256 159.813 158.777C158.65 158.963 156.865 159.448 155.067 160.05C154.213 160.335 153.44 160.619 152.841 160.856C152.164 161.126 151.93 161.249 151.976 161.223L145.254 157.342C145.325 157.3 145.404 157.259 145.486 157.216L145.474 157.209C145.428 157.236 145.642 157.101 146.108 156.71C146.52 156.364 147.012 155.919 147.508 155.425C148.549 154.388 149.39 153.357 149.712 152.685C150.614 150.803 150.581 150.92 151.922 146.359C153.389 141.371 157.657 138.709 162.146 136.326L159.043 134.534L159.132 134.52Z" fill="#131310"/>
<path d="M85.5 150L168 196.5M168 196.5L250.5 150M168 196.5V220.5" stroke="#6E6E6A"/>
<path d="M72.0232 275.799L-5.97683 231.228C-7.84628 230.159 -9 228.171 -9 226.018V208.982C-9 206.829 -7.84628 204.841 -5.97684 203.772L72.0232 159.201C73.8678 158.147 76.1322 158.147 77.9768 159.201L155.977 203.772C157.846 204.841 159 206.829 159 208.982V226.018C159 228.171 157.846 230.159 155.977 231.228L77.9768 275.799C76.1322 276.853 73.8678 276.853 72.0232 275.799Z" fill="white" stroke="#D9D9D7" stroke-width="3"/>
<path d="M76.5078 167.377L139.41 203.946C141.428 205.119 141.393 208.046 139.347 209.169L76.4439 243.707C75.5446 244.201 74.4554 244.201 73.5561 243.707L10.6534 209.169C8.60747 208.046 8.57164 205.119 10.5895 203.946L73.4922 167.377C74.4244 166.835 75.5756 166.835 76.5078 167.377Z" fill="url(#pattern8_3905_18023)" stroke="#D9D9D7" stroke-width="1.5"/>
<path d="M-7.5 207L75 253.5M75 253.5L157.5 207M75 253.5V277.5" stroke="#D9D9D7" stroke-width="1.5"/>
<path d="M-20.9768 333.299L-98.9768 288.728C-100.846 287.659 -102 285.671 -102 283.518V266.482C-102 264.329 -100.846 262.341 -98.9768 261.272L-20.9768 216.701C-19.1322 215.647 -16.8678 215.647 -15.0232 216.701L62.9768 261.272C64.8463 262.341 66 264.329 66 266.482V283.518C66 285.671 64.8463 287.659 62.9768 288.728L-15.0232 333.299C-16.8678 334.353 -19.1322 334.353 -20.9768 333.299Z" fill="white" stroke="#D9D9D7" stroke-width="3"/>
<path d="M-16.4922 224.877L46.4105 261.446C48.4284 262.619 48.3925 265.546 46.3466 266.669L-16.5561 301.207C-17.4554 301.701 -18.5446 301.701 -19.4439 301.207L-82.3466 266.669C-84.3925 265.546 -84.4284 262.619 -82.4105 261.446L-19.5078 224.877C-18.5756 224.335 -17.4244 224.335 -16.4922 224.877Z" fill="url(#pattern9_3905_18023)" stroke="#D9D9D7" stroke-width="1.5"/>
<path d="M-100.5 264.5L-18 311M-18 311L64.5 264.5M-18 311V335" stroke="#D9D9D7" stroke-width="1.5"/>
<path d="M351.023 215.799L273.023 171.228C271.154 170.159 270 168.171 270 166.018V148.982C270 146.829 271.154 144.841 273.023 143.772L351.023 99.201C352.868 98.147 355.132 98.147 356.977 99.201L434.977 143.772C436.846 144.841 438 146.829 438 148.982V166.018C438 168.171 436.846 170.159 434.977 171.228L356.977 215.799C355.132 216.853 352.868 216.853 351.023 215.799Z" fill="white" stroke="#D9D9D7" stroke-width="3"/>
<path d="M355.508 107.377L418.41 143.946C420.428 145.119 420.393 148.046 418.347 149.169L355.444 183.707C354.545 184.201 353.455 184.201 352.556 183.707L289.653 149.169C287.607 148.046 287.572 145.119 289.589 143.946L352.492 107.377C353.424 106.835 354.576 106.835 355.508 107.377Z" fill="url(#pattern10_3905_18023)" stroke="#D9D9D7" stroke-width="1.5"/>
<path d="M271.5 147L354 193.5M354 193.5L436.5 147M354 193.5V217.5" stroke="#D9D9D7" stroke-width="1.5"/>
<path d="M258.023 272.799L180.023 228.228C178.154 227.159 177 225.171 177 223.018V205.982C177 203.829 178.154 201.841 180.023 200.772L258.023 156.201C259.868 155.147 262.132 155.147 263.977 156.201L341.977 200.772C343.846 201.841 345 203.829 345 205.982V223.018C345 225.171 343.846 227.159 341.977 228.228L263.977 272.799C262.132 273.853 259.868 273.853 258.023 272.799Z" fill="white" stroke="#D9D9D7" stroke-width="3"/>
<path d="M262.508 164.377L325.41 200.946C327.428 202.119 327.393 205.046 325.347 206.169L262.444 240.707C261.545 241.201 260.455 241.201 259.556 240.707L196.653 206.169C194.607 205.046 194.572 202.119 196.589 200.946L259.492 164.377C260.424 163.835 261.576 163.835 262.508 164.377Z" fill="url(#pattern11_3905_18023)" stroke="#D9D9D7" stroke-width="1.5"/>
<path d="M178.5 204L261 250.5M261 250.5L343.5 204M261 250.5V274.5" stroke="#D9D9D7" stroke-width="1.5"/>
<path d="M351.023 327.299L273.023 282.728C271.154 281.659 270 279.671 270 277.518V260.482C270 258.329 271.154 256.341 273.023 255.272L351.023 210.701C352.868 209.647 355.132 209.647 356.977 210.701L434.977 255.272C436.846 256.341 438 258.329 438 260.482V277.518C438 279.671 436.846 281.659 434.977 282.728L356.977 327.299C355.132 328.353 352.868 328.353 351.023 327.299Z" fill="white" stroke="#D9D9D7" stroke-width="3"/>
<path d="M355.508 218.877L418.41 255.446C420.428 256.619 420.393 259.546 418.347 260.669L355.444 295.207C354.545 295.701 353.455 295.701 352.556 295.207L289.653 260.669C287.607 259.546 287.572 256.619 289.589 255.446L352.492 218.877C353.424 218.335 354.576 218.335 355.508 218.877Z" fill="url(#pattern12_3905_18023)" stroke="#D9D9D7" stroke-width="1.5"/>
<path d="M271.5 258.5L354 305M354 305L436.5 258.5M354 305V329" stroke="#D9D9D7" stroke-width="1.5"/>
<path d="M165.023 329.799L87.0232 285.228C85.1537 284.159 84 282.171 84 280.018V262.982C84 260.829 85.1537 258.841 87.0232 257.772L165.023 213.201C166.868 212.147 169.132 212.147 170.977 213.201L248.977 257.772C250.846 258.841 252 260.829 252 262.982V280.018C252 282.171 250.846 284.159 248.977 285.228L170.977 329.799C169.132 330.853 166.868 330.853 165.023 329.799Z" fill="white" stroke="#D9D9D7" stroke-width="3"/>
<path d="M169.508 221.377L232.41 257.946C234.428 259.119 234.393 262.046 232.347 263.169L169.444 297.707C168.545 298.201 167.455 298.201 166.556 297.707L103.653 263.169C101.607 262.046 101.572 259.119 103.589 257.946L166.492 221.377C167.424 220.835 168.576 220.835 169.508 221.377Z" fill="url(#pattern13_3905_18023)" stroke="#D9D9D7" stroke-width="1.5"/>
<path d="M85.5 261L168 307.5M168 307.5L250.5 261M168 307.5V331.5" stroke="#D9D9D7" stroke-width="1.5"/>
<path d="M72.0232 387.299L-5.97683 342.728C-7.84628 341.659 -9 339.671 -9 337.518V320.482C-9 318.329 -7.84628 316.341 -5.97684 315.272L72.0232 270.701C73.8678 269.647 76.1322 269.647 77.9768 270.701L155.977 315.272C157.846 316.341 159 318.329 159 320.482V337.518C159 339.671 157.846 341.659 155.977 342.728L77.9768 387.299C76.1322 388.353 73.8678 388.353 72.0232 387.299Z" fill="white" stroke="#D9D9D7" stroke-width="3"/>
<path d="M76.5078 278.877L139.41 315.446C141.428 316.619 141.393 319.546 139.347 320.669L76.4439 355.207C75.5446 355.701 74.4554 355.701 73.5561 355.207L10.6534 320.669C8.60747 319.546 8.57164 316.619 10.5895 315.446L73.4922 278.877C74.4244 278.335 75.5756 278.335 76.5078 278.877Z" fill="url(#pattern14_3905_18023)" stroke="#D9D9D7" stroke-width="1.5"/>
<path d="M-7.5 318.5L75 365M75 365L157.5 318.5M75 365V389" stroke="#D9D9D7" stroke-width="1.5"/>
<path d="M258.023 385.299L180.023 340.728C178.154 339.659 177 337.671 177 335.518V318.482C177 316.329 178.154 314.341 180.023 313.272L258.023 268.701C259.868 267.647 262.132 267.647 263.977 268.701L341.977 313.272C343.846 314.341 345 316.329 345 318.482V335.518C345 337.671 343.846 339.659 341.977 340.728L263.977 385.299C262.132 386.353 259.868 386.353 258.023 385.299Z" fill="white" stroke="#D9D9D7" stroke-width="3"/>
<path d="M262.508 276.877L325.41 313.446C327.428 314.619 327.393 317.546 325.347 318.669L262.444 353.207C261.545 353.701 260.455 353.701 259.556 353.207L196.653 318.669C194.607 317.546 194.572 314.619 196.589 313.446L259.492 276.877C260.424 276.335 261.576 276.335 262.508 276.877Z" fill="url(#pattern15_3905_18023)" stroke="#D9D9D7" stroke-width="1.5"/>
<path d="M178.5 316.5L261 363M261 363L343.5 316.5M261 363V387" stroke="#D9D9D7" stroke-width="1.5"/>
<rect x="0.866025" width="79" height="79" rx="3.5" transform="matrix(0.866025 -0.5 0.866025 0.5 99.116 148.933)" stroke="#6E6E6A"/>
</g>
<defs>
<clipPath id="clip0_3905_18023">
<rect width="336" height="320" fill="white"/>
</clipPath>
<pattern id="pattern0_3905_18023" patternUnits="userSpaceOnUse" patternTransform="matrix(64 0 0 64 9.57164 -56.1653)" preserveAspectRatio="none" viewBox="0 0 64 64" width="1" height="1">
<g id="pattern0_3905_18023_inner">
<g clip-path="url(#clip1_3905_18023)">
<path d="M4 96V-32" stroke="#F5F5F4" stroke-width="2"/>
<path d="M12 96V-32" stroke="#F5F5F4" stroke-width="2"/>
<path d="M20 96V-32" stroke="#F5F5F4" stroke-width="2"/>
<path d="M28 96V-32" stroke="#F5F5F4" stroke-width="2"/>
<path d="M36 96V-32" stroke="#F5F5F4" stroke-width="2"/>
<path d="M44 96V-32" stroke="#F5F5F4" stroke-width="2"/>
<path d="M52 96V-32" stroke="#F5F5F4" stroke-width="2"/>
<path d="M60 96V-32" stroke="#F5F5F4" stroke-width="2"/>
</g>
</g>
</pattern><pattern id="pattern1_3905_18023" patternUnits="userSpaceOnUse" patternTransform="matrix(64 0 0 64 -83.4284 0.83466)" preserveAspectRatio="none" viewBox="0 0 64 64" width="1" height="1">
<g id="pattern1_3905_18023_inner">
<g clip-path="url(#clip2_3905_18023)">
<path d="M4 96V-32" stroke="#F5F5F4" stroke-width="2"/>
<path d="M12 96V-32" stroke="#F5F5F4" stroke-width="2"/>
<path d="M20 96V-32" stroke="#F5F5F4" stroke-width="2"/>
<path d="M28 96V-32" stroke="#F5F5F4" stroke-width="2"/>
<path d="M36 96V-32" stroke="#F5F5F4" stroke-width="2"/>
<path d="M44 96V-32" stroke="#F5F5F4" stroke-width="2"/>
<path d="M52 96V-32" stroke="#F5F5F4" stroke-width="2"/>
<path d="M60 96V-32" stroke="#F5F5F4" stroke-width="2"/>
</g>
</g>
</pattern><pattern id="pattern2_3905_18023" patternUnits="userSpaceOnUse" patternTransform="matrix(64 0 0 64 195.572 -56.6653)" preserveAspectRatio="none" viewBox="0 0 64 64" width="1" height="1">
<g id="pattern2_3905_18023_inner">
<g clip-path="url(#clip3_3905_18023)">
<path d="M4 96V-32" stroke="#F5F5F4" stroke-width="2"/>
<path d="M12 96V-32" stroke="#F5F5F4" stroke-width="2"/>
<path d="M20 96V-32" stroke="#F5F5F4" stroke-width="2"/>
<path d="M28 96V-32" stroke="#F5F5F4" stroke-width="2"/>
<path d="M36 96V-32" stroke="#F5F5F4" stroke-width="2"/>
<path d="M44 96V-32" stroke="#F5F5F4" stroke-width="2"/>
<path d="M52 96V-32" stroke="#F5F5F4" stroke-width="2"/>
<path d="M60 96V-32" stroke="#F5F5F4" stroke-width="2"/>
</g>
</g>
</pattern><pattern id="pattern3_3905_18023" patternUnits="userSpaceOnUse" patternTransform="matrix(64 0 0 64 288.572 -2.66534)" preserveAspectRatio="none" viewBox="0 0 64 64" width="1" height="1">
<g id="pattern3_3905_18023_inner">
<g clip-path="url(#clip4_3905_18023)">
<path d="M4 96V-32" stroke="#F5F5F4" stroke-width="2"/>
<path d="M12 96V-32" stroke="#F5F5F4" stroke-width="2"/>
<path d="M20 96V-32" stroke="#F5F5F4" stroke-width="2"/>
<path d="M28 96V-32" stroke="#F5F5F4" stroke-width="2"/>
<path d="M36 96V-32" stroke="#F5F5F4" stroke-width="2"/>
<path d="M44 96V-32" stroke="#F5F5F4" stroke-width="2"/>
<path d="M52 96V-32" stroke="#F5F5F4" stroke-width="2"/>
<path d="M60 96V-32" stroke="#F5F5F4" stroke-width="2"/>
</g>
</g>
</pattern><pattern id="pattern4_3905_18023" patternUnits="userSpaceOnUse" patternTransform="matrix(64 0 0 64 101.572 -1.16534)" preserveAspectRatio="none" viewBox="0 0 64 64" width="1" height="1">
<g id="pattern4_3905_18023_inner">
<g clip-path="url(#clip5_3905_18023)">
<path d="M4 96V-32" stroke="#F5F5F4" stroke-width="2"/>
<path d="M12 96V-32" stroke="#F5F5F4" stroke-width="2"/>
<path d="M20 96V-32" stroke="#F5F5F4" stroke-width="2"/>
<path d="M28 96V-32" stroke="#F5F5F4" stroke-width="2"/>
<path d="M36 96V-32" stroke="#F5F5F4" stroke-width="2"/>
<path d="M44 96V-32" stroke="#F5F5F4" stroke-width="2"/>
<path d="M52 96V-32" stroke="#F5F5F4" stroke-width="2"/>
<path d="M60 96V-32" stroke="#F5F5F4" stroke-width="2"/>
</g>
</g>
</pattern><pattern id="pattern5_3905_18023" patternUnits="userSpaceOnUse" patternTransform="matrix(64 0 0 64 8.57164 55.8347)" preserveAspectRatio="none" viewBox="0 0 64 64" width="1" height="1">
<g id="pattern5_3905_18023_inner">
<g clip-path="url(#clip6_3905_18023)">
<path d="M4 96V-32" stroke="#F5F5F4" stroke-width="2"/>
<path d="M12 96V-32" stroke="#F5F5F4" stroke-width="2"/>
<path d="M20 96V-32" stroke="#F5F5F4" stroke-width="2"/>
<path d="M28 96V-32" stroke="#F5F5F4" stroke-width="2"/>
<path d="M36 96V-32" stroke="#F5F5F4" stroke-width="2"/>
<path d="M44 96V-32" stroke="#F5F5F4" stroke-width="2"/>
<path d="M52 96V-32" stroke="#F5F5F4" stroke-width="2"/>
<path d="M60 96V-32" stroke="#F5F5F4" stroke-width="2"/>
</g>
</g>
</pattern><pattern id="pattern6_3905_18023" patternUnits="userSpaceOnUse" patternTransform="matrix(64 0 0 64 -84.4284 112.835)" preserveAspectRatio="none" viewBox="0 0 64 64" width="1" height="1">
<g id="pattern6_3905_18023_inner">
<g clip-path="url(#clip7_3905_18023)">
<path d="M4 96V-32" stroke="#F5F5F4" stroke-width="2"/>
<path d="M12 96V-32" stroke="#F5F5F4" stroke-width="2"/>
<path d="M20 96V-32" stroke="#F5F5F4" stroke-width="2"/>
<path d="M28 96V-32" stroke="#F5F5F4" stroke-width="2"/>
<path d="M36 96V-32" stroke="#F5F5F4" stroke-width="2"/>
<path d="M44 96V-32" stroke="#F5F5F4" stroke-width="2"/>
<path d="M52 96V-32" stroke="#F5F5F4" stroke-width="2"/>
<path d="M60 96V-32" stroke="#F5F5F4" stroke-width="2"/>
</g>
</g>
</pattern><pattern id="pattern7_3905_18023" patternUnits="userSpaceOnUse" patternTransform="matrix(64 0 0 64 194.572 52.8347)" preserveAspectRatio="none" viewBox="0 0 64 64" width="1" height="1">
<g id="pattern7_3905_18023_inner">
<g clip-path="url(#clip8_3905_18023)">
<path d="M4 96V-32" stroke="#F5F5F4" stroke-width="2"/>
<path d="M12 96V-32" stroke="#F5F5F4" stroke-width="2"/>
<path d="M20 96V-32" stroke="#F5F5F4" stroke-width="2"/>
<path d="M28 96V-32" stroke="#F5F5F4" stroke-width="2"/>
<path d="M36 96V-32" stroke="#F5F5F4" stroke-width="2"/>
<path d="M44 96V-32" stroke="#F5F5F4" stroke-width="2"/>
<path d="M52 96V-32" stroke="#F5F5F4" stroke-width="2"/>
<path d="M60 96V-32" stroke="#F5F5F4" stroke-width="2"/>
</g>
</g>
</pattern><pattern id="pattern8_3905_18023" patternUnits="userSpaceOnUse" patternTransform="matrix(64 0 0 64 8.57164 166.835)" preserveAspectRatio="none" viewBox="0 0 64 64" width="1" height="1">
<g id="pattern8_3905_18023_inner">
<g clip-path="url(#clip9_3905_18023)">
<path d="M4 96V-32" stroke="#F5F5F4" stroke-width="2"/>
<path d="M12 96V-32" stroke="#F5F5F4" stroke-width="2"/>
<path d="M20 96V-32" stroke="#F5F5F4" stroke-width="2"/>
<path d="M28 96V-32" stroke="#F5F5F4" stroke-width="2"/>
<path d="M36 96V-32" stroke="#F5F5F4" stroke-width="2"/>
<path d="M44 96V-32" stroke="#F5F5F4" stroke-width="2"/>
<path d="M52 96V-32" stroke="#F5F5F4" stroke-width="2"/>
<path d="M60 96V-32" stroke="#F5F5F4" stroke-width="2"/>
</g>
</g>
</pattern><pattern id="pattern9_3905_18023" patternUnits="userSpaceOnUse" patternTransform="matrix(64 0 0 64 -84.4284 224.335)" preserveAspectRatio="none" viewBox="0 0 64 64" width="1" height="1">
<g id="pattern9_3905_18023_inner">
<g clip-path="url(#clip10_3905_18023)">
<path d="M4 96V-32" stroke="#F5F5F4" stroke-width="2"/>
<path d="M12 96V-32" stroke="#F5F5F4" stroke-width="2"/>
<path d="M20 96V-32" stroke="#F5F5F4" stroke-width="2"/>
<path d="M28 96V-32" stroke="#F5F5F4" stroke-width="2"/>
<path d="M36 96V-32" stroke="#F5F5F4" stroke-width="2"/>
<path d="M44 96V-32" stroke="#F5F5F4" stroke-width="2"/>
<path d="M52 96V-32" stroke="#F5F5F4" stroke-width="2"/>
<path d="M60 96V-32" stroke="#F5F5F4" stroke-width="2"/>
</g>
</g>
</pattern><pattern id="pattern10_3905_18023" patternUnits="userSpaceOnUse" patternTransform="matrix(64 0 0 64 287.572 106.835)" preserveAspectRatio="none" viewBox="0 0 64 64" width="1" height="1">
<g id="pattern10_3905_18023_inner">
<g clip-path="url(#clip11_3905_18023)">
<path d="M4 96V-32" stroke="#F5F5F4" stroke-width="2"/>
<path d="M12 96V-32" stroke="#F5F5F4" stroke-width="2"/>
<path d="M20 96V-32" stroke="#F5F5F4" stroke-width="2"/>
<path d="M28 96V-32" stroke="#F5F5F4" stroke-width="2"/>
<path d="M36 96V-32" stroke="#F5F5F4" stroke-width="2"/>
<path d="M44 96V-32" stroke="#F5F5F4" stroke-width="2"/>
<path d="M52 96V-32" stroke="#F5F5F4" stroke-width="2"/>
<path d="M60 96V-32" stroke="#F5F5F4" stroke-width="2"/>
</g>
</g>
</pattern><pattern id="pattern11_3905_18023" patternUnits="userSpaceOnUse" patternTransform="matrix(64 0 0 64 194.572 163.835)" preserveAspectRatio="none" viewBox="0 0 64 64" width="1" height="1">
<g id="pattern11_3905_18023_inner">
<g clip-path="url(#clip12_3905_18023)">
<path d="M4 96V-32" stroke="#F5F5F4" stroke-width="2"/>
<path d="M12 96V-32" stroke="#F5F5F4" stroke-width="2"/>
<path d="M20 96V-32" stroke="#F5F5F4" stroke-width="2"/>
<path d="M28 96V-32" stroke="#F5F5F4" stroke-width="2"/>
<path d="M36 96V-32" stroke="#F5F5F4" stroke-width="2"/>
<path d="M44 96V-32" stroke="#F5F5F4" stroke-width="2"/>
<path d="M52 96V-32" stroke="#F5F5F4" stroke-width="2"/>
<path d="M60 96V-32" stroke="#F5F5F4" stroke-width="2"/>
</g>
</g>
</pattern><pattern id="pattern12_3905_18023" patternUnits="userSpaceOnUse" patternTransform="matrix(64 0 0 64 287.572 218.335)" preserveAspectRatio="none" viewBox="0 0 64 64" width="1" height="1">
<g id="pattern12_3905_18023_inner">
<g clip-path="url(#clip13_3905_18023)">
<path d="M4 96V-32" stroke="#F5F5F4" stroke-width="2"/>
<path d="M12 96V-32" stroke="#F5F5F4" stroke-width="2"/>
<path d="M20 96V-32" stroke="#F5F5F4" stroke-width="2"/>
<path d="M28 96V-32" stroke="#F5F5F4" stroke-width="2"/>
<path d="M36 96V-32" stroke="#F5F5F4" stroke-width="2"/>
<path d="M44 96V-32" stroke="#F5F5F4" stroke-width="2"/>
<path d="M52 96V-32" stroke="#F5F5F4" stroke-width="2"/>
<path d="M60 96V-32" stroke="#F5F5F4" stroke-width="2"/>
</g>
</g>
</pattern><pattern id="pattern13_3905_18023" patternUnits="userSpaceOnUse" patternTransform="matrix(64 0 0 64 101.572 220.835)" preserveAspectRatio="none" viewBox="0 0 64 64" width="1" height="1">
<g id="pattern13_3905_18023_inner">
<g clip-path="url(#clip14_3905_18023)">
<path d="M4 96V-32" stroke="#F5F5F4" stroke-width="2"/>
<path d="M12 96V-32" stroke="#F5F5F4" stroke-width="2"/>
<path d="M20 96V-32" stroke="#F5F5F4" stroke-width="2"/>
<path d="M28 96V-32" stroke="#F5F5F4" stroke-width="2"/>
<path d="M36 96V-32" stroke="#F5F5F4" stroke-width="2"/>
<path d="M44 96V-32" stroke="#F5F5F4" stroke-width="2"/>
<path d="M52 96V-32" stroke="#F5F5F4" stroke-width="2"/>
<path d="M60 96V-32" stroke="#F5F5F4" stroke-width="2"/>
</g>
</g>
</pattern><pattern id="pattern14_3905_18023" patternUnits="userSpaceOnUse" patternTransform="matrix(64 0 0 64 8.57164 278.335)" preserveAspectRatio="none" viewBox="0 0 64 64" width="1" height="1">
<g id="pattern14_3905_18023_inner">
<g clip-path="url(#clip15_3905_18023)">
<path d="M4 96V-32" stroke="#F5F5F4" stroke-width="2"/>
<path d="M12 96V-32" stroke="#F5F5F4" stroke-width="2"/>
<path d="M20 96V-32" stroke="#F5F5F4" stroke-width="2"/>
<path d="M28 96V-32" stroke="#F5F5F4" stroke-width="2"/>
<path d="M36 96V-32" stroke="#F5F5F4" stroke-width="2"/>
<path d="M44 96V-32" stroke="#F5F5F4" stroke-width="2"/>
<path d="M52 96V-32" stroke="#F5F5F4" stroke-width="2"/>
<path d="M60 96V-32" stroke="#F5F5F4" stroke-width="2"/>
</g>
</g>
</pattern><pattern id="pattern15_3905_18023" patternUnits="userSpaceOnUse" patternTransform="matrix(64 0 0 64 194.572 276.335)" preserveAspectRatio="none" viewBox="0 0 64 64" width="1" height="1">
<g id="pattern15_3905_18023_inner">
<g clip-path="url(#clip16_3905_18023)">
<path d="M4 96V-32" stroke="#F5F5F4" stroke-width="2"/>
<path d="M12 96V-32" stroke="#F5F5F4" stroke-width="2"/>
<path d="M20 96V-32" stroke="#F5F5F4" stroke-width="2"/>
<path d="M28 96V-32" stroke="#F5F5F4" stroke-width="2"/>
<path d="M36 96V-32" stroke="#F5F5F4" stroke-width="2"/>
<path d="M44 96V-32" stroke="#F5F5F4" stroke-width="2"/>
<path d="M52 96V-32" stroke="#F5F5F4" stroke-width="2"/>
<path d="M60 96V-32" stroke="#F5F5F4" stroke-width="2"/>
</g>
</g>
</pattern><clipPath id="clip1_3905_18023">
<rect width="64" height="64" fill="white"/>
</clipPath>
<clipPath id="clip2_3905_18023">
<rect width="64" height="64" fill="white"/>
</clipPath>
<clipPath id="clip3_3905_18023">
<rect width="64" height="64" fill="white"/>
</clipPath>
<clipPath id="clip4_3905_18023">
<rect width="64" height="64" fill="white"/>
</clipPath>
<clipPath id="clip5_3905_18023">
<rect width="64" height="64" fill="white"/>
</clipPath>
<clipPath id="clip6_3905_18023">
<rect width="64" height="64" fill="white"/>
</clipPath>
<clipPath id="clip7_3905_18023">
<rect width="64" height="64" fill="white"/>
</clipPath>
<clipPath id="clip8_3905_18023">
<rect width="64" height="64" fill="white"/>
</clipPath>
<clipPath id="clip9_3905_18023">
<rect width="64" height="64" fill="white"/>
</clipPath>
<clipPath id="clip10_3905_18023">
<rect width="64" height="64" fill="white"/>
</clipPath>
<clipPath id="clip11_3905_18023">
<rect width="64" height="64" fill="white"/>
</clipPath>
<clipPath id="clip12_3905_18023">
<rect width="64" height="64" fill="white"/>
</clipPath>
<clipPath id="clip13_3905_18023">
<rect width="64" height="64" fill="white"/>
</clipPath>
<clipPath id="clip14_3905_18023">
<rect width="64" height="64" fill="white"/>
</clipPath>
<clipPath id="clip15_3905_18023">
<rect width="64" height="64" fill="white"/>
</clipPath>
<clipPath id="clip16_3905_18023">
<rect width="64" height="64" fill="white"/>
</clipPath>
</defs>
</svg>
