<svg width="336" height="320" viewBox="0 0 336 320" fill="none" xmlns="http://www.w3.org/2000/svg" xmlns:xlink="http://www.w3.org/1999/xlink">
<path d="M135.5 252V270L17 202V184L135.5 252Z" fill="url(#pattern0_3912_19481)"/>
<path d="M241.454 131.071C240.735 131.483 240.487 132.4 240.899 133.118C241.311 133.837 242.228 134.085 242.946 133.673L242.2 132.372L241.454 131.071ZM289.428 70.972L288.684 72.2744L289.428 70.972ZM315.76 86.0189L316.504 84.7166L315.76 86.0189ZM315.763 90.1846L315.017 88.8834L315.763 90.1846ZM247.544 131.036C248.263 130.624 248.511 129.708 248.099 128.989C247.687 128.27 246.77 128.022 246.052 128.434L246.798 129.735L247.544 131.036ZM255.247 123.161C254.528 123.573 254.28 124.489 254.692 125.208C255.104 125.927 256.021 126.175 256.74 125.763L255.993 124.462L255.247 123.161ZM265.935 120.49C266.654 120.077 266.902 119.161 266.49 118.442C266.078 117.724 265.161 117.475 264.442 117.887L265.189 119.188L265.935 120.49ZM273.638 112.614C272.919 113.026 272.671 113.943 273.083 114.661C273.495 115.38 274.412 115.628 275.13 115.216L274.384 113.915L273.638 112.614ZM284.326 109.943C285.044 109.531 285.293 108.614 284.881 107.895C284.469 107.177 283.552 106.928 282.833 107.34L283.579 108.642L284.326 109.943ZM292.029 102.067C291.31 102.479 291.062 103.396 291.474 104.114C291.886 104.833 292.802 105.082 293.521 104.669L292.775 103.368L292.029 102.067ZM302.716 99.396C303.435 98.9838 303.684 98.0672 303.271 97.3485C302.859 96.6299 301.943 96.3814 301.224 96.7935L301.97 98.0948L302.716 99.396ZM310.419 91.5201C309.701 91.9323 309.452 92.8489 309.864 93.5676C310.277 94.2862 311.193 94.5347 311.912 94.1226L311.166 92.8213L310.419 91.5201ZM309.921 80.9548C309.202 80.5438 308.286 80.7937 307.875 81.513C307.464 82.2323 307.714 83.1485 308.433 83.5596L309.177 82.2572L309.921 80.9548ZM295.267 76.0361C295.986 76.4471 296.902 76.1972 297.313 75.4779C297.724 74.7587 297.475 73.8424 296.755 73.4314L296.011 74.7337L295.267 76.0361ZM297.664 63.7814C298.382 63.3672 298.627 62.4498 298.213 61.7323C297.799 61.0149 296.882 60.7691 296.164 61.1833L296.914 62.4823L297.664 63.7814ZM311.155 52.5284C310.437 52.9427 310.192 53.86 310.606 54.5775C311.02 55.2949 311.937 55.5407 312.655 55.1265L311.905 53.8275L311.155 52.5284ZM242.2 132.372L242.946 133.673L247.544 131.036L246.798 129.735L246.052 128.434L241.454 131.071L242.2 132.372ZM255.993 124.462L256.74 125.763L265.935 120.49L265.189 119.188L264.442 117.887L255.247 123.161L255.993 124.462ZM274.384 113.915L275.13 115.216L284.326 109.943L283.579 108.642L282.833 107.34L273.638 112.614L274.384 113.915ZM292.775 103.368L293.521 104.669L302.716 99.396L301.97 98.0948L301.224 96.7935L292.029 102.067L292.775 103.368ZM311.166 92.8213L311.912 94.1226L316.51 91.4859L315.763 90.1846L315.017 88.8834L310.419 91.5201L311.166 92.8213ZM315.763 90.1846L316.51 91.4859C319.125 89.9859 319.122 86.2124 316.504 84.7166L315.76 86.0189L315.016 87.3213C315.62 87.6665 315.621 88.5373 315.017 88.8834L315.763 90.1846ZM315.76 86.0189L316.504 84.7166L309.921 80.9548L309.177 82.2572L308.433 83.5596L315.016 87.3213L315.76 86.0189ZM296.011 74.7337L296.755 73.4314L290.172 69.6696L289.428 70.972L288.684 72.2744L295.267 76.0361L296.011 74.7337ZM289.428 70.972L290.172 69.6696C289.569 69.325 289.567 68.4561 290.169 68.1088L289.419 66.8098L288.669 65.5107C286.062 67.0157 286.07 70.781 288.684 72.2744L289.428 70.972ZM289.419 66.8098L290.169 68.1088L297.664 63.7814L296.914 62.4823L296.164 61.1833L288.669 65.5107L289.419 66.8098ZM311.905 53.8275L312.655 55.1265L320.15 50.7991L319.4 49.5001L318.65 48.201L311.155 52.5284L311.905 53.8275Z" fill="#D9D9D7"/>
<path d="M241.454 131.071C240.735 131.483 240.487 132.4 240.899 133.118C241.311 133.837 242.228 134.085 242.946 133.673L242.2 132.372L241.454 131.071ZM289.428 70.972L288.684 72.2744L289.428 70.972ZM315.76 86.0189L316.504 84.7166L315.76 86.0189ZM315.763 90.1846L315.017 88.8834L315.763 90.1846ZM247.544 131.036C248.263 130.624 248.511 129.708 248.099 128.989C247.687 128.27 246.77 128.022 246.052 128.434L246.798 129.735L247.544 131.036ZM255.247 123.161C254.528 123.573 254.28 124.489 254.692 125.208C255.104 125.927 256.021 126.175 256.74 125.763L255.993 124.462L255.247 123.161ZM265.935 120.49C266.654 120.077 266.902 119.161 266.49 118.442C266.078 117.724 265.161 117.475 264.442 117.887L265.189 119.188L265.935 120.49ZM273.638 112.614C272.919 113.026 272.671 113.943 273.083 114.661C273.495 115.38 274.412 115.628 275.13 115.216L274.384 113.915L273.638 112.614ZM284.326 109.943C285.044 109.531 285.293 108.614 284.881 107.895C284.469 107.177 283.552 106.928 282.833 107.34L283.579 108.642L284.326 109.943ZM292.029 102.067C291.31 102.479 291.062 103.396 291.474 104.114C291.886 104.833 292.802 105.082 293.521 104.669L292.775 103.368L292.029 102.067ZM302.716 99.396C303.435 98.9838 303.684 98.0672 303.271 97.3485C302.859 96.6299 301.943 96.3814 301.224 96.7935L301.97 98.0948L302.716 99.396ZM310.419 91.5201C309.701 91.9323 309.452 92.8489 309.864 93.5676C310.277 94.2862 311.193 94.5347 311.912 94.1226L311.166 92.8213L310.419 91.5201ZM309.921 80.9548C309.202 80.5438 308.286 80.7937 307.875 81.513C307.464 82.2323 307.714 83.1485 308.433 83.5596L309.177 82.2572L309.921 80.9548ZM295.267 76.0361C295.986 76.4471 296.902 76.1972 297.313 75.4779C297.724 74.7587 297.475 73.8424 296.755 73.4314L296.011 74.7337L295.267 76.0361ZM297.664 63.7814C298.382 63.3672 298.627 62.4498 298.213 61.7323C297.799 61.0149 296.882 60.7691 296.164 61.1833L296.914 62.4823L297.664 63.7814ZM311.155 52.5284C310.437 52.9427 310.192 53.86 310.606 54.5775C311.02 55.2949 311.937 55.5407 312.655 55.1265L311.905 53.8275L311.155 52.5284ZM242.2 132.372L242.946 133.673L247.544 131.036L246.798 129.735L246.052 128.434L241.454 131.071L242.2 132.372ZM255.993 124.462L256.74 125.763L265.935 120.49L265.189 119.188L264.442 117.887L255.247 123.161L255.993 124.462ZM274.384 113.915L275.13 115.216L284.326 109.943L283.579 108.642L282.833 107.34L273.638 112.614L274.384 113.915ZM292.775 103.368L293.521 104.669L302.716 99.396L301.97 98.0948L301.224 96.7935L292.029 102.067L292.775 103.368ZM311.166 92.8213L311.912 94.1226L316.51 91.4859L315.763 90.1846L315.017 88.8834L310.419 91.5201L311.166 92.8213ZM315.763 90.1846L316.51 91.4859C319.125 89.9859 319.122 86.2124 316.504 84.7166L315.76 86.0189L315.016 87.3213C315.62 87.6665 315.621 88.5373 315.017 88.8834L315.763 90.1846ZM315.76 86.0189L316.504 84.7166L309.921 80.9548L309.177 82.2572L308.433 83.5596L315.016 87.3213L315.76 86.0189ZM296.011 74.7337L296.755 73.4314L290.172 69.6696L289.428 70.972L288.684 72.2744L295.267 76.0361L296.011 74.7337ZM289.428 70.972L290.172 69.6696C289.569 69.325 289.567 68.4561 290.169 68.1088L289.419 66.8098L288.669 65.5107C286.062 67.0157 286.07 70.781 288.684 72.2744L289.428 70.972ZM289.419 66.8098L290.169 68.1088L297.664 63.7814L296.914 62.4823L296.164 61.1833L288.669 65.5107L289.419 66.8098ZM311.905 53.8275L312.655 55.1265L320.15 50.7991L319.4 49.5001L318.65 48.201L311.155 52.5284L311.905 53.8275Z" fill="url(#paint0_linear_3912_19481)"/>
<rect x="0.866025" width="36.041" height="36.041" rx="4.3" transform="matrix(0.866025 -0.5 0.866025 0.5 43.5164 183.852)" fill="#D0EC1A" stroke="#6E6E6A"/>
<rect x="0.866025" width="99.7122" height="13.2079" rx="4.3" transform="matrix(0.866025 -0.5 0.866025 0.5 81.116 206.888)" stroke="#6E6E6A"/>
<rect x="0.866025" width="142.509" height="13.2079" rx="4.3" transform="matrix(0.866025 -0.5 0.866025 0.5 98.7156 218.088)" stroke="#6E6E6A"/>
<rect x="0.866025" width="144.591" height="13.2079" rx="4.3" transform="matrix(0.866025 -0.5 0.866025 0.5 115.516 230.088)" stroke="#6E6E6A"/>
<path d="M17 184.099L135.8 252.092M135.8 252.092V270.092M135.8 252.092C197.769 216.182 236.207 193.908 291.788 161.7" stroke="#6E6E6A"/>
<path d="M17 200.503V186.882C17 185.161 17.9209 183.572 19.4139 182.717L171.724 95.4561C173.192 94.615 174.994 94.6089 176.468 95.4402L290.263 159.627C291.771 160.478 292.704 162.076 292.704 163.808V177.717C292.704 179.438 291.784 181.027 290.291 181.882L137.986 269.14C136.515 269.983 134.709 269.987 133.234 269.152L19.4339 204.679C17.9297 203.827 17 202.232 17 200.503Z" stroke="#131310" stroke-width="3"/>
<defs>
<linearGradient id="paint0_linear_3912_19481" x1="360" y1="40.4995" x2="292" y2="84.4995" gradientUnits="userSpaceOnUse">
<stop offset="0.173077" stop-color="white"/>
<stop offset="1" stop-color="white" stop-opacity="0"/>
</linearGradient>
<pattern id="pattern0_3912_19481" patternUnits="userSpaceOnUse" patternTransform="matrix(16 0 0 16 68.25 219)" preserveAspectRatio="none" viewBox="0 0 64 64" width="1" height="1">
<g id="pattern0_3912_19481_inner">
<g clip-path="url(#clip0_3912_19481)">
<path d="M4 96V-32" stroke="#6E6E6A"/>
<path d="M12 96V-32" stroke="#6E6E6A"/>
<path d="M20 96V-32" stroke="#6E6E6A"/>
<path d="M28 96V-32" stroke="#6E6E6A"/>
<path d="M36 96V-32" stroke="#6E6E6A"/>
<path d="M44 96V-32" stroke="#6E6E6A"/>
<path d="M52 96V-32" stroke="#6E6E6A"/>
<path d="M60 96V-32" stroke="#6E6E6A"/>
</g>
</g>
</pattern><clipPath id="clip0_3912_19481">
<rect width="64" height="64" fill="white"/>
</clipPath>
</defs>
</svg>
