<svg width="336" height="320" viewBox="0 0 336 320" fill="none" xmlns="http://www.w3.org/2000/svg" xmlns:xlink="http://www.w3.org/1999/xlink">
<g opacity="0.4">
<path d="M41 263.955V246.976C41 244.827 42.1501 242.841 44.0148 241.772L267.591 113.538C269.399 112.501 271.615 112.476 273.445 113.473L327.301 142.796C329.23 143.846 330.432 145.868 330.432 148.065V165.393C330.432 167.543 329.282 169.529 327.417 170.598L103.857 298.823C102.04 299.865 99.812 299.884 97.9776 298.874L44.106 269.211C42.1901 268.156 41 266.142 41 263.955Z" fill="white"/>
<path d="M41 263.955V246.976C41 244.827 42.1501 242.841 44.0148 241.772L267.591 113.538C269.399 112.501 271.615 112.476 273.445 113.473L327.301 142.796C329.23 143.846 330.432 145.868 330.432 148.065V165.393C330.432 167.543 329.282 169.529 327.417 170.598L103.857 298.823C102.04 299.865 99.812 299.884 97.9776 298.874L44.106 269.211C42.1901 268.156 41 266.142 41 263.955Z" fill="url(#pattern0_3926_18897)" fill-opacity="0.2"/>
<path d="M41 263.955V246.976C41 244.827 42.1501 242.841 44.0148 241.772L267.591 113.538C269.399 112.501 271.615 112.476 273.445 113.473L327.301 142.796C329.23 143.846 330.432 145.868 330.432 148.065V165.393C330.432 167.543 329.282 169.529 327.417 170.598L103.857 298.823C102.04 299.865 99.812 299.884 97.9776 298.874L44.106 269.211C42.1901 268.156 41 266.142 41 263.955Z" stroke="#D9D9D7" stroke-width="3"/>
<path d="M41 243.5L101 277.395M101 277.395L330.5 144.405M101 277.395V299.895" stroke="#D9D9D7"/>
<rect x="1.29904" width="44.8013" height="44.8013" rx="5.25" transform="matrix(0.866025 -0.5 0.866025 0.5 65.174 243.301)" stroke="#D9D9D7" stroke-width="1.5"/>
<rect x="1.29904" width="124.39" height="16.2599" rx="5.25" transform="matrix(0.866025 -0.5 0.866025 0.5 125.174 220.095)" stroke="#D9D9D7" stroke-width="1.5"/>
<rect width="33.4399" height="17.7599" rx="6" transform="matrix(0.866025 -0.5 0.866025 0.5 242 150.702)" fill="#16A34A"/>
</g>
<path d="M28 232.586V215.607C28 213.458 29.1501 211.472 31.0148 210.403L254.591 82.1685C256.399 81.1317 258.615 81.1071 260.445 82.1036L314.301 111.427C316.23 112.477 317.432 114.499 317.432 116.696V134.024C317.432 136.174 316.282 138.159 314.417 139.229L90.8568 267.454C89.0403 268.495 86.812 268.515 84.9776 267.505L31.106 237.842C29.1901 236.787 28 234.773 28 232.586Z" fill="white"/>
<path d="M28 232.586V215.607C28 213.458 29.1501 211.472 31.0148 210.403L254.591 82.1685C256.399 81.1317 258.615 81.1071 260.445 82.1036L314.301 111.427C316.23 112.477 317.432 114.499 317.432 116.696V134.024C317.432 136.174 316.282 138.159 314.417 139.229L90.8568 267.454C89.0403 268.495 86.812 268.515 84.9776 267.505L31.106 237.842C29.1901 236.787 28 234.773 28 232.586Z" fill="url(#pattern1_3926_18897)" fill-opacity="0.25"/>
<path d="M28 232.586V215.607C28 213.458 29.1501 211.472 31.0148 210.403L254.591 82.1685C256.399 81.1317 258.615 81.1071 260.445 82.1036L314.301 111.427C316.23 112.477 317.432 114.499 317.432 116.696V134.024C317.432 136.174 316.282 138.159 314.417 139.229L90.8568 267.454C89.0403 268.495 86.812 268.515 84.9776 267.505L31.106 237.842C29.1901 236.787 28 234.773 28 232.586Z" stroke="#D9D9D7" stroke-width="3"/>
<path d="M28 212.131L88 246.026M88 246.026L317.5 113.036M88 246.026V268.526" stroke="#D9D9D7"/>
<rect x="1.29904" width="44.8013" height="44.8013" rx="5.25" transform="matrix(0.866025 -0.5 0.866025 0.5 52.174 211.932)" stroke="#D9D9D7" stroke-width="1.5"/>
<rect x="1.29904" width="124.39" height="16.2599" rx="5.25" transform="matrix(0.866025 -0.5 0.866025 0.5 112.174 188.726)" stroke="#D9D9D7" stroke-width="1.5"/>
<rect width="33.4399" height="17.7599" rx="6" transform="matrix(0.866025 -0.5 0.866025 0.5 229 119.333)" fill="#16A34A"/>
<path d="M17 201.586V184.607C17 182.458 18.1501 180.472 20.0148 179.403L243.591 51.1685C245.399 50.1317 247.615 50.1071 249.445 51.1036L303.301 80.4266C305.23 81.4774 306.432 83.4989 306.432 85.6962V103.024C306.432 105.174 305.282 107.159 303.417 108.229L79.8568 236.454C78.0403 237.495 75.812 237.515 73.9776 236.505L20.106 206.842C18.1901 205.787 17 203.773 17 201.586Z" fill="white"/>
<path d="M17 201.586V184.607C17 182.458 18.1501 180.472 20.0148 179.403L243.591 51.1685C245.399 50.1317 247.615 50.1071 249.445 51.1036L303.301 80.4266C305.23 81.4774 306.432 83.4989 306.432 85.6962V103.024C306.432 105.174 305.282 107.159 303.417 108.229L79.8568 236.454C78.0403 237.495 75.812 237.515 73.9776 236.505L20.106 206.842C18.1901 205.787 17 203.773 17 201.586Z" fill="url(#pattern2_3926_18897)" fill-opacity="0.25"/>
<path d="M17 201.586V184.607C17 182.458 18.1501 180.472 20.0148 179.403L243.591 51.1685C245.399 50.1317 247.615 50.1071 249.445 51.1036L303.301 80.4266C305.23 81.4774 306.432 83.4989 306.432 85.6962V103.024C306.432 105.174 305.282 107.159 303.417 108.229L79.8568 236.454C78.0403 237.495 75.812 237.515 73.9776 236.505L20.106 206.842C18.1901 205.787 17 203.773 17 201.586Z" stroke="#6E6E6A" stroke-width="3"/>
<path d="M17 181.131L77 215.026M77 215.026L306.5 82.0356M77 215.026V237.526" stroke="#6E6E6A"/>
<rect x="1.29904" width="44.8013" height="44.8013" rx="5.25" transform="matrix(0.866025 -0.5 0.866025 0.5 41.174 180.932)" stroke="#6E6E6A" stroke-width="1.5"/>
<rect x="1.29904" width="124.39" height="16.2599" rx="5.25" transform="matrix(0.866025 -0.5 0.866025 0.5 101.174 157.726)" stroke="#6E6E6A" stroke-width="1.5"/>
<rect width="33.4399" height="17.7599" rx="6" transform="matrix(0.866025 -0.5 0.866025 0.5 218 88.333)" fill="#16A34A"/>
<path d="M6 170.586V153.607C6 151.458 7.15007 149.472 9.01481 148.403L232.591 20.1685C234.399 19.1317 236.615 19.1071 238.445 20.1036L292.301 49.4266C294.23 50.4774 295.432 52.4989 295.432 54.6962V72.0243C295.432 74.174 294.282 76.1594 292.417 77.229L68.8568 205.454C67.0403 206.495 64.812 206.515 62.9776 205.505L9.10598 175.842C7.19009 174.787 6 172.773 6 170.586Z" fill="white" stroke="#131310" stroke-width="3"/>
<path d="M6 150.131L66 184.026M66 184.026L295.5 51.0356M66 184.026V206.526" stroke="#6E6E6A"/>
<rect x="0.866025" width="45.3013" height="45.3013" rx="5.5" transform="matrix(0.866025 -0.5 0.866025 0.5 27.116 149.716)" stroke="#6E6E6A"/>
<rect x="0.866025" width="125.748" height="16.7599" rx="5.5" transform="matrix(0.866025 -0.5 0.866025 0.5 88.116 128.51)" stroke="#6E6E6A"/>
<rect width="33.4399" height="17.7599" rx="8.87993" transform="matrix(0.866025 -0.5 0.866025 0.5 218 53.2197)" fill="#16A34A"/>
<defs>
<pattern id="pattern0_3926_18897" patternUnits="userSpaceOnUse" patternTransform="matrix(16 0 0 16 177.716 198.18)" preserveAspectRatio="none" viewBox="0 0 64 64" width="1" height="1">
<g id="pattern0_3926_18897_inner">
<g clip-path="url(#clip0_3926_18897)">
<path d="M4 96V-32" stroke="#6E6E6A"/>
<path d="M12 96V-32" stroke="#6E6E6A"/>
<path d="M20 96V-32" stroke="#6E6E6A"/>
<path d="M28 96V-32" stroke="#6E6E6A"/>
<path d="M36 96V-32" stroke="#6E6E6A"/>
<path d="M44 96V-32" stroke="#6E6E6A"/>
<path d="M52 96V-32" stroke="#6E6E6A"/>
<path d="M60 96V-32" stroke="#6E6E6A"/>
</g>
</g>
</pattern><pattern id="pattern1_3926_18897" patternUnits="userSpaceOnUse" patternTransform="matrix(16 0 0 16 164.716 166.811)" preserveAspectRatio="none" viewBox="0 0 64 64" width="1" height="1">
<g id="pattern1_3926_18897_inner">
<g clip-path="url(#clip1_3926_18897)">
<path d="M4 96V-32" stroke="#6E6E6A"/>
<path d="M12 96V-32" stroke="#6E6E6A"/>
<path d="M20 96V-32" stroke="#6E6E6A"/>
<path d="M28 96V-32" stroke="#6E6E6A"/>
<path d="M36 96V-32" stroke="#6E6E6A"/>
<path d="M44 96V-32" stroke="#6E6E6A"/>
<path d="M52 96V-32" stroke="#6E6E6A"/>
<path d="M60 96V-32" stroke="#6E6E6A"/>
</g>
</g>
</pattern><pattern id="pattern2_3926_18897" patternUnits="userSpaceOnUse" patternTransform="matrix(16 0 0 16 153.716 135.811)" preserveAspectRatio="none" viewBox="0 0 64 64" width="1" height="1">
<g id="pattern2_3926_18897_inner">
<g clip-path="url(#clip2_3926_18897)">
<path d="M4 96V-32" stroke="#6E6E6A"/>
<path d="M12 96V-32" stroke="#6E6E6A"/>
<path d="M20 96V-32" stroke="#6E6E6A"/>
<path d="M28 96V-32" stroke="#6E6E6A"/>
<path d="M36 96V-32" stroke="#6E6E6A"/>
<path d="M44 96V-32" stroke="#6E6E6A"/>
<path d="M52 96V-32" stroke="#6E6E6A"/>
<path d="M60 96V-32" stroke="#6E6E6A"/>
</g>
</g>
</pattern><clipPath id="clip0_3926_18897">
<rect width="64" height="64" fill="white"/>
</clipPath>
<clipPath id="clip1_3926_18897">
<rect width="64" height="64" fill="white"/>
</clipPath>
<clipPath id="clip2_3926_18897">
<rect width="64" height="64" fill="white"/>
</clipPath>
</defs>
</svg>
