<svg width="220" height="200" viewBox="0 0 220 200" fill="none" xmlns="http://www.w3.org/2000/svg">
<path d="M136.512 52.5108L163.512 37.0853M136.512 52.5108L163.512 67.9363M136.512 52.5108L109.512 67.9363M163.512 37.0853L190.512 52.5108M163.512 37.0853L190.512 21.6599L217.512 37.0853M163.512 37.0853L136.512 21.5L109.512 37.0853M190.512 52.5108L163.512 67.9363M190.512 52.5108L217.512 37.0853M190.512 52.5108L217.512 67.9363L190.512 83.3618M163.512 67.9363L136.512 83.3618M163.512 67.9363L190.512 83.3618M163.512 67.9363L109.512 98.7873M163.512 67.9363L217.512 98.7873M163.512 67.9363L217.512 37.0853M163.512 67.9363L109.512 37.0853M1.51172 98.7873L28.5117 83.3618M1.51172 98.7873L28.5117 114.213M1.51172 98.7873L55.5117 67.9363M1.51172 98.7873L55.5117 129.638M1.51172 98.7873L109.512 37.0853M1.51172 98.7873L109.512 160.489M28.5117 83.3618L55.5117 98.7873M28.5117 83.3618L55.5117 67.9363M28.5117 83.3618L1.51172 67.9363L28.5117 52.5108M55.5117 98.7873L28.5117 114.213M55.5117 98.7873L82.5117 114.213M55.5117 98.7873L82.5117 83.3618M28.5117 114.213L55.5117 129.638M28.5117 114.213L1.51172 129.638L28.5117 145.064M109.512 98.7873L136.512 83.3618M109.512 98.7873L136.512 114.213M109.512 98.7873L82.5117 83.3618M109.512 98.7873L82.5117 114.213M109.512 98.7873L55.5117 67.9363M109.512 98.7873L55.5117 129.638M109.512 98.7873L163.512 129.638M136.512 83.3618L163.512 98.7873M136.512 83.3618L109.512 67.9363M163.512 98.7873L136.512 114.213M163.512 98.7873L190.512 114.213M163.512 98.7873L190.512 83.3618M136.512 114.213L163.512 129.638M136.512 114.213L109.512 129.638M55.5117 67.9363L82.5117 52.5108M55.5117 67.9363L82.5117 83.3618M55.5117 67.9363L28.5117 52.5108M55.5117 67.9363L1.51172 37.0853M55.5117 67.9363L109.512 37.0853M82.5117 52.5108L109.512 67.9363M82.5117 52.5108L109.512 37.0853M82.5117 52.5108L55.5117 37.0853M109.512 67.9363L82.5117 83.3618M82.5117 114.213L55.5117 129.638M82.5117 114.213L109.512 129.638M55.5117 129.638L28.5117 145.064M55.5117 129.638L82.5117 145.064M55.5117 129.638L1.51172 160.489M55.5117 129.638L109.512 160.489M190.512 114.213L163.512 129.638M190.512 114.213L217.512 98.7873M190.512 114.213L217.512 129.638L190.512 145.064M163.512 129.638L190.512 145.064M163.512 129.638L136.512 145.064M163.512 129.638L217.512 98.7873M163.512 129.638L217.512 160.489M163.512 129.638L109.512 160.489M190.512 83.3618L217.512 98.7873M217.512 98.7873L109.512 37.0853M217.512 98.7873L109.512 160.489M190.512 145.064L163.512 160.489M190.512 145.064L217.512 160.489M136.512 145.064L163.512 160.489M136.512 145.064L109.512 129.638M136.512 145.064L109.512 160.489M163.512 160.489L136.512 175.915M163.512 160.489L190.512 175.915L217.512 160.489M28.5117 145.064L55.5117 160.489M28.5117 145.064L1.51172 160.489M82.5117 145.064L55.5117 160.489M82.5117 145.064L109.512 129.638M82.5117 145.064L109.512 160.489M55.5117 160.489L28.5117 175.915L1.51172 160.489M55.5117 160.489L82.5117 175.915M28.5117 52.5108L55.5117 37.0853M28.5117 52.5108L1.51172 37.0853M1.51172 37.0853L28.5117 21.6599L55.5117 37.0853M55.5117 37.0853L82.5117 21.6599L109.512 37.0853M109.512 160.489L136.512 175.915M109.512 160.489L82.5117 175.915M136.512 175.915L163.512 191.34L217.512 160.489M136.512 175.915L109.512 191.5L82.5117 175.915M82.5117 175.915L55.5117 191.34L1.51172 160.489" stroke="url(#paint0_radial_3916_19896)" stroke-width="1.5"/>
<path d="M63.8511 94.3505L63.5117 107.039C67.1675 140.643 150.153 142.264 155.271 107.769L155.512 94.2546C155.454 87.5326 150.98 80.8208 142.089 75.6921C124.191 65.3676 95.1725 65.3676 77.2745 75.6921C68.3413 80.8453 63.8668 87.5965 63.8511 94.3505Z" fill="white" stroke="black" stroke-width="3"/>
<path d="M155.54 93.0736C155.766 100.041 151.274 107.051 142.065 112.368C124.086 122.748 94.9373 122.748 76.9588 112.368C67.7494 107.051 63.2575 100.041 63.483 93.0736" stroke="black"/>
<path d="M76.9848 75.2607C94.9489 64.9118 124.075 64.9118 142.039 75.2607C160.003 85.6096 160.003 102.388 142.039 112.737C124.075 123.086 94.9489 123.086 76.9848 112.737C59.0207 102.388 59.0207 85.6096 76.9848 75.2607Z" fill="#D0EC1A" stroke="#131310"/>
<g clip-path="url(#clip0_3916_19896)">
<path d="M105.732 90.7932V93.8967H117.827M127.103 92.2672C126.71 92.8133 126.709 93.4271 127.101 93.9736L128.474 95.8885C128.866 96.435 128.866 97.049 128.474 97.5955C128.082 98.142 127.33 98.5762 126.384 98.8026L123.069 99.5952C122.122 99.8217 121.369 100.256 120.978 100.803L119.604 102.716C119.41 102.986 119.126 103.232 118.767 103.44C118.408 103.647 117.982 103.811 117.513 103.923C117.044 104.035 116.542 104.093 116.034 104.093C115.527 104.093 115.024 104.035 114.556 103.923L111.241 103.13C110.295 102.904 109.232 102.903 108.286 103.129L104.969 103.922C104.022 104.149 102.959 104.149 102.012 103.922C101.066 103.696 100.314 103.262 99.9215 102.715L98.5487 100.802C98.156 100.256 97.4037 99.8221 96.4572 99.5962L93.1419 98.8022C92.1964 98.5757 91.4452 98.1418 91.0535 97.5958C90.6618 97.0497 90.6615 96.4362 91.0526 95.8901L92.427 93.9745C92.8195 93.4284 92.8203 92.8146 92.4292 92.2681L91.0555 90.3532C90.6636 89.8069 90.6634 89.1932 91.055 88.6469C91.4466 88.1005 92.1979 87.6663 93.1438 87.4397L96.4582 86.647C97.4041 86.4203 98.1553 85.9859 98.5467 85.4394L99.9243 83.5247C100.118 83.254 100.403 83.008 100.762 82.8008C101.121 82.5935 101.547 82.4292 102.015 82.317C102.484 82.2049 102.987 82.1472 103.494 82.1472C104.002 82.1473 104.504 82.2051 104.973 82.3173L108.288 83.1099C109.233 83.3363 110.295 83.3369 111.241 83.1117L114.558 82.3185C115.504 82.0921 116.568 82.0921 117.514 82.3184C118.461 82.5448 119.213 82.9789 119.605 83.5254L120.978 85.439C121.37 85.9851 122.123 86.4188 123.069 86.6447L126.383 87.4406C127.329 87.667 128.081 88.1011 128.473 88.6475C128.865 89.1938 128.865 89.8077 128.473 90.3542L127.099 92.2697L127.103 92.2672Z" stroke="#07401A" stroke-width="3.795" stroke-linecap="round" stroke-linejoin="round"/>
</g>
<path d="M63.8511 94.3505L63.5117 107.039C67.1675 140.643 150.153 142.264 155.271 107.769L155.512 94.2546C155.454 87.5326 150.98 80.8208 142.089 75.6921C124.191 65.3676 95.1725 65.3676 77.2745 75.6921C68.3413 80.8453 63.8668 87.5965 63.8511 94.3505Z" stroke="black" stroke-width="3"/>
<defs>
<radialGradient id="paint0_radial_3916_19896" cx="0" cy="0" r="1" gradientUnits="userSpaceOnUse" gradientTransform="translate(109.512 106.5) rotate(92.6943) scale(85.0941 108.12)">
<stop stop-color="#D9D9D7"/>
<stop offset="1" stop-color="#D9D9D7" stop-opacity="0"/>
</radialGradient>
<clipPath id="clip0_3916_19896">
<rect width="37.2416" height="37.2416" fill="white" transform="matrix(0.866025 0.5 -0.866025 0.5 109.764 74.5)"/>
</clipPath>
</defs>
</svg>
