<svg width="339" height="243" viewBox="0 0 339 243" fill="none" xmlns="http://www.w3.org/2000/svg">
<path d="M225.954 101.874C225.235 102.286 224.987 103.203 225.399 103.921C225.811 104.64 226.728 104.889 227.446 104.476L226.7 103.175L225.954 101.874ZM273.947 41.786L273.203 43.0884L273.947 41.786ZM273.947 37.6185L273.203 36.3161L273.947 37.6185ZM300.263 60.9879L301.01 62.2891L300.263 60.9879ZM232.044 101.84C232.763 101.428 233.011 100.511 232.599 99.7923C232.187 99.0737 231.27 98.8252 230.552 99.2373L231.298 100.539L232.044 101.84ZM239.747 93.9639C239.028 94.376 238.78 95.2927 239.192 96.0113C239.604 96.73 240.521 96.9785 241.24 96.5663L240.493 95.2651L239.747 93.9639ZM250.435 91.2929C251.154 90.8808 251.402 89.9641 250.99 89.2455C250.578 88.5268 249.661 88.2784 248.942 88.6905L249.689 89.9917L250.435 91.2929ZM258.138 83.4171C257.419 83.8292 257.171 84.7459 257.583 85.4645C257.995 86.1831 258.912 86.4316 259.63 86.0195L258.884 84.7183L258.138 83.4171ZM268.826 80.7461C269.544 80.334 269.793 79.4173 269.381 78.6986C268.969 77.98 268.052 77.7315 267.333 78.1437L268.079 79.4449L268.826 80.7461ZM276.529 72.8702C275.81 73.2824 275.562 74.199 275.974 74.9177C276.386 75.6363 277.302 75.8848 278.021 75.4727L277.275 74.1715L276.529 72.8702ZM287.216 70.1993C287.935 69.7871 288.184 68.8705 287.771 68.1518C287.359 67.4332 286.443 67.1847 285.724 67.5968L286.47 68.898L287.216 70.1993ZM294.919 62.3234C294.201 62.7355 293.952 63.6522 294.364 64.3709C294.777 65.0895 295.693 65.338 296.412 64.9258L295.666 63.6246L294.919 62.3234ZM294.426 51.7608C293.707 51.3498 292.79 51.5997 292.379 52.319C291.968 53.0382 292.218 53.9545 292.938 54.3655L293.682 53.0632L294.426 51.7608ZM279.781 46.8474C280.5 47.2585 281.416 47.0086 281.828 46.2893C282.239 45.57 281.989 44.6537 281.269 44.2427L280.525 45.5451L279.781 46.8474ZM279.987 35.8945C280.706 35.4835 280.956 34.5672 280.545 33.8479C280.134 33.1286 279.218 32.8787 278.499 33.2897L279.243 34.5921L279.987 35.8945ZM289.091 27.237C288.372 27.6481 288.122 28.5643 288.533 29.2836C288.944 30.0029 289.86 30.2528 290.579 29.8418L289.835 28.5394L289.091 27.237ZM301.172 23.7891C301.891 23.3781 302.141 22.4618 301.73 21.7425C301.319 21.0232 300.402 20.7733 299.683 21.1843L300.427 22.4867L301.172 23.7891ZM310.275 15.1316C309.556 15.5427 309.306 16.4589 309.717 17.1782C310.128 17.8975 311.045 18.1474 311.764 17.7364L311.02 16.434L310.275 15.1316ZM322.356 11.6837C323.075 11.2727 323.325 10.3564 322.914 9.63709C322.503 8.91782 321.587 8.66792 320.868 9.07894L321.612 10.3813L322.356 11.6837ZM331.46 3.02623C330.741 3.43725 330.491 4.35353 330.902 5.07281C331.313 5.79208 332.229 6.04198 332.948 5.63096L332.204 4.3286L331.46 3.02623ZM226.7 103.175L227.446 104.476L232.044 101.84L231.298 100.539L230.552 99.2373L225.954 101.874L226.7 103.175ZM240.493 95.2651L241.24 96.5663L250.435 91.2929L249.689 89.9917L248.942 88.6905L239.747 93.9639L240.493 95.2651ZM258.884 84.7183L259.63 86.0195L268.826 80.7461L268.079 79.4449L267.333 78.1437L258.138 83.4171L258.884 84.7183ZM277.275 74.1715L278.021 75.4727L287.216 70.1993L286.47 68.898L285.724 67.5968L276.529 72.8702L277.275 74.1715ZM295.666 63.6246L296.412 64.9258L301.01 62.2891L300.263 60.9879L299.517 59.6867L294.919 62.3234L295.666 63.6246ZM300.263 60.9879L301.01 62.2891C303.625 60.7892 303.622 57.0157 301.004 55.5198L300.26 56.8222L299.516 58.1246C300.12 58.4698 300.121 59.3406 299.517 59.6867L300.263 60.9879ZM300.26 56.8222L301.004 55.5198L294.426 51.7608L293.682 53.0632L292.938 54.3655L299.516 58.1246L300.26 56.8222ZM280.525 45.5451L281.269 44.2427L274.691 40.4837L273.947 41.786L273.203 43.0884L279.781 46.8474L280.525 45.5451ZM273.947 41.786L274.691 40.4837C274.086 40.1382 274.086 39.2663 274.691 38.9208L273.947 37.6185L273.203 36.3161C270.583 37.8133 270.583 41.5912 273.203 43.0884L273.947 41.786ZM273.947 37.6185L274.691 38.9208L279.987 35.8945L279.243 34.5921L278.499 33.2897L273.203 36.3161L273.947 37.6185ZM289.835 28.5394L290.579 29.8418L301.172 23.7891L300.427 22.4867L299.683 21.1843L289.091 27.237L289.835 28.5394ZM311.02 16.434L311.764 17.7364L322.356 11.6837L321.612 10.3813L320.868 9.07894L310.275 15.1316L311.02 16.434ZM332.204 4.3286L332.948 5.63096L338.244 2.60461L337.5 1.30225L336.756 -0.000118619L331.46 3.02623L332.204 4.3286Z" fill="#D9D9D7"/>
<path d="M225.954 101.874C225.235 102.286 224.987 103.203 225.399 103.921C225.811 104.64 226.728 104.889 227.446 104.476L226.7 103.175L225.954 101.874ZM273.947 41.786L273.203 43.0884L273.947 41.786ZM273.947 37.6185L273.203 36.3161L273.947 37.6185ZM300.263 60.9879L301.01 62.2891L300.263 60.9879ZM232.044 101.84C232.763 101.428 233.011 100.511 232.599 99.7923C232.187 99.0737 231.27 98.8252 230.552 99.2373L231.298 100.539L232.044 101.84ZM239.747 93.9639C239.028 94.376 238.78 95.2927 239.192 96.0113C239.604 96.73 240.521 96.9785 241.24 96.5663L240.493 95.2651L239.747 93.9639ZM250.435 91.2929C251.154 90.8808 251.402 89.9641 250.99 89.2455C250.578 88.5268 249.661 88.2784 248.942 88.6905L249.689 89.9917L250.435 91.2929ZM258.138 83.4171C257.419 83.8292 257.171 84.7459 257.583 85.4645C257.995 86.1831 258.912 86.4316 259.63 86.0195L258.884 84.7183L258.138 83.4171ZM268.826 80.7461C269.544 80.334 269.793 79.4173 269.381 78.6986C268.969 77.98 268.052 77.7315 267.333 78.1437L268.079 79.4449L268.826 80.7461ZM276.529 72.8702C275.81 73.2824 275.562 74.199 275.974 74.9177C276.386 75.6363 277.302 75.8848 278.021 75.4727L277.275 74.1715L276.529 72.8702ZM287.216 70.1993C287.935 69.7871 288.184 68.8705 287.771 68.1518C287.359 67.4332 286.443 67.1847 285.724 67.5968L286.47 68.898L287.216 70.1993ZM294.919 62.3234C294.201 62.7355 293.952 63.6522 294.364 64.3709C294.777 65.0895 295.693 65.338 296.412 64.9258L295.666 63.6246L294.919 62.3234ZM294.426 51.7608C293.707 51.3498 292.79 51.5997 292.379 52.319C291.968 53.0382 292.218 53.9545 292.938 54.3655L293.682 53.0632L294.426 51.7608ZM279.781 46.8474C280.5 47.2585 281.416 47.0086 281.828 46.2893C282.239 45.57 281.989 44.6537 281.269 44.2427L280.525 45.5451L279.781 46.8474ZM279.987 35.8945C280.706 35.4835 280.956 34.5672 280.545 33.8479C280.134 33.1286 279.218 32.8787 278.499 33.2897L279.243 34.5921L279.987 35.8945ZM289.091 27.237C288.372 27.6481 288.122 28.5643 288.533 29.2836C288.944 30.0029 289.86 30.2528 290.579 29.8418L289.835 28.5394L289.091 27.237ZM301.172 23.7891C301.891 23.3781 302.141 22.4618 301.73 21.7425C301.319 21.0232 300.402 20.7733 299.683 21.1843L300.427 22.4867L301.172 23.7891ZM310.275 15.1316C309.556 15.5427 309.306 16.4589 309.717 17.1782C310.128 17.8975 311.045 18.1474 311.764 17.7364L311.02 16.434L310.275 15.1316ZM322.356 11.6837C323.075 11.2727 323.325 10.3564 322.914 9.63709C322.503 8.91782 321.587 8.66792 320.868 9.07894L321.612 10.3813L322.356 11.6837ZM331.46 3.02623C330.741 3.43725 330.491 4.35353 330.902 5.07281C331.313 5.79208 332.229 6.04198 332.948 5.63096L332.204 4.3286L331.46 3.02623ZM226.7 103.175L227.446 104.476L232.044 101.84L231.298 100.539L230.552 99.2373L225.954 101.874L226.7 103.175ZM240.493 95.2651L241.24 96.5663L250.435 91.2929L249.689 89.9917L248.942 88.6905L239.747 93.9639L240.493 95.2651ZM258.884 84.7183L259.63 86.0195L268.826 80.7461L268.079 79.4449L267.333 78.1437L258.138 83.4171L258.884 84.7183ZM277.275 74.1715L278.021 75.4727L287.216 70.1993L286.47 68.898L285.724 67.5968L276.529 72.8702L277.275 74.1715ZM295.666 63.6246L296.412 64.9258L301.01 62.2891L300.263 60.9879L299.517 59.6867L294.919 62.3234L295.666 63.6246ZM300.263 60.9879L301.01 62.2891C303.625 60.7892 303.622 57.0157 301.004 55.5198L300.26 56.8222L299.516 58.1246C300.12 58.4698 300.121 59.3406 299.517 59.6867L300.263 60.9879ZM300.26 56.8222L301.004 55.5198L294.426 51.7608L293.682 53.0632L292.938 54.3655L299.516 58.1246L300.26 56.8222ZM280.525 45.5451L281.269 44.2427L274.691 40.4837L273.947 41.786L273.203 43.0884L279.781 46.8474L280.525 45.5451ZM273.947 41.786L274.691 40.4837C274.086 40.1382 274.086 39.2663 274.691 38.9208L273.947 37.6185L273.203 36.3161C270.583 37.8133 270.583 41.5912 273.203 43.0884L273.947 41.786ZM273.947 37.6185L274.691 38.9208L279.987 35.8945L279.243 34.5921L278.499 33.2897L273.203 36.3161L273.947 37.6185ZM289.835 28.5394L290.579 29.8418L301.172 23.7891L300.427 22.4867L299.683 21.1843L289.091 27.237L289.835 28.5394ZM311.02 16.434L311.764 17.7364L322.356 11.6837L321.612 10.3813L320.868 9.07894L310.275 15.1316L311.02 16.434ZM332.204 4.3286L332.948 5.63096L338.244 2.60461L337.5 1.30225L336.756 -0.000118619L331.46 3.02623L332.204 4.3286Z" fill="url(#paint0_linear_3911_18773)"/>
<rect x="0.866025" width="36.041" height="36.041" rx="4.3" transform="matrix(0.866025 -0.5 0.866025 0.5 28.0164 154.656)" fill="#D0EC1A" stroke="#6E6E6A"/>
<rect x="0.866025" width="99.7122" height="13.2079" rx="4.3" transform="matrix(0.866025 -0.5 0.866025 0.5 65.616 177.691)" stroke="#6E6E6A"/>
<rect x="0.866025" width="142.509" height="13.2079" rx="4.3" transform="matrix(0.866025 -0.5 0.866025 0.5 83.2156 188.891)" stroke="#6E6E6A"/>
<rect x="0.866025" width="144.591" height="13.2079" rx="4.3" transform="matrix(0.866025 -0.5 0.866025 0.5 100.016 200.891)" stroke="#6E6E6A"/>
<path d="M1.5 154.903L120.3 222.895M120.3 222.895V240.895M120.3 222.895C182.269 186.985 220.707 164.711 276.288 132.503" stroke="#6E6E6A"/>
<path d="M1.5 171.306V157.685C1.5 155.965 2.42093 154.376 3.91386 153.52L156.224 66.2593C157.692 65.4182 159.494 65.4122 160.968 66.2434L274.763 130.431C276.271 131.282 277.204 132.879 277.204 134.611V148.521C277.204 150.241 276.284 151.83 274.791 152.686L122.486 239.943C121.015 240.786 119.209 240.791 117.734 239.955L3.93392 175.482C2.42971 174.63 1.5 173.035 1.5 171.306Z" stroke="#131310" stroke-width="3"/>
<defs>
<linearGradient id="paint0_linear_3911_18773" x1="344.5" y1="11.3027" x2="276.5" y2="55.3027" gradientUnits="userSpaceOnUse">
<stop offset="0.173077" stop-color="white"/>
<stop offset="1" stop-color="white" stop-opacity="0"/>
</linearGradient>
</defs>
</svg>
