<svg width="220" height="200" viewBox="0 0 220 200" fill="none" xmlns="http://www.w3.org/2000/svg">
<path d="M136.512 52.5108L163.512 37.0853M136.512 52.5108L163.512 67.9363M136.512 52.5108L109.512 67.9363M163.512 37.0853L190.512 52.5108M163.512 37.0853L190.512 21.6599L217.512 37.0853M163.512 37.0853L136.512 21.5L109.512 37.0853M190.512 52.5108L163.512 67.9363M190.512 52.5108L217.512 37.0853M190.512 52.5108L217.512 67.9363L190.512 83.3618M163.512 67.9363L136.512 83.3618M163.512 67.9363L190.512 83.3618M163.512 67.9363L109.512 98.7873M163.512 67.9363L217.512 98.7873M163.512 67.9363L217.512 37.0853M163.512 67.9363L109.512 37.0853M1.51172 98.7873L28.5117 83.3618M1.51172 98.7873L28.5117 114.213M1.51172 98.7873L55.5117 67.9363M1.51172 98.7873L55.5117 129.638M1.51172 98.7873L109.512 37.0853M1.51172 98.7873L109.512 160.489M28.5117 83.3618L55.5117 98.7873M28.5117 83.3618L55.5117 67.9363M28.5117 83.3618L1.51172 67.9363L28.5117 52.5108M55.5117 98.7873L28.5117 114.213M55.5117 98.7873L82.5117 114.213M55.5117 98.7873L82.5117 83.3618M28.5117 114.213L55.5117 129.638M28.5117 114.213L1.51172 129.638L28.5117 145.064M109.512 98.7873L136.512 83.3618M109.512 98.7873L136.512 114.213M109.512 98.7873L82.5117 83.3618M109.512 98.7873L82.5117 114.213M109.512 98.7873L55.5117 67.9363M109.512 98.7873L55.5117 129.638M109.512 98.7873L163.512 129.638M136.512 83.3618L163.512 98.7873M136.512 83.3618L109.512 67.9363M163.512 98.7873L136.512 114.213M163.512 98.7873L190.512 114.213M163.512 98.7873L190.512 83.3618M136.512 114.213L163.512 129.638M136.512 114.213L109.512 129.638M55.5117 67.9363L82.5117 52.5108M55.5117 67.9363L82.5117 83.3618M55.5117 67.9363L28.5117 52.5108M55.5117 67.9363L1.51172 37.0853M55.5117 67.9363L109.512 37.0853M82.5117 52.5108L109.512 67.9363M82.5117 52.5108L109.512 37.0853M82.5117 52.5108L55.5117 37.0853M109.512 67.9363L82.5117 83.3618M82.5117 114.213L55.5117 129.638M82.5117 114.213L109.512 129.638M55.5117 129.638L28.5117 145.064M55.5117 129.638L82.5117 145.064M55.5117 129.638L1.51172 160.489M55.5117 129.638L109.512 160.489M190.512 114.213L163.512 129.638M190.512 114.213L217.512 98.7873M190.512 114.213L217.512 129.638L190.512 145.064M163.512 129.638L190.512 145.064M163.512 129.638L136.512 145.064M163.512 129.638L217.512 98.7873M163.512 129.638L217.512 160.489M163.512 129.638L109.512 160.489M190.512 83.3618L217.512 98.7873M217.512 98.7873L109.512 37.0853M217.512 98.7873L109.512 160.489M190.512 145.064L163.512 160.489M190.512 145.064L217.512 160.489M136.512 145.064L163.512 160.489M136.512 145.064L109.512 129.638M136.512 145.064L109.512 160.489M163.512 160.489L136.512 175.915M163.512 160.489L190.512 175.915L217.512 160.489M28.5117 145.064L55.5117 160.489M28.5117 145.064L1.51172 160.489M82.5117 145.064L55.5117 160.489M82.5117 145.064L109.512 129.638M82.5117 145.064L109.512 160.489M55.5117 160.489L28.5117 175.915L1.51172 160.489M55.5117 160.489L82.5117 175.915M28.5117 52.5108L55.5117 37.0853M28.5117 52.5108L1.51172 37.0853M1.51172 37.0853L28.5117 21.6599L55.5117 37.0853M55.5117 37.0853L82.5117 21.6599L109.512 37.0853M109.512 160.489L136.512 175.915M109.512 160.489L82.5117 175.915M136.512 175.915L163.512 191.34L217.512 160.489M136.512 175.915L109.512 191.5L82.5117 175.915M82.5117 175.915L55.5117 191.34L1.51172 160.489" stroke="url(#paint0_radial_3924_18414)" stroke-width="1.5"/>
<path d="M63.8511 94.3505L63.5117 107.039C67.1675 140.643 150.153 142.264 155.271 107.769L155.512 94.2546C155.454 87.5326 150.98 80.8208 142.089 75.6921C124.191 65.3676 95.1725 65.3676 77.2745 75.6921C68.3413 80.8453 63.8668 87.5965 63.8511 94.3505Z" fill="white" stroke="black" stroke-width="3"/>
<path d="M155.54 93.0736C155.766 100.041 151.274 107.051 142.065 112.368C124.086 122.748 94.9373 122.748 76.9588 112.368C67.7494 107.051 63.2575 100.041 63.483 93.0736" stroke="black"/>
<path d="M76.9848 75.2607C94.9489 64.9118 124.075 64.9118 142.039 75.2607C160.003 85.6096 160.003 102.388 142.039 112.737C124.075 123.086 94.9489 123.086 76.9848 112.737C59.0207 102.388 59.0207 85.6096 76.9848 75.2607Z" fill="#DC2626" stroke="#6E6E6A"/>
<g clip-path="url(#clip0_3924_18414)">
<path d="M123.202 93.121H96.3253M109.764 85.3623V100.88" stroke="#FEF2F2" stroke-width="3.795" stroke-linecap="round" stroke-linejoin="round"/>
</g>
<path d="M63.8511 94.3505L63.5117 107.039C67.1675 140.643 150.153 142.264 155.271 107.769L155.512 94.2546C155.454 87.5326 150.98 80.8208 142.089 75.6921C124.191 65.3676 95.1725 65.3676 77.2745 75.6921C68.3413 80.8453 63.8668 87.5965 63.8511 94.3505Z" stroke="black" stroke-width="3"/>
<defs>
<radialGradient id="paint0_radial_3924_18414" cx="0" cy="0" r="1" gradientUnits="userSpaceOnUse" gradientTransform="translate(109.512 106.5) rotate(92.6943) scale(85.0941 108.12)">
<stop stop-color="#D9D9D7"/>
<stop offset="1" stop-color="#D9D9D7" stop-opacity="0"/>
</radialGradient>
<clipPath id="clip0_3924_18414">
<rect width="37.2416" height="37.2416" fill="white" transform="matrix(0.866025 0.5 -0.866025 0.5 109.764 74.5)"/>
</clipPath>
</defs>
</svg>
