<svg preserveAspectRatio="none" width="100%" height="100%" overflow="visible" style="display: block;" viewBox="0 0 20 20" fill="none" xmlns="http://www.w3.org/2000/svg">
<g id="Frame">
<path id="Vector" d="M4.77457 12.0172H1.57405C1.36173 12.0172 1.16514 11.9074 1.06291 11.7191C0.952818 11.4994 0.992136 11.2404 1.16514 11.0757L3.39056 8.85522H1.79423C1.35387 8.85522 1 8.49429 1 8.06275H3.94889C4.16121 8.06275 4.3578 8.1726 4.46003 8.36091C4.57012 8.5806 4.5308 8.83952 4.3578 9.00429L2.13237 11.2248H3.98034C4.42071 11.2248 4.77457 11.5857 4.77457 12.0172ZM17.4509 7.99999C16.9948 7.99999 16.578 8.19614 16.2949 8.51783C16.0118 8.20399 15.595 7.99999 15.1389 7.99999C14.2896 7.99999 13.5898 8.72183 13.5898 9.56922V12.0172C14.0301 12.0172 14.384 11.6641 14.384 11.2248V9.56137C14.384 9.15337 14.6986 8.80814 15.1075 8.79245C15.54 8.77675 15.8938 9.12199 15.8938 9.54568V11.2248C15.8938 11.6641 16.2477 12.0172 16.6881 12.0172V9.56137C16.6881 9.15337 17.0026 8.80814 17.4115 8.79245C17.844 8.77675 18.1979 9.12199 18.1979 9.54568V11.2248C18.1979 11.6641 18.5518 12.0172 18.9921 12.0172V9.56922C19 8.72183 18.3001 7.99999 17.4509 7.99999ZM8.78506 10.04C8.78506 11.162 7.86501 12.08 6.7405 12.08C5.60813 12.08 4.69594 11.162 4.69594 10.04C4.69594 8.91799 5.61599 7.99999 6.7405 7.99999C7.86501 7.99999 8.78506 8.91799 8.78506 10.04ZM7.99083 10.04C7.99083 9.34952 7.4325 8.79245 6.7405 8.79245C6.04849 8.79245 5.49017 9.34952 5.49017 10.04C5.49017 10.7304 6.04849 11.2875 6.7405 11.2875C7.4325 11.2875 7.99083 10.7304 7.99083 10.04ZM13.1966 10.04C13.1966 11.162 12.2765 12.08 11.152 12.08C10.0197 12.08 9.10747 11.162 9.10747 10.04C9.10747 8.91799 10.0275 7.99999 11.152 7.99999C12.2765 7.99999 13.1966 8.91799 13.1966 10.04ZM12.4024 10.04C12.4024 9.34952 11.844 8.79245 11.152 8.79245C10.46 8.79245 9.9017 9.34952 9.9017 10.04C9.9017 10.7304 10.46 11.2875 11.152 11.2875C11.844 11.2875 12.4024 10.7304 12.4024 10.04Z" fill="var(--fill-0, #0B5CFF)"/>
</g>
</svg>
