<svg preserveAspectRatio="none" width="100%" height="100%" overflow="visible" style="display: block;" viewBox="0 0 20 20" fill="none" xmlns="http://www.w3.org/2000/svg">
<g id="Frame">
<path id="Vector" d="M11.4409 3.89189C10.7269 3.0452 10.1121 2.18528 9.9931 2.00668C9.97988 1.99345 9.96005 1.99345 9.94683 2.00668C9.82122 2.18528 9.20638 3.0452 8.49238 3.89189C2.37049 11.704 9.4576 16.9759 9.4576 16.9759L9.5171 17.0156C9.56999 17.8292 9.70222 19.0001 9.70222 19.0001H9.96666H10.2311C10.2311 19.0001 10.3633 17.8359 10.4162 17.0156L10.4757 16.9693C10.4757 16.9759 17.5628 11.704 11.4409 3.89189ZM9.96666 16.8569C9.96666 16.8569 9.64933 16.5857 9.56338 16.4468V16.4335L9.94683 7.92691C9.94683 7.90045 9.98649 7.90045 9.98649 7.92691L10.3633 16.4335V16.4468C10.2774 16.5857 9.96666 16.8569 9.96666 16.8569Z" fill="var(--fill-0, #00684A)"/>
</g>
</svg>
