<svg preserveAspectRatio="none" width="100%" height="100%" overflow="visible" style="display: block;" viewBox="0 0 20 20" fill="none" xmlns="http://www.w3.org/2000/svg">
<g id="Frame">
<path id="Vector" d="M11.1031 17.7341C10.6943 18.2489 9.86556 17.9668 9.85571 17.3096L9.71169 7.69646H16.1755C17.3463 7.69646 17.9993 9.04872 17.2713 9.96564L11.1031 17.7341Z" fill="url(#paint0_linear_3945_21428)"/>
<path id="Vector_2" d="M11.1031 17.7341C10.6943 18.2489 9.86556 17.9668 9.85571 17.3096L9.71169 7.69646H16.1755C17.3463 7.69646 17.9993 9.04872 17.2713 9.96564L11.1031 17.7341Z" fill="url(#paint1_linear_3945_21428)" fill-opacity="0.2"/>
<path id="Vector_3" d="M8.47424 2.26585C8.88299 1.75106 9.71177 2.03313 9.72162 2.69039L9.78473 12.3035H3.40177C2.23096 12.3035 1.57798 10.9512 2.30602 10.0343L8.47424 2.26585Z" fill="var(--fill-0, #3ECF8E)"/>
</g>
<defs>
<linearGradient id="paint0_linear_3945_21428" x1="9.71169" y1="9.82793" x2="15.4565" y2="12.2373" gradientUnits="userSpaceOnUse">
<stop stop-color="#249361"/>
<stop offset="1" stop-color="#3ECF8E"/>
</linearGradient>
<linearGradient id="paint1_linear_3945_21428" x1="7.16473" y1="6.34069" x2="9.78468" y2="11.2726" gradientUnits="userSpaceOnUse">
<stop/>
<stop offset="1" stop-opacity="0"/>
</linearGradient>
</defs>
</svg>
