<svg width="200" height="200" viewBox="0 0 200 200" fill="none" xmlns="http://www.w3.org/2000/svg">
<rect width="200" height="200" rx="40" fill="#D0EC1A"/>
<path d="M79.8643 161.651C64.1138 161.651 51.606 155.629 44.194 144.974C36.3187 133.856 35.3922 118.106 41.4145 101.429C49.753 79.6558 69.6728 66.2216 93.7618 66.2216H94.2251C94.2251 65.7583 94.2251 65.2951 94.2251 64.3685C93.7618 56.4933 98.8576 49.5445 106.27 47.2283L128.042 38.8898C130.359 37.9633 132.675 37.5 134.991 37.5C141.94 37.5 148.425 41.206 151.668 47.6915L160.47 66.2216C163.249 71.7806 163.249 78.7293 160.007 83.8251C156.764 88.9208 151.668 91.7003 146.109 92.1636C144.719 94.9431 143.793 97.7226 142.403 100.039C139.624 106.524 136.844 113.01 133.601 119.959C121.557 144.974 108.123 161.651 79.8643 161.651Z" fill="#07401A"/>
<path d="M79.8641 145.438C97.4676 145.438 107.196 137.562 118.777 113.01C125.263 99.5758 130.358 86.1415 136.381 73.1705L143.793 75.4867C145.646 75.95 147.035 75.0235 146.109 73.1705L136.844 55.1037C136.381 53.714 134.528 53.714 133.601 54.1772L111.365 62.5157C109.512 62.979 109.512 64.832 111.365 65.2952L117.851 67.6115C112.292 79.656 105.806 98.186 100.247 109.767C94.2249 122.738 91.4454 131.54 80.7906 131.54C70.1359 131.54 68.7461 123.665 73.3786 112.084C78.4744 98.6493 86.8129 94.9433 96.0779 97.7228C98.8574 94.0168 100.71 88.4578 101.637 83.362C98.8574 82.4355 95.6146 82.4355 92.8351 82.4355C77.5479 82.4355 62.2606 90.3108 55.7751 106.988C48.8263 128.761 56.2383 145.438 79.8641 145.438Z" fill="#D0EC1A"/>
</svg>
