<svg preserveAspectRatio="none" width="100%" height="100%" overflow="visible" style="display: block;" viewBox="0 0 20 20" fill="none" xmlns="http://www.w3.org/2000/svg">
<g id="Frame">
<path id="Vector" fill-rule="evenodd" clip-rule="evenodd" d="M16.1084 2.00002H3.89162C2.84071 2.00002 1.99999 2.84075 1.99999 3.89165V16.0821C1.99999 17.133 2.84071 17.9737 3.89162 17.9737H16.0821C17.133 17.9737 17.9737 17.133 17.9737 16.0821V3.91792C18 2.84075 17.1593 2.00002 16.1084 2.00002ZM8.88341 13.5337C8.88341 13.8752 8.59441 14.1642 8.25287 14.1642H5.59934C5.25779 14.1642 4.96879 13.8752 4.96879 13.5337V5.59937C4.96879 5.25782 5.25779 4.96882 5.59934 4.96882H8.27914C8.62068 4.96882 8.90968 5.25782 8.90968 5.59937V13.5337H8.88341ZM15.0575 9.8818C15.0575 10.2233 14.7947 10.5123 14.4269 10.5386C14.4269 10.5386 14.4269 10.5386 14.4006 10.5386H11.7471C11.4056 10.5386 11.1166 10.2496 11.1166 9.90807V5.59937C11.1166 5.25782 11.4056 4.96882 11.7471 4.96882H14.4269C14.7685 4.96882 15.0575 5.25782 15.0575 5.59937V9.8818Z" fill="url(#paint0_linear_3945_21538)"/>
</g>
<defs>
<linearGradient id="paint0_linear_3945_21538" x1="10.0052" y1="18.0105" x2="10.0052" y2="2.00002" gradientUnits="userSpaceOnUse">
<stop stop-color="#0052CC"/>
<stop offset="1" stop-color="#2684FF"/>
</linearGradient>
</defs>
</svg>
