<svg preserveAspectRatio="none" width="100%" height="100%" overflow="visible" style="display: block;" viewBox="0 0 20 20" fill="none" xmlns="http://www.w3.org/2000/svg">
<g id="Frame">
<path id="Vector" d="M15.0021 2H4.99744C4.2025 2 3.44011 2.31579 2.87801 2.8779C2.3159 3.44001 2.00011 4.20239 2.00011 4.99733V15.002C2.00002 15.3957 2.07748 15.7855 2.22807 16.1492C2.37866 16.513 2.59943 16.8435 2.87777 17.1219C3.15611 17.4003 3.48656 17.6211 3.85026 17.7718C4.21395 17.9225 4.60377 18 4.99744 18H15.0021C15.3958 18.0001 15.7857 17.9226 16.1495 17.772C16.5133 17.6213 16.8438 17.4005 17.1222 17.1221C17.4006 16.8437 17.6214 16.5132 17.7721 16.1494C17.9227 15.7856 18.0002 15.3957 18.0001 15.002V4.99733C18.0001 4.60366 17.9226 4.21385 17.7719 3.85015C17.6212 3.48645 17.4004 3.156 17.122 2.87766C16.8436 2.59933 16.5131 2.37856 16.1493 2.22797C15.7856 2.07738 15.3958 1.99991 15.0021 2Z" fill="url(#paint0_linear_3945_21264)"/>
<path id="Vector_2" d="M8.4841 9.5734C8.5382 9.5734 8.59009 9.5949 8.62835 9.63315C8.6666 9.67141 8.6881 9.7233 8.6881 9.7774C8.6881 9.83151 8.6666 9.8834 8.62835 9.92165C8.59009 9.95991 8.5382 9.9814 8.4841 9.9814C8.42999 9.9814 8.3781 9.95991 8.33985 9.92165C8.30159 9.8834 8.2801 9.83151 8.2801 9.7774C8.2801 9.7233 8.30159 9.67141 8.33985 9.63315C8.3781 9.5949 8.42999 9.5734 8.4841 9.5734Z" fill="url(#paint1_linear_3945_21264)"/>
<path id="Vector_3" fill-rule="evenodd" clip-rule="evenodd" d="M7.60546 8.37393C7.62746 8.36793 7.64879 8.37527 7.66946 8.39593C7.76613 8.49593 7.86413 8.5946 7.96279 8.69393L7.97679 8.7046C7.98346 8.70793 7.98813 8.7106 7.99279 8.71127L8.39813 8.81593C8.42613 8.8226 8.44346 8.83793 8.44946 8.85993C8.45546 8.88327 8.44813 8.9046 8.42746 8.92527L8.12946 9.21793C8.12524 9.2223 8.12165 9.22724 8.11879 9.2326C8.11588 9.23762 8.11364 9.243 8.11213 9.2486L8.00746 9.65327C8.00079 9.68127 7.98546 9.6986 7.96279 9.7046C7.94013 9.71127 7.91879 9.70327 7.89879 9.6826L7.60546 9.38527C7.59657 9.3769 7.58584 9.37073 7.57413 9.36727C7.43946 9.33193 7.30413 9.29727 7.16946 9.26327C7.14146 9.2566 7.12413 9.24127 7.11813 9.21793C7.11146 9.19593 7.11946 9.17393 7.14013 9.15393C7.24013 9.0566 7.33879 8.95927 7.43813 8.8606C7.44234 8.85647 7.44593 8.85176 7.44879 8.8466C7.45175 8.84137 7.45399 8.83576 7.45546 8.82993L7.56013 8.42527C7.56679 8.39727 7.58213 8.37993 7.60546 8.37393Z" fill="url(#paint2_linear_3945_21264)"/>
<path id="Vector_4" d="M11.9134 8.65463C11.9412 8.65304 11.9691 8.65715 11.9953 8.6667C12.0214 8.67625 12.0454 8.69104 12.0656 8.71017C12.0859 8.7293 12.102 8.75237 12.1131 8.77795C12.1241 8.80354 12.1298 8.8311 12.1298 8.85896C12.1298 8.88682 12.1241 8.91439 12.1131 8.93998C12.102 8.96556 12.0859 8.98863 12.0656 9.00776C12.0454 9.02689 12.0214 9.04168 11.9953 9.05123C11.9691 9.06078 11.9412 9.06489 11.9134 9.0633C11.8613 9.06032 11.8122 9.03749 11.7763 8.9995C11.7404 8.9615 11.7204 8.91122 11.7204 8.85896C11.7204 8.8067 11.7404 8.75642 11.7763 8.71843C11.8122 8.68044 11.8613 8.65761 11.9134 8.65463Z" fill="url(#paint3_linear_3945_21264)"/>
<path id="Vector_5" fill-rule="evenodd" clip-rule="evenodd" d="M11.0354 7.45803C11.0588 7.45137 11.0801 7.45937 11.1001 7.47937L11.3921 7.77803C11.4009 7.78607 11.4114 7.792 11.4228 7.79537L11.8268 7.9007C11.8548 7.90737 11.8714 7.9227 11.8781 7.94603C11.8841 7.96803 11.8768 7.98937 11.8554 8.00937L11.5574 8.30137C11.5493 8.31015 11.5431 8.32062 11.5394 8.33203L11.4348 8.73537C11.4281 8.76337 11.4121 8.7807 11.3894 8.7867C11.3668 8.7927 11.3454 8.78537 11.3254 8.7647C11.2288 8.6647 11.1314 8.56537 11.0341 8.4667C11.0298 8.46219 11.0249 8.45836 11.0194 8.45537C11.0143 8.45232 11.0086 8.45007 11.0028 8.4487L10.5994 8.34337C10.5714 8.3367 10.5541 8.32137 10.5481 8.2987C10.5421 8.27603 10.5494 8.2547 10.5701 8.2347C10.6701 8.13803 10.7688 8.0407 10.8681 7.94337C10.8726 7.93907 10.8764 7.93413 10.8794 7.9287C10.8824 7.92347 10.8847 7.91786 10.8861 7.91203L10.9914 7.5087C10.9981 7.4807 11.0134 7.46337 11.0354 7.45803Z" fill="url(#paint4_linear_3945_21264)"/>
<path id="Vector_6" fill-rule="evenodd" clip-rule="evenodd" d="M8.04343 4.22867C8.52499 4.03079 9.04917 3.95941 9.5661 4.02133C10.2328 4.09733 10.8268 4.38133 11.3481 4.87067C11.355 4.87741 11.3636 4.88229 11.3729 4.88486C11.3822 4.88742 11.392 4.88759 11.4014 4.88533C12.0792 4.71025 12.7967 4.77503 13.4321 5.06867L13.4634 5.08267L13.5408 5.12133C14.2059 5.45826 14.7247 6.02689 14.9994 6.72C15.1388 7.06 15.2088 7.414 15.2101 7.78333C15.2201 8.06 15.1901 8.332 15.1201 8.59933C15.1164 8.61285 15.1162 8.6271 15.1198 8.64068C15.1233 8.65425 15.1303 8.66666 15.1401 8.67667C15.5361 9.08067 15.7988 9.56267 15.9288 10.122C16.1214 11.0727 15.9241 11.9287 15.3374 12.692L15.2468 12.8027C14.8582 13.2473 14.3482 13.5686 13.7794 13.7273C13.7671 13.731 13.7558 13.7375 13.7465 13.7465C13.7372 13.7554 13.7302 13.7664 13.7261 13.7787C13.5988 14.146 13.4701 14.4607 13.2321 14.7747C12.6321 15.5653 11.7514 16.0053 10.7581 16C9.96676 15.996 9.26476 15.7067 8.65343 15.132C8.64419 15.1232 8.63275 15.1171 8.6203 15.1143C8.60786 15.1114 8.59489 15.112 8.58276 15.116C8.3241 15.1993 8.06276 15.212 7.78076 15.2087C7.33026 15.205 6.88655 15.0985 6.48343 14.8973C6.06122 14.688 5.69369 14.383 5.4101 14.0067C5.30876 13.8727 5.2081 13.746 5.13476 13.596C5.03373 13.3902 4.95118 13.1758 4.8881 12.9553C4.75494 12.4535 4.75196 11.926 4.87943 11.4227C4.88333 11.4109 4.88447 11.3983 4.88276 11.386C4.88053 11.3736 4.87419 11.3623 4.86476 11.354C4.55655 11.0424 4.32095 10.6665 4.17476 10.2533C4.07789 9.99882 4.02165 9.73066 4.0081 9.45867C3.98381 9.10039 4.01553 8.74051 4.1021 8.392C4.32676 7.65067 4.75676 7.06867 5.39076 6.646C5.5321 6.55267 5.66543 6.47933 5.79143 6.42667C5.93476 6.36667 6.0781 6.31667 6.2221 6.27467C6.23237 6.27165 6.24172 6.2661 6.24929 6.25852C6.25686 6.25095 6.26241 6.24161 6.26543 6.23133C6.37449 5.83851 6.5623 5.47197 6.81743 5.154C7.13962 4.74516 7.56192 4.42643 8.04343 4.22867ZM8.52543 8.052C7.94876 7.64267 7.1601 7.84533 6.8701 8.48933C6.71943 8.82267 6.6901 9.17333 6.78143 9.54267L6.85343 9.836L6.98343 10.3107C7.03676 10.5773 7.1381 10.8207 7.28943 11.0413L7.3041 11.0627C7.3841 11.1573 7.4721 11.244 7.56676 11.322C8.25943 11.8913 9.2041 11.5113 9.39276 10.6607L9.41743 10.554L9.4241 10.514C9.45343 10.314 9.4441 10.118 9.39743 9.926C9.31377 9.58692 9.22264 9.24973 9.1241 8.91467C9.01543 8.54533 8.8161 8.258 8.52543 8.052ZM12.0774 7.22867C11.6468 6.82867 10.9821 6.81333 10.5541 7.216C10.3874 7.37267 10.2708 7.584 10.2054 7.84867C10.1404 8.11723 10.1404 8.39744 10.2054 8.666L10.2121 8.69267L10.2401 8.78333C10.3034 8.99333 10.3621 9.2 10.4161 9.40333C10.4728 9.61467 10.5174 9.75667 10.5521 9.82867C10.8388 10.432 11.4621 10.866 12.1401 10.5893C12.7708 10.332 12.9601 9.58467 12.8174 8.97933C12.7961 8.88773 12.7727 8.7966 12.7474 8.706C12.6474 8.31733 12.5768 8.05533 12.5334 7.92C12.4445 7.65367 12.2872 7.4153 12.0774 7.22867Z" fill="url(#paint5_linear_3945_21264)"/>
</g>
<defs>
<linearGradient id="paint0_linear_3945_21264" x1="10.0001" y1="2" x2="10.0001" y2="18" gradientUnits="userSpaceOnUse">
<stop stop-color="#012659"/>
<stop offset="1" stop-color="#0968DA"/>
</linearGradient>
<linearGradient id="paint1_linear_3945_21264" x1="8.57276" y1="4.00007" x2="11.4794" y2="16.0114" gradientUnits="userSpaceOnUse">
<stop stop-color="white"/>
<stop offset="1" stop-color="#6BB6FE"/>
</linearGradient>
<linearGradient id="paint2_linear_3945_21264" x1="8.57279" y1="3.99993" x2="11.4795" y2="16.0113" gradientUnits="userSpaceOnUse">
<stop stop-color="white"/>
<stop offset="1" stop-color="#6BB6FE"/>
</linearGradient>
<linearGradient id="paint3_linear_3945_21264" x1="8.57277" y1="3.99996" x2="11.4794" y2="16.0113" gradientUnits="userSpaceOnUse">
<stop stop-color="white"/>
<stop offset="1" stop-color="#6BB6FE"/>
</linearGradient>
<linearGradient id="paint4_linear_3945_21264" x1="8.57278" y1="4.00003" x2="11.4794" y2="16.0114" gradientUnits="userSpaceOnUse">
<stop stop-color="white"/>
<stop offset="1" stop-color="#6BB6FE"/>
</linearGradient>
<linearGradient id="paint5_linear_3945_21264" x1="8.57276" y1="4" x2="11.4794" y2="16.0113" gradientUnits="userSpaceOnUse">
<stop stop-color="white"/>
<stop offset="1" stop-color="#6BB6FE"/>
</linearGradient>
</defs>
</svg>
