<svg width="336" height="320" viewBox="0 0 336 320" fill="none" xmlns="http://www.w3.org/2000/svg" xmlns:xlink="http://www.w3.org/1999/xlink">
<path opacity="0.5" d="M132 290L14 222L204 109L322.5 181L132 290Z" fill="#F5F5F4"/>
<path d="M13 141.049V218.94C13 220.235 14.388 221.056 15.5231 220.433L202.886 117.551C203.431 117.252 203.769 116.68 203.769 116.058V33.9844C203.769 32.6766 202.356 31.8567 201.221 32.5055L13.8582 139.57C13.3275 139.873 13 140.438 13 141.049Z" fill="url(#pattern0_3914_19561)"/>
<path d="M13 221.819L203.769 112.808M203.769 112.808L323 180.939M203.769 112.808V31.0493" stroke="#6E6E6A" stroke-linecap="round" stroke-dasharray="5.11 5.11"/>
<path d="M220.816 200.413L176.53 175.107C175.469 174.5 174.813 173.372 174.813 172.149V162.477C174.813 161.254 175.469 160.126 176.53 159.519L220.816 134.213C221.863 133.614 223.149 133.614 224.196 134.213L268.482 159.519C269.543 160.126 270.198 161.254 270.198 162.477V172.149C270.198 173.372 269.543 174.5 268.482 175.107L224.196 200.413C223.149 201.012 221.863 201.012 220.816 200.413Z" fill="white" stroke="#F5F5F4" stroke-width="2"/>
<path d="M223.362 138.855L259.076 159.618C260.222 160.284 260.201 161.945 259.04 162.583L223.326 182.193C222.815 182.473 222.197 182.473 221.686 182.193L185.972 162.583C184.811 161.945 184.79 160.284 185.936 159.618L221.65 138.855C222.179 138.547 222.833 138.547 223.362 138.855Z" stroke="#F5F5F4"/>
<g clip-path="url(#clip1_3914_19561)">
<g clip-path="url(#clip2_3914_19561)">
<path d="M220.072 170.523C219.87 170.451 219.962 170.278 220.2 170.278L232.849 170.278C233.087 170.278 233.18 170.451 232.977 170.523C229.037 171.934 224.012 171.934 220.072 170.523ZM217.326 169.182C217.372 169.212 217.438 169.229 217.508 169.229L235.541 169.229C235.611 169.229 235.677 169.212 235.723 169.182C236.108 168.931 236.457 168.667 236.769 168.394C236.874 168.301 236.757 168.181 236.566 168.181L216.483 168.181C216.292 168.181 216.175 168.301 216.28 168.394C216.593 168.667 216.941 168.931 217.326 169.182ZM215.079 167.043C215.114 167.097 215.205 167.132 215.305 167.132L237.744 167.132C237.844 167.132 237.935 167.097 237.971 167.043C238.142 166.785 238.287 166.522 238.404 166.256C238.443 166.168 238.326 166.084 238.169 166.084L214.88 166.084C214.723 166.084 214.606 166.168 214.645 166.256C214.763 166.522 214.907 166.785 215.079 167.043ZM214.527 165.035C214.399 165.035 214.292 164.978 214.285 164.904C214.095 162.962 215.286 160.983 217.856 159.498C222.644 156.734 230.406 156.734 235.193 159.498C237.764 160.983 238.954 162.962 238.764 164.904C238.757 164.978 238.65 165.035 238.522 165.035L214.527 165.035Z" fill="#F5F5F4"/>
</g>
</g>
<path d="M175.665 161.352L222.506 187.753M222.506 187.753L269.346 161.352M222.506 187.753V201.379" stroke="#F5F5F4" stroke-width="0.851648"/>
<path d="M220.816 173.16L176.53 147.854C175.469 147.248 174.813 146.119 174.813 144.896V135.224C174.813 134.001 175.469 132.873 176.53 132.266L220.816 106.96C221.863 106.361 223.149 106.361 224.196 106.96L268.482 132.266C269.543 132.873 270.198 134.001 270.198 135.224V144.896C270.198 146.119 269.543 147.248 268.482 147.854L224.196 173.16C223.149 173.759 221.863 173.759 220.816 173.16Z" fill="white" stroke="#D9D9D7" stroke-width="2"/>
<path d="M223.362 111.602L259.076 132.365C260.222 133.031 260.201 134.692 259.04 135.33L223.326 154.94C222.815 155.22 222.197 155.22 221.686 154.94L185.972 135.33C184.811 134.692 184.79 133.031 185.936 132.365L221.65 111.602C222.179 111.294 222.833 111.294 223.362 111.602Z" stroke="#D9D9D7"/>
<g clip-path="url(#clip3_3914_19561)">
<g clip-path="url(#clip4_3914_19561)">
<path d="M226.606 142.245L227.81 139.785L227.722 139.681L227.603 139.665L227.47 139.742L226.984 139.99L225.381 140.868L223.971 141.617L222.589 142.334L222.188 142.484L221.472 142.428L221.3 142.293L221.392 142.025L221.825 141.816L222.763 141.342L224.173 140.634L225.186 140.114L226.751 139.38L226.976 139.25L226.916 139.179L226.783 139.192L226.667 139.194L224.381 139.449L221.929 139.74L220.594 139.863L219.892 139.94L219.414 139.908L218.741 139.625L218.704 139.165L219.249 138.891L219.414 138.836L220.327 138.766L222.283 138.62L224.784 138.399L225.17 138.378L225.195 138.295L225.163 138.265L224.911 138.229L222.714 137.866L220.44 137.519L219.471 137.391L219.015 137.241C218.832 137.176 218.685 137.12 218.534 137.033L218.382 136.445L218.544 136.262L219.198 135.974L219.651 135.955L220.826 136.22L222.693 136.627L225.342 137.117L226.125 137.265L226.746 137.461L226.946 137.515L227.037 137.462L226.953 137.414L226.042 136.802L224.97 136.025L223.547 135.049L223.155 134.77L222.847 134.34L222.996 133.927L223.494 133.825L224.168 133.893L224.386 134.063L225.289 134.776L226.641 135.93L227.552 136.7L227.675 136.629L227.676 136.466L227.492 135.702L227.257 134.462L227.205 133.945L227.175 133.359L227.243 133.033L227.841 132.688L228.933 132.81L229.409 133.312L229.571 134.117L229.72 134.792L229.97 135.781L230.298 136.498L230.404 136.51L230.502 136.441L231.805 135.285L232.537 134.676L233.42 133.955L234.126 133.807L234.407 133.908L234.683 134.287L233.824 135.106L232.754 136.032L231.233 137.452L231.226 137.477L231.289 137.481L232.27 137.011L232.674 136.802L233.614 136.26L235.491 135.326L236.25 135.236L236.892 135.29L237.127 135.478L236.781 136.091L235.607 136.509L232.866 137.485L231.917 137.814L231.811 137.875L231.874 137.912L233.124 137.902L235.329 137.835L238.128 137.774L238.535 137.924L238.611 138.183L238.386 138.281L236.153 138.465L235.229 138.5L233.178 138.604L233.105 138.646L233.203 138.703L233.835 138.771L237.225 139.161L237.919 139.481L238.024 139.655L237.795 139.929L237.338 140.112L235.432 139.929L233.361 139.68L231.578 139.414L231.543 139.487L235.342 142.131L235.373 142.36L235.112 142.697L234.494 142.746L233.876 142.605L233.211 142.005L232.325 141.234L231.624 140.618L230.692 139.889L230.426 139.622L230.395 139.612L230.324 139.665L230.63 140.8L231.067 142.51L231.134 143.702L230.99 143.895L230.361 144.011L230.017 143.768L229.91 143.438L229.539 141.628L229.286 140.519L229.197 139.846L229.102 139.796L229.07 139.814L227.775 143.306L227.205 143.732L226.661 143.743L226.265 143.474L226.258 143.315L226.606 142.241L226.606 142.245Z" fill="#D9D9D7"/>
</g>
</g>
<path d="M175.665 134.099L222.506 160.5M222.506 160.5L269.346 134.099M222.506 160.5V174.126" stroke="#D9D9D7" stroke-width="0.851648"/>
<path d="M220.816 145.908L176.53 120.602C175.469 119.995 174.813 118.866 174.813 117.644V107.971C174.813 106.749 175.469 105.62 176.53 105.014L220.816 79.7075C221.863 79.109 223.149 79.109 224.196 79.7075L268.482 105.014C269.543 105.62 270.198 106.749 270.198 107.971V117.644C270.198 118.866 269.543 119.995 268.482 120.602L224.196 145.908C223.149 146.506 221.863 146.506 220.816 145.908Z" fill="white" stroke="#6E6E6A" stroke-width="2"/>
<path d="M223.362 84.3493L259.076 105.112C260.222 105.778 260.201 107.44 259.04 108.078L223.326 127.687C222.815 127.967 222.197 127.967 221.686 127.687L185.972 108.078C184.811 107.44 184.79 105.778 185.936 105.112L221.65 84.3493C222.179 84.0416 222.833 84.0416 223.362 84.3493Z" stroke="#6E6E6A"/>
<path d="M175.665 106.846L222.506 133.247M222.506 133.247L269.346 106.846M222.506 133.247V146.874" stroke="#6E6E6A" stroke-width="0.851648"/>
<path d="M166.31 231.072L122.024 205.766C120.963 205.16 120.308 204.031 120.308 202.808V193.136C120.308 191.913 120.963 190.785 122.024 190.178L166.31 164.872C167.357 164.274 168.643 164.274 169.69 164.872L213.976 190.178C215.037 190.785 215.692 191.913 215.692 193.136V202.808C215.692 204.031 215.037 205.16 213.976 205.766L169.69 231.072C168.643 231.671 167.357 231.671 166.31 231.072Z" fill="white" stroke="#F5F5F4" stroke-width="2"/>
<path d="M168.856 169.514L204.57 190.277C205.716 190.943 205.695 192.604 204.534 193.242L168.82 212.852C168.309 213.132 167.691 213.132 167.18 212.852L131.466 193.242C130.305 192.604 130.284 190.943 131.43 190.277L167.144 169.514C167.673 169.206 168.327 169.206 168.856 169.514Z" stroke="#F5F5F4"/>
<g clip-path="url(#clip5_3914_19561)">
<g clip-path="url(#clip6_3914_19561)">
<path d="M180.186 187.842L174.118 191.345L176.33 186.545L173.179 186.042L170.967 190.842L168.754 186.042L165.569 186.526L167.782 191.326L161.714 187.823L159.401 189.158L165.469 192.661L157.155 191.384L156.283 193.203L164.597 194.481L156.317 195.777L157.188 197.597L165.502 196.319L159.401 199.842L161.714 201.177L167.782 197.674L165.536 202.455L168.687 202.958L170.9 198.158L173.112 202.958L176.263 202.455L174.051 197.655L180.152 201.177L182.465 199.842L176.397 196.339L184.711 197.616L185.583 195.797L177.269 194.519L185.583 193.242L184.711 191.423L176.397 192.7L182.499 189.177L180.186 187.842ZM174.084 196.319C172.341 197.326 169.525 197.326 167.782 196.319C166.039 195.313 166.039 193.687 167.782 192.681C169.525 191.674 172.341 191.674 174.084 192.681C175.827 193.687 175.827 195.313 174.084 196.319Z" fill="#F5F5F4"/>
</g>
</g>
<path d="M121.159 192.011L168 218.412M168 218.412L214.841 192.011M168 218.412V232.038" stroke="#F5F5F4" stroke-width="0.851648"/>
<path d="M166.31 203.82L122.024 178.514C120.963 177.907 120.308 176.778 120.308 175.556V165.883C120.308 164.661 120.963 163.532 122.024 162.926L166.31 137.62C167.357 137.021 168.643 137.021 169.69 137.62L213.976 162.926C215.037 163.532 215.692 164.661 215.692 165.883V175.556C215.692 176.778 215.037 177.907 213.976 178.514L169.69 203.82C168.643 204.418 167.357 204.418 166.31 203.82Z" fill="white" stroke="#D9D9D7" stroke-width="2"/>
<path d="M168.856 142.261L204.57 163.024C205.716 163.69 205.695 165.352 204.534 165.99L168.82 185.599C168.309 185.88 167.691 185.88 167.18 185.599L131.466 165.99C130.305 165.352 130.284 163.69 131.43 163.024L167.144 142.261C167.673 141.954 168.327 141.954 168.856 142.261Z" stroke="#D9D9D7"/>
<g clip-path="url(#clip7_3914_19561)">
<g clip-path="url(#clip8_3914_19561)">
<path d="M170.612 166.219C172.96 164.863 175.738 164.854 177.571 165.913C179.405 166.971 179.39 168.575 177.042 169.931L175.855 170.616L187.312 170.423L183.147 172.828L174.444 172.983C173.829 173 173.338 172.888 173.045 172.718C172.629 172.478 172.559 172.095 172.969 171.675L174.669 169.988C175.314 169.347 175.247 168.61 174.367 168.101C173.292 167.48 171.778 167.634 170.678 168.269L165.006 171.545L163.196 170.5L170.612 166.219Z" fill="#D9D9D7"/>
</g>
</g>
<path d="M121.159 164.758L168 191.159M168 191.159L214.841 164.758M168 191.159V204.786" stroke="#D9D9D7" stroke-width="0.851648"/>
<path d="M166.31 176.567L122.024 151.261C120.963 150.654 120.308 149.526 120.308 148.303V138.631C120.308 137.408 120.963 136.279 122.024 135.673L166.31 110.367C167.357 109.768 168.643 109.768 169.69 110.367L213.976 135.673C215.037 136.279 215.692 137.408 215.692 138.631V148.303C215.692 149.526 215.037 150.654 213.976 151.261L169.69 176.567C168.643 177.165 167.357 177.165 166.31 176.567Z" fill="white" stroke="#6E6E6A" stroke-width="2"/>
<path d="M169.508 115.388L202.586 134.619C204.604 135.792 204.568 138.718 202.522 139.842L169.444 158.004C168.545 158.498 167.455 158.498 166.556 158.004L133.478 139.842C131.432 138.718 131.396 135.792 133.414 134.619L166.492 115.388C167.424 114.846 168.576 114.846 169.508 115.388Z" fill="#D0EC1A" stroke="#6E6E6A"/>
<path d="M121.159 137.505L168 163.906M168 163.906L214.841 137.505M168 163.906V177.533" stroke="#6E6E6A" stroke-width="0.851648"/>
<path d="M111.804 261.732L67.5182 236.426C66.4568 235.819 65.8018 234.691 65.8018 233.468V223.796C65.8018 222.573 66.4568 221.444 67.5182 220.838L111.804 195.532C112.851 194.933 114.137 194.933 115.184 195.532L159.47 220.838C160.531 221.444 161.186 222.573 161.186 223.796V233.468C161.186 234.691 160.531 235.819 159.47 236.426L115.184 261.732C114.137 262.33 112.851 262.33 111.804 261.732Z" fill="white" stroke="#F5F5F4" stroke-width="2"/>
<path d="M114.35 200.173L150.064 220.936C151.21 221.602 151.19 223.264 150.028 223.902L114.314 243.511C113.803 243.792 113.185 243.792 112.674 243.511L76.9604 223.902C75.7988 223.264 75.7785 221.602 76.9241 220.936L112.638 200.173C113.167 199.866 113.821 199.866 114.35 200.173Z" stroke="#F5F5F4"/>
<g clip-path="url(#clip9_3914_19561)">
<g clip-path="url(#clip10_3914_19561)">
<path d="M108.554 225.224L106.579 224.084C106.413 223.988 106.35 223.88 106.413 223.748L108.096 220.136C108.325 219.644 108.824 219.188 109.489 218.804C111.983 217.364 115.496 217.568 117.553 218.756C117.699 218.84 117.865 218.936 118.011 219.044L111.484 220.028C111.089 220.088 110.84 220.232 110.736 220.46L108.554 225.224ZM125.514 224.312L120.796 221.588C120.505 221.42 120.172 221.372 119.777 221.432L111.526 222.692L112.253 221.144C112.315 221.012 112.44 220.94 112.669 220.904L118.925 219.932C120.733 219.656 122.916 220.028 124.287 220.82C125.867 221.732 126.387 223.112 125.514 224.312L125.514 224.312ZM110.861 227.972L108.159 228.38C107.93 228.416 107.743 228.38 107.577 228.284L103.004 225.644C100.78 224.36 100.801 222.404 103.108 221.072C103.981 220.568 105.083 220.268 106.288 220.172L104.563 223.904C104.459 224.132 104.542 224.324 104.834 224.492L110.861 227.972L110.861 227.972ZM116.649 227.078L112.835 227.696L109.925 226.016L110.996 223.814L114.81 223.196L117.72 224.876L116.649 227.078ZM124.537 229.82C123.664 230.324 122.563 230.624 121.357 230.72L123.082 226.988C123.186 226.76 123.103 226.568 122.812 226.4L116.784 222.92L119.507 222.5C119.735 222.464 119.923 222.5 120.089 222.596L124.662 225.236C126.885 226.52 126.844 228.488 124.537 229.82L124.537 229.82ZM114.976 229.988L108.72 230.96C106.911 231.236 104.729 230.864 103.357 230.072C101.757 229.148 101.279 227.768 102.152 226.568L106.891 229.304C107.182 229.472 107.514 229.52 107.909 229.46L116.119 228.2L115.392 229.748C115.329 229.88 115.205 229.952 114.976 229.988ZM118.156 232.088C115.808 233.444 112.316 233.42 110.133 232.16C109.967 232.064 109.822 231.956 109.676 231.848L116.14 230.852C116.535 230.792 116.784 230.648 116.888 230.42L119.092 225.668L121.066 226.808C121.232 226.904 121.295 227.012 121.232 227.144L119.549 230.756C119.32 231.248 118.821 231.704 118.156 232.088L118.156 232.088ZM125.784 230.54C128.299 229.088 128.611 226.844 126.719 225.2C128.444 223.508 127.759 221.384 125.535 220.1C124.08 219.26 122.043 218.804 119.902 218.864C119.57 218.552 119.195 218.264 118.759 218.012C115.787 216.296 111.152 216.404 108.367 218.012C107.806 218.336 107.348 218.696 106.995 219.116C105.145 219.128 103.274 219.536 101.861 220.352C99.346 221.804 99.0343 224.048 100.926 225.692C99.2005 227.384 99.8864 229.508 102.11 230.792C103.565 231.632 105.602 232.088 107.743 232.028C108.076 232.34 108.45 232.628 108.886 232.88C111.858 234.596 116.493 234.488 119.278 232.88C119.84 232.556 120.297 232.196 120.65 231.776C122.5 231.764 124.371 231.356 125.784 230.54Z" fill="#F5F5F4"/>
</g>
</g>
<path d="M66.6543 222.67L113.495 249.072M113.495 249.072L160.336 222.67M113.495 249.072V262.698" stroke="#F5F5F4" stroke-width="0.851648"/>
<path d="M111.804 234.479L67.5182 209.173C66.4568 208.566 65.8018 207.438 65.8018 206.215V196.543C65.8018 195.32 66.4568 194.191 67.5182 193.585L111.804 168.279C112.851 167.68 114.137 167.68 115.184 168.279L159.47 193.585C160.531 194.191 161.186 195.32 161.186 196.543V206.215C161.186 207.438 160.531 208.566 159.47 209.173L115.184 234.479C114.137 235.078 112.851 235.078 111.804 234.479Z" fill="white" stroke="#D9D9D7" stroke-width="2"/>
<path d="M114.35 172.921L150.064 193.683C151.21 194.35 151.19 196.011 150.028 196.649L114.314 216.258C113.803 216.539 113.185 216.539 112.674 216.258L76.9604 196.649C75.7988 196.011 75.7785 194.35 76.9241 193.683L112.638 172.921C113.167 172.613 113.821 172.613 114.35 172.921Z" stroke="#D9D9D7"/>
<path d="M66.6543 195.417L113.495 221.819M113.495 221.819L160.336 195.417M113.495 221.819V235.445" stroke="#D9D9D7" stroke-width="0.851648"/>
<path d="M117.043 185.389L99.0531 195.775C97.6582 196.581 98.249 197.955 100.143 198.293L105.356 199.226L102.095 201.109C101.431 201.492 101.437 202.112 102.098 202.493C102.291 202.605 102.532 202.688 102.797 202.736L119.57 205.738C120.466 205.9 121.414 205.609 121.692 205.092C121.793 204.905 121.788 204.702 121.691 204.513L120.298 201.893L126.013 202.915C128.022 203.275 129.903 202.189 129.288 201.029L121.292 185.999C120.721 184.942 118.399 184.606 117.043 185.389ZM116.235 194.254L119.684 200.733C119.867 201.078 119.536 201.442 118.939 201.547C118.722 201.583 118.491 201.583 118.274 201.546L107.115 199.552C106.517 199.446 106.184 199.082 106.366 198.737C106.419 198.634 106.515 198.545 106.645 198.47L114.404 193.991C114.832 193.744 115.525 193.744 115.959 193.995C116.085 194.062 116.177 194.154 116.235 194.254Z" fill="#D9D9D7"/>
<path d="M111.804 207.227L67.5182 181.92C66.4568 181.314 65.8018 180.185 65.8018 178.963V169.29C65.8018 168.068 66.4568 166.939 67.5182 166.332L111.804 141.026C112.851 140.428 114.137 140.428 115.184 141.026L159.47 166.332C160.531 166.939 161.186 168.068 161.186 169.29V178.963C161.186 180.185 160.531 181.314 159.47 181.92L115.184 207.227C114.137 207.825 112.851 207.825 111.804 207.227Z" fill="white" stroke="#6E6E6A" stroke-width="2"/>
<path d="M113.335 158.445C111.141 158.915 109.019 159.553 107.041 160.359C107.005 160.373 106.988 160.399 107 160.424C107.162 160.757 107.414 161.168 107.631 161.479C105.545 162.37 103.741 163.412 102.235 164.594C101.688 164.464 100.977 164.328 100.399 164.236C100.356 164.229 100.311 164.239 100.285 164.259C98.89 165.4 97.7854 166.625 96.9714 167.893C96.964 167.904 96.9622 167.916 96.9669 167.927C98.4784 172.333 102.099 175.391 106.914 177.696C106.937 177.707 106.97 177.712 107 177.71C110.501 177.4 113.356 176.791 115.872 176.027C115.912 176.015 115.934 175.99 115.928 175.964C115.762 175.344 115.513 174.733 115.172 174.136C115.153 174.101 115.085 174.084 115.028 174.099C114.142 174.329 113.234 174.511 112.309 174.656C112.235 174.667 112.165 174.63 112.176 174.587C112.207 174.462 112.234 174.335 112.255 174.211C112.259 174.188 112.285 174.169 112.321 174.161C117.947 172.949 122.129 170.535 124.182 167.313C124.195 167.291 124.229 167.276 124.269 167.274C124.484 167.262 124.705 167.246 124.923 167.228C124.997 167.222 125.061 167.262 125.042 167.304C124.798 167.842 124.477 168.363 124.076 168.874C124.051 168.907 124.081 168.946 124.141 168.957C125.182 169.149 126.241 169.293 127.306 169.394C127.351 169.398 127.396 169.385 127.417 169.362C128.749 167.904 129.804 166.256 130.341 164.234C130.345 164.216 130.337 164.199 130.317 164.185C125.718 160.962 119.98 159.168 113.394 158.444C113.374 158.44 113.354 158.441 113.335 158.445ZM112.022 171.651C110.859 172.322 108.833 172.259 107.522 171.502C106.211 170.745 106.083 169.586 107.264 168.904C108.455 168.216 110.481 168.29 111.764 169.053C113.075 169.81 113.203 170.969 112.022 171.651ZM119.864 167.123C118.701 167.794 116.675 167.731 115.364 166.974C114.053 166.217 113.925 165.058 115.107 164.376C116.297 163.689 118.323 163.763 119.606 164.525C120.918 165.282 121.055 166.435 119.864 167.123Z" fill="#6E6E6A"/>
<path d="M114.35 145.668L150.064 166.431C151.21 167.097 151.19 168.759 150.028 169.397L114.314 189.006C113.803 189.286 113.185 189.286 112.674 189.006L76.9604 169.397C75.7988 168.759 75.7785 167.097 76.9241 166.431L112.638 145.668C113.167 145.36 113.821 145.36 114.35 145.668Z" stroke="#6E6E6A"/>
<path d="M66.6543 168.165L113.495 194.566M113.495 194.566L160.336 168.165M113.495 194.566V208.193" stroke="#6E6E6A" stroke-width="0.851648"/>
<path fill-rule="evenodd" clip-rule="evenodd" d="M210.67 99.2912C204.028 103.126 204.068 109.348 210.759 113.212C216.108 116.3 224.076 116.927 230.45 115.097C231.168 114.822 231.005 114.476 230.685 114.291C230.405 114.129 229.423 113.586 228.421 113.007C225.802 115.353 222.942 114.505 222.942 114.505C221.003 114.005 219.847 114.257 219.847 114.257C218.012 114.46 219.185 113.783 219.185 113.783C220.479 113.129 222.277 113.432 222.277 113.432C225.193 113.876 226.403 112.577 226.778 111.99C226.096 111.481 225.874 110.985 225.911 110.617C222.966 111.993 219.121 113.01 214.473 110.327C213.151 109.564 212.546 108.664 212.46 107.742C212.041 107.637 210.381 107.161 209.375 105.822C209.375 105.822 210.068 105.051 213.917 104.633C214.631 103.915 215.506 103.255 216.519 102.668C217.534 102.083 218.708 101.567 219.923 101.166C220.647 98.9437 221.982 98.5433 221.982 98.5433C224.301 99.1243 225.125 100.083 225.306 100.325C226.923 100.363 228.462 100.724 229.784 101.487C234.432 104.17 232.65 106.379 230.266 108.102C231.084 108.069 232.183 108.268 233.325 108.927C234.948 109.864 236.23 110.627 236.631 110.858C236.951 111.043 237.551 111.137 238.027 110.723C241.197 107.042 240.109 102.442 234.761 99.3542C228.089 95.4796 217.292 95.4681 210.67 99.2912Z" fill="#6E6E6A"/>
<path d="M13 141.049V220.83C13 221.441 13.3275 222.006 13.8582 222.309L131.386 289.467C131.909 289.767 132.552 289.767 133.076 289.467L322.142 181.43C322.672 181.127 323 180.562 323 179.951V100.17C323 99.5584 322.672 98.994 322.142 98.6908L204.614 31.5322C204.091 31.233 203.448 31.233 202.924 31.5322L13.8582 139.57C13.3275 139.873 13 140.438 13 141.049Z" stroke="#131310" stroke-width="3" stroke-linecap="round"/>
<defs>
<clipPath id="clip1_3914_19561">
<rect width="25" height="25" fill="white" transform="matrix(0.866025 -0.5 0.866025 0.5 204.874 164.494)"/>
</clipPath>
<clipPath id="clip2_3914_19561">
<rect width="25" height="25" fill="white" transform="matrix(0.866025 -0.5 0.866025 0.5 204.874 164.494)"/>
</clipPath>
<clipPath id="clip3_3914_19561">
<rect width="20" height="20" fill="white" transform="matrix(0.866025 -0.5 0.866025 0.5 211.204 138.5)"/>
</clipPath>
<clipPath id="clip4_3914_19561">
<rect width="20" height="20" fill="white" transform="matrix(0.866025 -0.5 0.866025 0.5 211.204 138.5)"/>
</clipPath>
<clipPath id="clip5_3914_19561">
<rect width="30" height="30" fill="white" transform="matrix(0.866025 -0.5 0.866025 0.5 144.952 194.5)"/>
</clipPath>
<clipPath id="clip6_3914_19561">
<rect width="30" height="30" fill="white" transform="matrix(0.866025 -0.5 0.866025 0.5 144.952 194.5)"/>
</clipPath>
<clipPath id="clip7_3914_19561">
<rect width="20" height="20" fill="white" transform="matrix(0.866025 -0.5 0.866025 0.5 158 170.5)"/>
</clipPath>
<clipPath id="clip8_3914_19561">
<rect width="20" height="20" fill="white" transform="matrix(0.866025 -0.5 0.866025 0.5 158 170.5)"/>
</clipPath>
<clipPath id="clip9_3914_19561">
<rect width="30" height="30" fill="white" transform="matrix(0.866025 -0.5 0.866025 0.5 87.748 225.5)"/>
</clipPath>
<clipPath id="clip10_3914_19561">
<rect width="30" height="30" fill="white" transform="matrix(0.866025 -0.5 0.866025 0.5 87.748 225.5)"/>
</clipPath>
<pattern id="pattern0_3914_19561" patternUnits="userSpaceOnUse" patternTransform="matrix(16 0 0 16 100.385 118.457)" preserveAspectRatio="none" viewBox="0 0 64 64" width="1" height="1">
<g id="pattern0_3914_19561_inner">
<g clip-path="url(#clip0_3914_19561)">
<path d="M4 96V-32" stroke="#6E6E6A"/>
<path d="M12 96V-32" stroke="#6E6E6A"/>
<path d="M20 96V-32" stroke="#6E6E6A"/>
<path d="M28 96V-32" stroke="#6E6E6A"/>
<path d="M36 96V-32" stroke="#6E6E6A"/>
<path d="M44 96V-32" stroke="#6E6E6A"/>
<path d="M52 96V-32" stroke="#6E6E6A"/>
<path d="M60 96V-32" stroke="#6E6E6A"/>
</g>
</g>
</pattern><clipPath id="clip0_3914_19561">
<rect width="64" height="64" fill="white"/>
</clipPath>
</defs>
</svg>
