<svg width="128" height="128" viewBox="0 0 128 128" fill="none" xmlns="http://www.w3.org/2000/svg">
<path d="M43.381 127.131C27.2525 127.131 14.4445 120.964 6.85463 110.054C-1.20964 98.6687 -2.15838 82.5402 4.00842 65.4629C12.5471 43.1676 32.9449 29.4109 57.6121 29.4109H58.0865C58.0865 28.9365 58.0865 28.4621 58.0865 27.5134C57.6121 19.4491 62.8301 12.3336 70.42 9.96175L92.7154 1.42311C95.0872 0.474369 97.4591 0 99.8309 0C106.946 0 113.588 3.79495 116.908 10.4361L125.921 29.4109C128.767 35.1033 128.767 42.2188 125.447 47.4369C122.126 52.6549 116.908 55.5012 111.216 55.9755C109.793 58.8217 108.844 61.6679 107.421 64.0398C104.575 70.681 101.728 77.3221 98.4078 84.4376C86.0742 110.054 72.3175 127.131 43.381 127.131Z" fill="#D0EC1A"/>
<path d="M43.3804 110.528C61.4064 110.528 71.3682 102.464 83.2274 77.3223C89.8685 63.5656 95.0866 49.8089 101.253 36.5265L108.843 38.8984C110.741 39.3727 112.164 38.424 111.215 36.5265L101.728 18.0261C101.253 16.603 99.3559 16.603 98.4072 17.0774L75.6375 25.616C73.74 26.0904 73.74 27.9879 75.6375 28.4623L82.2786 30.8341C76.5862 43.1677 69.9451 62.1425 64.2526 74.0017C58.0858 87.284 55.2396 96.297 44.3291 96.297C33.4187 96.297 31.9955 88.2327 36.7392 76.3735C41.9573 62.6168 50.4959 58.8219 59.9833 61.6681C62.8295 57.8731 64.727 52.1807 65.6757 46.9626C62.8295 46.0139 59.5089 46.0139 56.6627 46.0139C41.0086 46.0139 25.3544 54.0782 18.7132 71.1555C11.5977 93.4508 19.1876 110.528 43.3804 110.528Z" fill="#07401A"/>
</svg>
