<svg width="100" height="100" viewBox="0 0 100 100" fill="none" xmlns="http://www.w3.org/2000/svg">
<path d="M33.8914 99.321C21.291 99.321 11.2848 94.5032 5.35518 85.9794C-0.945031 77.0849 -1.68623 64.4845 3.13158 51.1429C9.80239 33.7247 25.7382 22.9772 45.0094 22.9772H45.38C45.38 22.6066 45.38 22.236 45.38 21.4948C45.0094 15.1946 49.0861 9.63562 55.0157 7.78261L72.4339 1.1118C74.2869 0.370601 76.1399 0 77.9929 0C83.5519 0 88.7403 2.96481 91.3345 8.15321L98.3759 22.9772C100.6 27.4245 100.6 32.9835 98.0053 37.0601C95.4111 41.1367 91.3345 43.3603 86.8873 43.7309C85.7755 45.9545 85.0343 48.1781 83.9225 50.0311C81.6989 55.2195 79.4753 60.4079 76.8811 65.9669C67.2455 85.9794 56.4981 99.321 33.8914 99.321Z" fill="#07401A"/>
<path d="M33.8913 86.3501C47.9742 86.3501 55.7568 80.0499 65.0218 60.4081C70.2102 49.6606 74.2868 38.9132 79.1046 28.5364L85.0342 30.3894C86.5166 30.76 87.6284 30.0188 86.8872 28.5364L79.4752 14.083C79.1046 12.9712 77.6222 12.9712 76.881 13.3418L59.0922 20.0126C57.6098 20.3832 57.6098 21.8656 59.0922 22.2362L64.2806 24.0892C59.8334 33.7248 54.645 48.5488 50.1978 57.8138C45.38 68.1907 43.1563 75.2321 34.6325 75.2321C26.1087 75.2321 24.9969 68.9319 28.7029 59.6668C32.7795 48.9194 39.4503 45.9546 46.8624 48.1782C49.086 45.2134 50.5684 40.7662 51.3096 36.6896C49.086 35.9484 46.4918 35.9484 44.2682 35.9484C32.0383 35.9484 19.8085 42.2486 14.6201 55.5902C9.06109 73.0085 14.9907 86.3501 33.8913 86.3501Z" fill="#D0EC1A"/>
</svg>
