<svg width="180" height="180" viewBox="0 0 180 180" fill="none" xmlns="http://www.w3.org/2000/svg">
<path d="M156.46 50.2544H157.775L157.769 50.249C158.47 50.249 159.036 50.815 159.036 51.5157V78.1067C159.036 78.8074 158.47 79.3734 157.769 79.3734H156.654C151.064 79.3734 146.536 83.9014 146.536 89.4912V117.64C146.536 124.475 140.828 130.022 134.165 130.022C129.799 130.022 126.138 128.006 123.761 124.61L95.1707 83.7827C93.2357 81.0229 90.0768 79.3788 86.7079 79.3788H86.6912C81.1018 79.3788 76.5737 83.9067 76.5737 89.4966V117.635C76.5737 125.402 69.2858 131.499 61.3673 129.698C58.2031 128.981 55.4594 127.008 53.5997 124.351L22.1196 79.3896C21.4135 78.3762 21.0361 77.1795 21.0361 75.9451V51.5319C21.0361 50.2705 22.6587 49.7638 23.381 50.7934L55.3731 96.4826C57.3083 99.2425 60.5641 100.887 63.8415 100.887C69.3774 100.887 73.9593 96.3587 73.9593 90.7688V62.6146C73.9593 55.7741 79.8241 50.2328 86.3414 50.2328C90.5189 50.2328 94.3781 52.2542 96.7498 55.6448L125.341 96.4772C127.276 99.2371 130.537 100.881 133.804 100.881C139.302 100.881 143.922 96.3532 143.922 90.7633V62.7709C143.922 55.8496 149.539 50.2436 156.46 50.2544Z" fill="#131310"/>
</svg>
