<svg preserveAspectRatio="none" width="100%" height="100%" overflow="visible" style="display: block;" viewBox="0 0 14.1356 14.1356" fill="none" xmlns="http://www.w3.org/2000/svg">
<path id="Icon" d="M10.9584 5.84395L8.29169 3.17729M0.625004 13.5106L2.88125 13.2599C3.15691 13.2293 3.29474 13.214 3.42357 13.1723C3.53786 13.1353 3.64664 13.083 3.74693 13.0169C3.85997 12.9423 3.95803 12.8443 4.15416 12.6481L12.9584 3.84395C13.6947 3.10757 13.6947 1.91367 12.9584 1.17728C12.222 0.440906 11.0281 0.440905 10.2917 1.17728L1.48749 9.98147C1.29137 10.1776 1.19331 10.2757 1.11876 10.3887C1.05263 10.489 1.00035 10.5978 0.963347 10.7121C0.921641 10.8409 0.906327 10.9787 0.875698 11.2544L0.625004 13.5106Z" stroke="var(--stroke-0, #6E6E6A)" stroke-width="1.25" stroke-linecap="round" stroke-linejoin="round"/>
</svg>
