<svg preserveAspectRatio="none" width="100%" height="100%" overflow="visible" style="display: block;" viewBox="0 0 13.3 10.6333" fill="none" xmlns="http://www.w3.org/2000/svg">
<path id="Icon" d="M0.65 2.65L8.65 2.65M8.65 2.65C8.65 3.75457 9.54543 4.65 10.65 4.65C11.7546 4.65 12.65 3.75457 12.65 2.65C12.65 1.54543 11.7546 0.65 10.65 0.65C9.54543 0.65 8.65 1.54543 8.65 2.65ZM4.65 7.98333L12.65 7.98333M4.65 7.98333C4.65 9.0879 3.75457 9.98333 2.65 9.98333C1.54543 9.98333 0.65 9.0879 0.65 7.98333C0.65 6.87876 1.54543 5.98333 2.65 5.98333C3.75457 5.98333 4.65 6.87876 4.65 7.98333Z" stroke="var(--stroke-0, #6E6E6A)" stroke-width="1.3" stroke-linecap="round" stroke-linejoin="round"/>
</svg>
