<svg preserveAspectRatio="none" width="100%" height="100%" overflow="visible" style="display: block;" viewBox="0 0 14.6333 14.6333" fill="none" xmlns="http://www.w3.org/2000/svg">
<path id="Icon" d="M2.86086 12.2756C3.26641 11.3201 4.21328 10.65 5.31667 10.65H9.31667C10.4201 10.65 11.3669 11.3201 11.7725 12.2756M9.98333 5.65C9.98333 7.12276 8.78943 8.31667 7.31667 8.31667C5.84391 8.31667 4.65 7.12276 4.65 5.65C4.65 4.17724 5.84391 2.98333 7.31667 2.98333C8.78943 2.98333 9.98333 4.17724 9.98333 5.65ZM13.9833 7.31667C13.9833 10.9986 10.9986 13.9833 7.31667 13.9833C3.63477 13.9833 0.65 10.9986 0.65 7.31667C0.65 3.63477 3.63477 0.65 7.31667 0.65C10.9986 0.65 13.9833 3.63477 13.9833 7.31667Z" stroke="var(--stroke-0, #6E6E6A)" stroke-width="1.3" stroke-linecap="round" stroke-linejoin="round"/>
</svg>
